%TF.GenerationSoftware,KiCad,Pcbnew,(5.1.9)-1*%
%TF.CreationDate,2021-05-22T10:51:53+02:00*%
%TF.ProjectId,SPD_DC_MotorHBridge,5350445f-4443-45f4-9d6f-746f72484272,rev?*%
%TF.SameCoordinates,Original*%
%TF.FileFunction,Soldermask,Top*%
%TF.FilePolarity,Negative*%
%FSLAX46Y46*%
G04 Gerber Fmt 4.6, Leading zero omitted, Abs format (unit mm)*
G04 Created by KiCad (PCBNEW (5.1.9)-1) date 2021-05-22 10:51:53*
%MOMM*%
%LPD*%
G01*
G04 APERTURE LIST*
%ADD10C,2.318000*%
%ADD11O,1.718000X1.718000*%
%ADD12C,1.718000*%
%ADD13C,1.768000*%
%ADD14O,1.018000X1.718000*%
%ADD15C,1.618000*%
%ADD16C,2.018000*%
G04 APERTURE END LIST*
%TO.C,R2*%
G36*
G01*
X61154961Y-7114000D02*
X62416039Y-7114000D01*
G75*
G02*
X62669500Y-7367461I0J-253461D01*
G01*
X62669500Y-8178539D01*
G75*
G02*
X62416039Y-8432000I-253461J0D01*
G01*
X61154961Y-8432000D01*
G75*
G02*
X60901500Y-8178539I0J253461D01*
G01*
X60901500Y-7367461D01*
G75*
G02*
X61154961Y-7114000I253461J0D01*
G01*
G37*
G36*
G01*
X61154961Y-4014000D02*
X62416039Y-4014000D01*
G75*
G02*
X62669500Y-4267461I0J-253461D01*
G01*
X62669500Y-5078539D01*
G75*
G02*
X62416039Y-5332000I-253461J0D01*
G01*
X61154961Y-5332000D01*
G75*
G02*
X60901500Y-5078539I0J253461D01*
G01*
X60901500Y-4267461D01*
G75*
G02*
X61154961Y-4014000I253461J0D01*
G01*
G37*
%TD*%
%TO.C,U3*%
G36*
G01*
X55301000Y-6820500D02*
X55301000Y-3720500D01*
G75*
G02*
X55310000Y-3711500I9000J0D01*
G01*
X57720000Y-3711500D01*
G75*
G02*
X57729000Y-3720500I0J-9000D01*
G01*
X57729000Y-6820500D01*
G75*
G02*
X57720000Y-6829500I-9000J0D01*
G01*
X55310000Y-6829500D01*
G75*
G02*
X55301000Y-6820500I0J9000D01*
G01*
G37*
G36*
G01*
X58356000Y-3520000D02*
X58356000Y-3211000D01*
G75*
G02*
X58510500Y-3056500I154500J0D01*
G01*
X59819500Y-3056500D01*
G75*
G02*
X59974000Y-3211000I0J-154500D01*
G01*
X59974000Y-3520000D01*
G75*
G02*
X59819500Y-3674500I-154500J0D01*
G01*
X58510500Y-3674500D01*
G75*
G02*
X58356000Y-3520000I0J154500D01*
G01*
G37*
G36*
G01*
X58356000Y-4790000D02*
X58356000Y-4481000D01*
G75*
G02*
X58510500Y-4326500I154500J0D01*
G01*
X59819500Y-4326500D01*
G75*
G02*
X59974000Y-4481000I0J-154500D01*
G01*
X59974000Y-4790000D01*
G75*
G02*
X59819500Y-4944500I-154500J0D01*
G01*
X58510500Y-4944500D01*
G75*
G02*
X58356000Y-4790000I0J154500D01*
G01*
G37*
G36*
G01*
X58356000Y-6060000D02*
X58356000Y-5751000D01*
G75*
G02*
X58510500Y-5596500I154500J0D01*
G01*
X59819500Y-5596500D01*
G75*
G02*
X59974000Y-5751000I0J-154500D01*
G01*
X59974000Y-6060000D01*
G75*
G02*
X59819500Y-6214500I-154500J0D01*
G01*
X58510500Y-6214500D01*
G75*
G02*
X58356000Y-6060000I0J154500D01*
G01*
G37*
G36*
G01*
X58356000Y-7330000D02*
X58356000Y-7021000D01*
G75*
G02*
X58510500Y-6866500I154500J0D01*
G01*
X59819500Y-6866500D01*
G75*
G02*
X59974000Y-7021000I0J-154500D01*
G01*
X59974000Y-7330000D01*
G75*
G02*
X59819500Y-7484500I-154500J0D01*
G01*
X58510500Y-7484500D01*
G75*
G02*
X58356000Y-7330000I0J154500D01*
G01*
G37*
G36*
G01*
X53056000Y-7330000D02*
X53056000Y-7021000D01*
G75*
G02*
X53210500Y-6866500I154500J0D01*
G01*
X54519500Y-6866500D01*
G75*
G02*
X54674000Y-7021000I0J-154500D01*
G01*
X54674000Y-7330000D01*
G75*
G02*
X54519500Y-7484500I-154500J0D01*
G01*
X53210500Y-7484500D01*
G75*
G02*
X53056000Y-7330000I0J154500D01*
G01*
G37*
G36*
G01*
X53056000Y-6060000D02*
X53056000Y-5751000D01*
G75*
G02*
X53210500Y-5596500I154500J0D01*
G01*
X54519500Y-5596500D01*
G75*
G02*
X54674000Y-5751000I0J-154500D01*
G01*
X54674000Y-6060000D01*
G75*
G02*
X54519500Y-6214500I-154500J0D01*
G01*
X53210500Y-6214500D01*
G75*
G02*
X53056000Y-6060000I0J154500D01*
G01*
G37*
G36*
G01*
X53056000Y-4790000D02*
X53056000Y-4481000D01*
G75*
G02*
X53210500Y-4326500I154500J0D01*
G01*
X54519500Y-4326500D01*
G75*
G02*
X54674000Y-4481000I0J-154500D01*
G01*
X54674000Y-4790000D01*
G75*
G02*
X54519500Y-4944500I-154500J0D01*
G01*
X53210500Y-4944500D01*
G75*
G02*
X53056000Y-4790000I0J154500D01*
G01*
G37*
G36*
G01*
X53056000Y-3520000D02*
X53056000Y-3211000D01*
G75*
G02*
X53210500Y-3056500I154500J0D01*
G01*
X54519500Y-3056500D01*
G75*
G02*
X54674000Y-3211000I0J-154500D01*
G01*
X54674000Y-3520000D01*
G75*
G02*
X54519500Y-3674500I-154500J0D01*
G01*
X53210500Y-3674500D01*
G75*
G02*
X53056000Y-3520000I0J154500D01*
G01*
G37*
%TD*%
D10*
%TO.C,J1*%
X66294000Y-2215000D03*
X66294000Y-5715000D03*
%TD*%
%TO.C,Y1*%
G36*
G01*
X27988920Y-7928206D02*
X27487581Y-7426867D01*
G75*
G02*
X27487581Y-6925529I250669J250669D01*
G01*
X28271762Y-6141348D01*
G75*
G02*
X28773100Y-6141348I250669J-250669D01*
G01*
X29274439Y-6642687D01*
G75*
G02*
X29274439Y-7144025I-250669J-250669D01*
G01*
X28490258Y-7928206D01*
G75*
G02*
X27988920Y-7928206I-250669J250669D01*
G01*
G37*
G36*
G01*
X29756687Y-6160439D02*
X29255348Y-5659100D01*
G75*
G02*
X29255348Y-5157762I250669J250669D01*
G01*
X30039529Y-4373581D01*
G75*
G02*
X30540867Y-4373581I250669J-250669D01*
G01*
X31042206Y-4874920D01*
G75*
G02*
X31042206Y-5376258I-250669J-250669D01*
G01*
X30258025Y-6160439D01*
G75*
G02*
X29756687Y-6160439I-250669J250669D01*
G01*
G37*
G36*
G01*
X31170900Y-7574652D02*
X30669561Y-7073313D01*
G75*
G02*
X30669561Y-6571975I250669J250669D01*
G01*
X31453742Y-5787794D01*
G75*
G02*
X31955080Y-5787794I250669J-250669D01*
G01*
X32456419Y-6289133D01*
G75*
G02*
X32456419Y-6790471I-250669J-250669D01*
G01*
X31672238Y-7574652D01*
G75*
G02*
X31170900Y-7574652I-250669J250669D01*
G01*
G37*
G36*
G01*
X29403133Y-9342419D02*
X28901794Y-8841080D01*
G75*
G02*
X28901794Y-8339742I250669J250669D01*
G01*
X29685975Y-7555561D01*
G75*
G02*
X30187313Y-7555561I250669J-250669D01*
G01*
X30688652Y-8056900D01*
G75*
G02*
X30688652Y-8558238I-250669J-250669D01*
G01*
X29904471Y-9342419D01*
G75*
G02*
X29403133Y-9342419I-250669J250669D01*
G01*
G37*
%TD*%
D11*
%TO.C,J4*%
X18542000Y-18491200D03*
X21082000Y-18491200D03*
X23622000Y-18491200D03*
X26162000Y-18491200D03*
X28702000Y-18491200D03*
D12*
X31242000Y-18491200D03*
%TD*%
%TO.C,R12*%
G36*
G01*
X31951088Y-1641800D02*
X31040912Y-1641800D01*
G75*
G02*
X30787000Y-1387888I0J253912D01*
G01*
X30787000Y-727712D01*
G75*
G02*
X31040912Y-473800I253912J0D01*
G01*
X31951088Y-473800D01*
G75*
G02*
X32205000Y-727712I0J-253912D01*
G01*
X32205000Y-1387888D01*
G75*
G02*
X31951088Y-1641800I-253912J0D01*
G01*
G37*
G36*
G01*
X31951088Y-3691800D02*
X31040912Y-3691800D01*
G75*
G02*
X30787000Y-3437888I0J253912D01*
G01*
X30787000Y-2777712D01*
G75*
G02*
X31040912Y-2523800I253912J0D01*
G01*
X31951088Y-2523800D01*
G75*
G02*
X32205000Y-2777712I0J-253912D01*
G01*
X32205000Y-3437888D01*
G75*
G02*
X31951088Y-3691800I-253912J0D01*
G01*
G37*
%TD*%
%TO.C,D7*%
G36*
G01*
X34592688Y-1641800D02*
X33682512Y-1641800D01*
G75*
G02*
X33428600Y-1387888I0J253912D01*
G01*
X33428600Y-727712D01*
G75*
G02*
X33682512Y-473800I253912J0D01*
G01*
X34592688Y-473800D01*
G75*
G02*
X34846600Y-727712I0J-253912D01*
G01*
X34846600Y-1387888D01*
G75*
G02*
X34592688Y-1641800I-253912J0D01*
G01*
G37*
G36*
G01*
X34592688Y-3691800D02*
X33682512Y-3691800D01*
G75*
G02*
X33428600Y-3437888I0J253912D01*
G01*
X33428600Y-2777712D01*
G75*
G02*
X33682512Y-2523800I253912J0D01*
G01*
X34592688Y-2523800D01*
G75*
G02*
X34846600Y-2777712I0J-253912D01*
G01*
X34846600Y-3437888D01*
G75*
G02*
X34592688Y-3691800I-253912J0D01*
G01*
G37*
%TD*%
%TO.C,R15*%
G36*
G01*
X7839400Y-5336112D02*
X7839400Y-6246288D01*
G75*
G02*
X7585488Y-6500200I-253912J0D01*
G01*
X6925312Y-6500200D01*
G75*
G02*
X6671400Y-6246288I0J253912D01*
G01*
X6671400Y-5336112D01*
G75*
G02*
X6925312Y-5082200I253912J0D01*
G01*
X7585488Y-5082200D01*
G75*
G02*
X7839400Y-5336112I0J-253912D01*
G01*
G37*
G36*
G01*
X9889400Y-5336112D02*
X9889400Y-6246288D01*
G75*
G02*
X9635488Y-6500200I-253912J0D01*
G01*
X8975312Y-6500200D01*
G75*
G02*
X8721400Y-6246288I0J253912D01*
G01*
X8721400Y-5336112D01*
G75*
G02*
X8975312Y-5082200I253912J0D01*
G01*
X9635488Y-5082200D01*
G75*
G02*
X9889400Y-5336112I0J-253912D01*
G01*
G37*
%TD*%
%TO.C,D6*%
G36*
G01*
X3844600Y-6195488D02*
X3844600Y-5285312D01*
G75*
G02*
X4098512Y-5031400I253912J0D01*
G01*
X4758688Y-5031400D01*
G75*
G02*
X5012600Y-5285312I0J-253912D01*
G01*
X5012600Y-6195488D01*
G75*
G02*
X4758688Y-6449400I-253912J0D01*
G01*
X4098512Y-6449400D01*
G75*
G02*
X3844600Y-6195488I0J253912D01*
G01*
G37*
G36*
G01*
X1794600Y-6195488D02*
X1794600Y-5285312D01*
G75*
G02*
X2048512Y-5031400I253912J0D01*
G01*
X2708688Y-5031400D01*
G75*
G02*
X2962600Y-5285312I0J-253912D01*
G01*
X2962600Y-6195488D01*
G75*
G02*
X2708688Y-6449400I-253912J0D01*
G01*
X2048512Y-6449400D01*
G75*
G02*
X1794600Y-6195488I0J253912D01*
G01*
G37*
%TD*%
D13*
%TO.C,VM1*%
X12242800Y-6096000D03*
%TD*%
%TO.C,T1*%
X16052800Y-14427200D03*
%TD*%
%TO.C,T0*%
X17983200Y-16154400D03*
%TD*%
%TO.C,MP3*%
X42367200Y-18338800D03*
%TD*%
%TO.C,MP2*%
X39624000Y-18351500D03*
%TD*%
%TO.C,IM1*%
X18186400Y-6096000D03*
%TD*%
%TO.C,FB1*%
G36*
G01*
X23166912Y-2523800D02*
X24077088Y-2523800D01*
G75*
G02*
X24331000Y-2777712I0J-253912D01*
G01*
X24331000Y-3437888D01*
G75*
G02*
X24077088Y-3691800I-253912J0D01*
G01*
X23166912Y-3691800D01*
G75*
G02*
X22913000Y-3437888I0J253912D01*
G01*
X22913000Y-2777712D01*
G75*
G02*
X23166912Y-2523800I253912J0D01*
G01*
G37*
G36*
G01*
X23166912Y-473800D02*
X24077088Y-473800D01*
G75*
G02*
X24331000Y-727712I0J-253912D01*
G01*
X24331000Y-1387888D01*
G75*
G02*
X24077088Y-1641800I-253912J0D01*
G01*
X23166912Y-1641800D01*
G75*
G02*
X22913000Y-1387888I0J253912D01*
G01*
X22913000Y-727712D01*
G75*
G02*
X23166912Y-473800I253912J0D01*
G01*
G37*
%TD*%
%TO.C,R14*%
G36*
G01*
X42974688Y-7585400D02*
X42064512Y-7585400D01*
G75*
G02*
X41810600Y-7331488I0J253912D01*
G01*
X41810600Y-6671312D01*
G75*
G02*
X42064512Y-6417400I253912J0D01*
G01*
X42974688Y-6417400D01*
G75*
G02*
X43228600Y-6671312I0J-253912D01*
G01*
X43228600Y-7331488D01*
G75*
G02*
X42974688Y-7585400I-253912J0D01*
G01*
G37*
G36*
G01*
X42974688Y-9635400D02*
X42064512Y-9635400D01*
G75*
G02*
X41810600Y-9381488I0J253912D01*
G01*
X41810600Y-8721312D01*
G75*
G02*
X42064512Y-8467400I253912J0D01*
G01*
X42974688Y-8467400D01*
G75*
G02*
X43228600Y-8721312I0J-253912D01*
G01*
X43228600Y-9381488D01*
G75*
G02*
X42974688Y-9635400I-253912J0D01*
G01*
G37*
%TD*%
%TO.C,R13*%
G36*
G01*
X45616288Y-7585400D02*
X44706112Y-7585400D01*
G75*
G02*
X44452200Y-7331488I0J253912D01*
G01*
X44452200Y-6671312D01*
G75*
G02*
X44706112Y-6417400I253912J0D01*
G01*
X45616288Y-6417400D01*
G75*
G02*
X45870200Y-6671312I0J-253912D01*
G01*
X45870200Y-7331488D01*
G75*
G02*
X45616288Y-7585400I-253912J0D01*
G01*
G37*
G36*
G01*
X45616288Y-9635400D02*
X44706112Y-9635400D01*
G75*
G02*
X44452200Y-9381488I0J253912D01*
G01*
X44452200Y-8721312D01*
G75*
G02*
X44706112Y-8467400I253912J0D01*
G01*
X45616288Y-8467400D01*
G75*
G02*
X45870200Y-8721312I0J-253912D01*
G01*
X45870200Y-9381488D01*
G75*
G02*
X45616288Y-9635400I-253912J0D01*
G01*
G37*
%TD*%
%TO.C,R9*%
G36*
G01*
X42720688Y-13529000D02*
X41810512Y-13529000D01*
G75*
G02*
X41556600Y-13275088I0J253912D01*
G01*
X41556600Y-12614912D01*
G75*
G02*
X41810512Y-12361000I253912J0D01*
G01*
X42720688Y-12361000D01*
G75*
G02*
X42974600Y-12614912I0J-253912D01*
G01*
X42974600Y-13275088D01*
G75*
G02*
X42720688Y-13529000I-253912J0D01*
G01*
G37*
G36*
G01*
X42720688Y-15579000D02*
X41810512Y-15579000D01*
G75*
G02*
X41556600Y-15325088I0J253912D01*
G01*
X41556600Y-14664912D01*
G75*
G02*
X41810512Y-14411000I253912J0D01*
G01*
X42720688Y-14411000D01*
G75*
G02*
X42974600Y-14664912I0J-253912D01*
G01*
X42974600Y-15325088D01*
G75*
G02*
X42720688Y-15579000I-253912J0D01*
G01*
G37*
%TD*%
%TO.C,R8*%
G36*
G01*
X37285088Y-13529000D02*
X36374912Y-13529000D01*
G75*
G02*
X36121000Y-13275088I0J253912D01*
G01*
X36121000Y-12614912D01*
G75*
G02*
X36374912Y-12361000I253912J0D01*
G01*
X37285088Y-12361000D01*
G75*
G02*
X37539000Y-12614912I0J-253912D01*
G01*
X37539000Y-13275088D01*
G75*
G02*
X37285088Y-13529000I-253912J0D01*
G01*
G37*
G36*
G01*
X37285088Y-15579000D02*
X36374912Y-15579000D01*
G75*
G02*
X36121000Y-15325088I0J253912D01*
G01*
X36121000Y-14664912D01*
G75*
G02*
X36374912Y-14411000I253912J0D01*
G01*
X37285088Y-14411000D01*
G75*
G02*
X37539000Y-14664912I0J-253912D01*
G01*
X37539000Y-15325088D01*
G75*
G02*
X37285088Y-15579000I-253912J0D01*
G01*
G37*
%TD*%
%TO.C,R7*%
G36*
G01*
X31327400Y-15136288D02*
X31327400Y-14226112D01*
G75*
G02*
X31581312Y-13972200I253912J0D01*
G01*
X32241488Y-13972200D01*
G75*
G02*
X32495400Y-14226112I0J-253912D01*
G01*
X32495400Y-15136288D01*
G75*
G02*
X32241488Y-15390200I-253912J0D01*
G01*
X31581312Y-15390200D01*
G75*
G02*
X31327400Y-15136288I0J253912D01*
G01*
G37*
G36*
G01*
X29277400Y-15136288D02*
X29277400Y-14226112D01*
G75*
G02*
X29531312Y-13972200I253912J0D01*
G01*
X30191488Y-13972200D01*
G75*
G02*
X30445400Y-14226112I0J-253912D01*
G01*
X30445400Y-15136288D01*
G75*
G02*
X30191488Y-15390200I-253912J0D01*
G01*
X29531312Y-15390200D01*
G75*
G02*
X29277400Y-15136288I0J253912D01*
G01*
G37*
%TD*%
%TO.C,R6*%
G36*
G01*
X14632512Y-11566200D02*
X15542688Y-11566200D01*
G75*
G02*
X15796600Y-11820112I0J-253912D01*
G01*
X15796600Y-12480288D01*
G75*
G02*
X15542688Y-12734200I-253912J0D01*
G01*
X14632512Y-12734200D01*
G75*
G02*
X14378600Y-12480288I0J253912D01*
G01*
X14378600Y-11820112D01*
G75*
G02*
X14632512Y-11566200I253912J0D01*
G01*
G37*
G36*
G01*
X14632512Y-9516200D02*
X15542688Y-9516200D01*
G75*
G02*
X15796600Y-9770112I0J-253912D01*
G01*
X15796600Y-10430288D01*
G75*
G02*
X15542688Y-10684200I-253912J0D01*
G01*
X14632512Y-10684200D01*
G75*
G02*
X14378600Y-10430288I0J253912D01*
G01*
X14378600Y-9770112D01*
G75*
G02*
X14632512Y-9516200I253912J0D01*
G01*
G37*
%TD*%
%TO.C,R5*%
G36*
G01*
X51102688Y-6366200D02*
X50192512Y-6366200D01*
G75*
G02*
X49938600Y-6112288I0J253912D01*
G01*
X49938600Y-5452112D01*
G75*
G02*
X50192512Y-5198200I253912J0D01*
G01*
X51102688Y-5198200D01*
G75*
G02*
X51356600Y-5452112I0J-253912D01*
G01*
X51356600Y-6112288D01*
G75*
G02*
X51102688Y-6366200I-253912J0D01*
G01*
G37*
G36*
G01*
X51102688Y-8416200D02*
X50192512Y-8416200D01*
G75*
G02*
X49938600Y-8162288I0J253912D01*
G01*
X49938600Y-7502112D01*
G75*
G02*
X50192512Y-7248200I253912J0D01*
G01*
X51102688Y-7248200D01*
G75*
G02*
X51356600Y-7502112I0J-253912D01*
G01*
X51356600Y-8162288D01*
G75*
G02*
X51102688Y-8416200I-253912J0D01*
G01*
G37*
%TD*%
%TO.C,R4*%
G36*
G01*
X47703312Y-7197400D02*
X48613488Y-7197400D01*
G75*
G02*
X48867400Y-7451312I0J-253912D01*
G01*
X48867400Y-8111488D01*
G75*
G02*
X48613488Y-8365400I-253912J0D01*
G01*
X47703312Y-8365400D01*
G75*
G02*
X47449400Y-8111488I0J253912D01*
G01*
X47449400Y-7451312D01*
G75*
G02*
X47703312Y-7197400I253912J0D01*
G01*
G37*
G36*
G01*
X47703312Y-5147400D02*
X48613488Y-5147400D01*
G75*
G02*
X48867400Y-5401312I0J-253912D01*
G01*
X48867400Y-6061488D01*
G75*
G02*
X48613488Y-6315400I-253912J0D01*
G01*
X47703312Y-6315400D01*
G75*
G02*
X47449400Y-6061488I0J253912D01*
G01*
X47449400Y-5401312D01*
G75*
G02*
X47703312Y-5147400I253912J0D01*
G01*
G37*
%TD*%
%TO.C,C11*%
G36*
G01*
X25656112Y-2523800D02*
X26566288Y-2523800D01*
G75*
G02*
X26820200Y-2777712I0J-253912D01*
G01*
X26820200Y-3437888D01*
G75*
G02*
X26566288Y-3691800I-253912J0D01*
G01*
X25656112Y-3691800D01*
G75*
G02*
X25402200Y-3437888I0J253912D01*
G01*
X25402200Y-2777712D01*
G75*
G02*
X25656112Y-2523800I253912J0D01*
G01*
G37*
G36*
G01*
X25656112Y-473800D02*
X26566288Y-473800D01*
G75*
G02*
X26820200Y-727712I0J-253912D01*
G01*
X26820200Y-1387888D01*
G75*
G02*
X26566288Y-1641800I-253912J0D01*
G01*
X25656112Y-1641800D01*
G75*
G02*
X25402200Y-1387888I0J253912D01*
G01*
X25402200Y-727712D01*
G75*
G02*
X25656112Y-473800I253912J0D01*
G01*
G37*
%TD*%
%TO.C,C10*%
G36*
G01*
X28094512Y-2523800D02*
X29004688Y-2523800D01*
G75*
G02*
X29258600Y-2777712I0J-253912D01*
G01*
X29258600Y-3437888D01*
G75*
G02*
X29004688Y-3691800I-253912J0D01*
G01*
X28094512Y-3691800D01*
G75*
G02*
X27840600Y-3437888I0J253912D01*
G01*
X27840600Y-2777712D01*
G75*
G02*
X28094512Y-2523800I253912J0D01*
G01*
G37*
G36*
G01*
X28094512Y-473800D02*
X29004688Y-473800D01*
G75*
G02*
X29258600Y-727712I0J-253912D01*
G01*
X29258600Y-1387888D01*
G75*
G02*
X29004688Y-1641800I-253912J0D01*
G01*
X28094512Y-1641800D01*
G75*
G02*
X27840600Y-1387888I0J253912D01*
G01*
X27840600Y-727712D01*
G75*
G02*
X28094512Y-473800I253912J0D01*
G01*
G37*
%TD*%
%TO.C,C9*%
G36*
G01*
X31378200Y-12901088D02*
X31378200Y-11990912D01*
G75*
G02*
X31632112Y-11737000I253912J0D01*
G01*
X32292288Y-11737000D01*
G75*
G02*
X32546200Y-11990912I0J-253912D01*
G01*
X32546200Y-12901088D01*
G75*
G02*
X32292288Y-13155000I-253912J0D01*
G01*
X31632112Y-13155000D01*
G75*
G02*
X31378200Y-12901088I0J253912D01*
G01*
G37*
G36*
G01*
X29328200Y-12901088D02*
X29328200Y-11990912D01*
G75*
G02*
X29582112Y-11737000I253912J0D01*
G01*
X30242288Y-11737000D01*
G75*
G02*
X30496200Y-11990912I0J-253912D01*
G01*
X30496200Y-12901088D01*
G75*
G02*
X30242288Y-13155000I-253912J0D01*
G01*
X29582112Y-13155000D01*
G75*
G02*
X29328200Y-12901088I0J253912D01*
G01*
G37*
%TD*%
%TO.C,C8*%
G36*
G01*
X15542688Y-6366200D02*
X14632512Y-6366200D01*
G75*
G02*
X14378600Y-6112288I0J253912D01*
G01*
X14378600Y-5452112D01*
G75*
G02*
X14632512Y-5198200I253912J0D01*
G01*
X15542688Y-5198200D01*
G75*
G02*
X15796600Y-5452112I0J-253912D01*
G01*
X15796600Y-6112288D01*
G75*
G02*
X15542688Y-6366200I-253912J0D01*
G01*
G37*
G36*
G01*
X15542688Y-8416200D02*
X14632512Y-8416200D01*
G75*
G02*
X14378600Y-8162288I0J253912D01*
G01*
X14378600Y-7502112D01*
G75*
G02*
X14632512Y-7248200I253912J0D01*
G01*
X15542688Y-7248200D01*
G75*
G02*
X15796600Y-7502112I0J-253912D01*
G01*
X15796600Y-8162288D01*
G75*
G02*
X15542688Y-8416200I-253912J0D01*
G01*
G37*
%TD*%
%TO.C,C7*%
G36*
G01*
X58828512Y-13191800D02*
X59738688Y-13191800D01*
G75*
G02*
X59992600Y-13445712I0J-253912D01*
G01*
X59992600Y-14105888D01*
G75*
G02*
X59738688Y-14359800I-253912J0D01*
G01*
X58828512Y-14359800D01*
G75*
G02*
X58574600Y-14105888I0J253912D01*
G01*
X58574600Y-13445712D01*
G75*
G02*
X58828512Y-13191800I253912J0D01*
G01*
G37*
G36*
G01*
X58828512Y-11141800D02*
X59738688Y-11141800D01*
G75*
G02*
X59992600Y-11395712I0J-253912D01*
G01*
X59992600Y-12055888D01*
G75*
G02*
X59738688Y-12309800I-253912J0D01*
G01*
X58828512Y-12309800D01*
G75*
G02*
X58574600Y-12055888I0J253912D01*
G01*
X58574600Y-11395712D01*
G75*
G02*
X58828512Y-11141800I253912J0D01*
G01*
G37*
%TD*%
%TO.C,C6*%
G36*
G01*
X35696200Y-18946288D02*
X35696200Y-18036112D01*
G75*
G02*
X35950112Y-17782200I253912J0D01*
G01*
X36610288Y-17782200D01*
G75*
G02*
X36864200Y-18036112I0J-253912D01*
G01*
X36864200Y-18946288D01*
G75*
G02*
X36610288Y-19200200I-253912J0D01*
G01*
X35950112Y-19200200D01*
G75*
G02*
X35696200Y-18946288I0J253912D01*
G01*
G37*
G36*
G01*
X33646200Y-18946288D02*
X33646200Y-18036112D01*
G75*
G02*
X33900112Y-17782200I253912J0D01*
G01*
X34560288Y-17782200D01*
G75*
G02*
X34814200Y-18036112I0J-253912D01*
G01*
X34814200Y-18946288D01*
G75*
G02*
X34560288Y-19200200I-253912J0D01*
G01*
X33900112Y-19200200D01*
G75*
G02*
X33646200Y-18946288I0J253912D01*
G01*
G37*
%TD*%
%TO.C,C5*%
G36*
G01*
X61872288Y-17491400D02*
X60962112Y-17491400D01*
G75*
G02*
X60708200Y-17237488I0J253912D01*
G01*
X60708200Y-16577312D01*
G75*
G02*
X60962112Y-16323400I253912J0D01*
G01*
X61872288Y-16323400D01*
G75*
G02*
X62126200Y-16577312I0J-253912D01*
G01*
X62126200Y-17237488D01*
G75*
G02*
X61872288Y-17491400I-253912J0D01*
G01*
G37*
G36*
G01*
X61872288Y-19541400D02*
X60962112Y-19541400D01*
G75*
G02*
X60708200Y-19287488I0J253912D01*
G01*
X60708200Y-18627312D01*
G75*
G02*
X60962112Y-18373400I253912J0D01*
G01*
X61872288Y-18373400D01*
G75*
G02*
X62126200Y-18627312I0J-253912D01*
G01*
X62126200Y-19287488D01*
G75*
G02*
X61872288Y-19541400I-253912J0D01*
G01*
G37*
%TD*%
%TO.C,C4*%
G36*
G01*
X14189400Y-18391712D02*
X14189400Y-19301888D01*
G75*
G02*
X13935488Y-19555800I-253912J0D01*
G01*
X13275312Y-19555800D01*
G75*
G02*
X13021400Y-19301888I0J253912D01*
G01*
X13021400Y-18391712D01*
G75*
G02*
X13275312Y-18137800I253912J0D01*
G01*
X13935488Y-18137800D01*
G75*
G02*
X14189400Y-18391712I0J-253912D01*
G01*
G37*
G36*
G01*
X16239400Y-18391712D02*
X16239400Y-19301888D01*
G75*
G02*
X15985488Y-19555800I-253912J0D01*
G01*
X15325312Y-19555800D01*
G75*
G02*
X15071400Y-19301888I0J253912D01*
G01*
X15071400Y-18391712D01*
G75*
G02*
X15325312Y-18137800I253912J0D01*
G01*
X15985488Y-18137800D01*
G75*
G02*
X16239400Y-18391712I0J-253912D01*
G01*
G37*
%TD*%
%TO.C,C2*%
G36*
G01*
X34280038Y-6729629D02*
X34923629Y-6086038D01*
G75*
G02*
X35282715Y-6086038I179543J-179543D01*
G01*
X35749530Y-6552853D01*
G75*
G02*
X35749530Y-6911939I-179543J-179543D01*
G01*
X35105939Y-7555530D01*
G75*
G02*
X34746853Y-7555530I-179543J179543D01*
G01*
X34280038Y-7088715D01*
G75*
G02*
X34280038Y-6729629I179543J179543D01*
G01*
G37*
G36*
G01*
X32830470Y-5280061D02*
X33474061Y-4636470D01*
G75*
G02*
X33833147Y-4636470I179543J-179543D01*
G01*
X34299962Y-5103285D01*
G75*
G02*
X34299962Y-5462371I-179543J-179543D01*
G01*
X33656371Y-6105962D01*
G75*
G02*
X33297285Y-6105962I-179543J179543D01*
G01*
X32830470Y-5639147D01*
G75*
G02*
X32830470Y-5280061I179543J179543D01*
G01*
G37*
%TD*%
%TO.C,C1*%
G36*
G01*
X32891629Y-9407962D02*
X32248038Y-8764371D01*
G75*
G02*
X32248038Y-8405285I179543J179543D01*
G01*
X32714853Y-7938470D01*
G75*
G02*
X33073939Y-7938470I179543J-179543D01*
G01*
X33717530Y-8582061D01*
G75*
G02*
X33717530Y-8941147I-179543J-179543D01*
G01*
X33250715Y-9407962D01*
G75*
G02*
X32891629Y-9407962I-179543J179543D01*
G01*
G37*
G36*
G01*
X31442061Y-10857530D02*
X30798470Y-10213939D01*
G75*
G02*
X30798470Y-9854853I179543J179543D01*
G01*
X31265285Y-9388038D01*
G75*
G02*
X31624371Y-9388038I179543J-179543D01*
G01*
X32267962Y-10031629D01*
G75*
G02*
X32267962Y-10390715I-179543J-179543D01*
G01*
X31801147Y-10857530D01*
G75*
G02*
X31442061Y-10857530I-179543J179543D01*
G01*
G37*
%TD*%
%TO.C,SW3*%
G36*
G01*
X2058600Y-512200D02*
X2058600Y-1224800D01*
G75*
G02*
X1905900Y-1377500I-152700J0D01*
G01*
X393300Y-1377500D01*
G75*
G02*
X240600Y-1224800I0J152700D01*
G01*
X240600Y-512200D01*
G75*
G02*
X393300Y-359500I152700J0D01*
G01*
X1905900Y-359500D01*
G75*
G02*
X2058600Y-512200I0J-152700D01*
G01*
G37*
G36*
G01*
X6058600Y-512200D02*
X6058600Y-1224800D01*
G75*
G02*
X5905900Y-1377500I-152700J0D01*
G01*
X4393300Y-1377500D01*
G75*
G02*
X4240600Y-1224800I0J152700D01*
G01*
X4240600Y-512200D01*
G75*
G02*
X4393300Y-359500I152700J0D01*
G01*
X5905900Y-359500D01*
G75*
G02*
X6058600Y-512200I0J-152700D01*
G01*
G37*
G36*
G01*
X2058600Y-2712200D02*
X2058600Y-3424800D01*
G75*
G02*
X1905900Y-3577500I-152700J0D01*
G01*
X393300Y-3577500D01*
G75*
G02*
X240600Y-3424800I0J152700D01*
G01*
X240600Y-2712200D01*
G75*
G02*
X393300Y-2559500I152700J0D01*
G01*
X1905900Y-2559500D01*
G75*
G02*
X2058600Y-2712200I0J-152700D01*
G01*
G37*
G36*
G01*
X6058600Y-2712200D02*
X6058600Y-3424800D01*
G75*
G02*
X5905900Y-3577500I-152700J0D01*
G01*
X4393300Y-3577500D01*
G75*
G02*
X4240600Y-3424800I0J152700D01*
G01*
X4240600Y-2712200D01*
G75*
G02*
X4393300Y-2559500I152700J0D01*
G01*
X5905900Y-2559500D01*
G75*
G02*
X6058600Y-2712200I0J-152700D01*
G01*
G37*
%TD*%
%TO.C,SW2*%
G36*
G01*
X9627800Y-524900D02*
X9627800Y-1237500D01*
G75*
G02*
X9475100Y-1390200I-152700J0D01*
G01*
X7962500Y-1390200D01*
G75*
G02*
X7809800Y-1237500I0J152700D01*
G01*
X7809800Y-524900D01*
G75*
G02*
X7962500Y-372200I152700J0D01*
G01*
X9475100Y-372200D01*
G75*
G02*
X9627800Y-524900I0J-152700D01*
G01*
G37*
G36*
G01*
X13627800Y-524900D02*
X13627800Y-1237500D01*
G75*
G02*
X13475100Y-1390200I-152700J0D01*
G01*
X11962500Y-1390200D01*
G75*
G02*
X11809800Y-1237500I0J152700D01*
G01*
X11809800Y-524900D01*
G75*
G02*
X11962500Y-372200I152700J0D01*
G01*
X13475100Y-372200D01*
G75*
G02*
X13627800Y-524900I0J-152700D01*
G01*
G37*
G36*
G01*
X9627800Y-2724900D02*
X9627800Y-3437500D01*
G75*
G02*
X9475100Y-3590200I-152700J0D01*
G01*
X7962500Y-3590200D01*
G75*
G02*
X7809800Y-3437500I0J152700D01*
G01*
X7809800Y-2724900D01*
G75*
G02*
X7962500Y-2572200I152700J0D01*
G01*
X9475100Y-2572200D01*
G75*
G02*
X9627800Y-2724900I0J-152700D01*
G01*
G37*
G36*
G01*
X13627800Y-2724900D02*
X13627800Y-3437500D01*
G75*
G02*
X13475100Y-3590200I-152700J0D01*
G01*
X11962500Y-3590200D01*
G75*
G02*
X11809800Y-3437500I0J152700D01*
G01*
X11809800Y-2724900D01*
G75*
G02*
X11962500Y-2572200I152700J0D01*
G01*
X13475100Y-2572200D01*
G75*
G02*
X13627800Y-2724900I0J-152700D01*
G01*
G37*
%TD*%
%TO.C,SW1*%
G36*
G01*
X17146200Y-524900D02*
X17146200Y-1237500D01*
G75*
G02*
X16993500Y-1390200I-152700J0D01*
G01*
X15480900Y-1390200D01*
G75*
G02*
X15328200Y-1237500I0J152700D01*
G01*
X15328200Y-524900D01*
G75*
G02*
X15480900Y-372200I152700J0D01*
G01*
X16993500Y-372200D01*
G75*
G02*
X17146200Y-524900I0J-152700D01*
G01*
G37*
G36*
G01*
X21146200Y-524900D02*
X21146200Y-1237500D01*
G75*
G02*
X20993500Y-1390200I-152700J0D01*
G01*
X19480900Y-1390200D01*
G75*
G02*
X19328200Y-1237500I0J152700D01*
G01*
X19328200Y-524900D01*
G75*
G02*
X19480900Y-372200I152700J0D01*
G01*
X20993500Y-372200D01*
G75*
G02*
X21146200Y-524900I0J-152700D01*
G01*
G37*
G36*
G01*
X17146200Y-2724900D02*
X17146200Y-3437500D01*
G75*
G02*
X16993500Y-3590200I-152700J0D01*
G01*
X15480900Y-3590200D01*
G75*
G02*
X15328200Y-3437500I0J152700D01*
G01*
X15328200Y-2724900D01*
G75*
G02*
X15480900Y-2572200I152700J0D01*
G01*
X16993500Y-2572200D01*
G75*
G02*
X17146200Y-2724900I0J-152700D01*
G01*
G37*
G36*
G01*
X21146200Y-2724900D02*
X21146200Y-3437500D01*
G75*
G02*
X20993500Y-3590200I-152700J0D01*
G01*
X19480900Y-3590200D01*
G75*
G02*
X19328200Y-3437500I0J152700D01*
G01*
X19328200Y-2724900D01*
G75*
G02*
X19480900Y-2572200I152700J0D01*
G01*
X20993500Y-2572200D01*
G75*
G02*
X21146200Y-2724900I0J-152700D01*
G01*
G37*
%TD*%
%TO.C,D4*%
G36*
G01*
X50030000Y-10689000D02*
X49030000Y-10689000D01*
G75*
G02*
X49021000Y-10680000I0J9000D01*
G01*
X49021000Y-9680000D01*
G75*
G02*
X49030000Y-9671000I9000J0D01*
G01*
X50030000Y-9671000D01*
G75*
G02*
X50039000Y-9680000I0J-9000D01*
G01*
X50039000Y-10680000D01*
G75*
G02*
X50030000Y-10689000I-9000J0D01*
G01*
G37*
G36*
G01*
X50030000Y-13189000D02*
X49030000Y-13189000D01*
G75*
G02*
X49021000Y-13180000I0J9000D01*
G01*
X49021000Y-12180000D01*
G75*
G02*
X49030000Y-12171000I9000J0D01*
G01*
X50030000Y-12171000D01*
G75*
G02*
X50039000Y-12180000I0J-9000D01*
G01*
X50039000Y-13180000D01*
G75*
G02*
X50030000Y-13189000I-9000J0D01*
G01*
G37*
%TD*%
%TO.C,D2*%
G36*
G01*
X50173000Y-2963500D02*
X51173000Y-2963500D01*
G75*
G02*
X51182000Y-2972500I0J-9000D01*
G01*
X51182000Y-3972500D01*
G75*
G02*
X51173000Y-3981500I-9000J0D01*
G01*
X50173000Y-3981500D01*
G75*
G02*
X50164000Y-3972500I0J9000D01*
G01*
X50164000Y-2972500D01*
G75*
G02*
X50173000Y-2963500I9000J0D01*
G01*
G37*
G36*
G01*
X50173000Y-463500D02*
X51173000Y-463500D01*
G75*
G02*
X51182000Y-472500I0J-9000D01*
G01*
X51182000Y-1472500D01*
G75*
G02*
X51173000Y-1481500I-9000J0D01*
G01*
X50173000Y-1481500D01*
G75*
G02*
X50164000Y-1472500I0J9000D01*
G01*
X50164000Y-472500D01*
G75*
G02*
X50173000Y-463500I9000J0D01*
G01*
G37*
%TD*%
%TO.C,MP1*%
X47853600Y-2184400D03*
%TD*%
%TO.C,D5*%
G36*
G01*
X45272400Y-4544600D02*
X46472400Y-4544600D01*
G75*
G02*
X46481400Y-4553600I0J-9000D01*
G01*
X46481400Y-5553600D01*
G75*
G02*
X46472400Y-5562600I-9000J0D01*
G01*
X45272400Y-5562600D01*
G75*
G02*
X45263400Y-5553600I0J9000D01*
G01*
X45263400Y-4553600D01*
G75*
G02*
X45272400Y-4544600I9000J0D01*
G01*
G37*
G36*
G01*
X45272400Y-1244600D02*
X46472400Y-1244600D01*
G75*
G02*
X46481400Y-1253600I0J-9000D01*
G01*
X46481400Y-2253600D01*
G75*
G02*
X46472400Y-2262600I-9000J0D01*
G01*
X45272400Y-2262600D01*
G75*
G02*
X45263400Y-2253600I0J9000D01*
G01*
X45263400Y-1253600D01*
G75*
G02*
X45272400Y-1244600I9000J0D01*
G01*
G37*
%TD*%
%TO.C,J5*%
G36*
G01*
X38043500Y-438000D02*
X39943500Y-438000D01*
G75*
G02*
X39952500Y-447000I0J-9000D01*
G01*
X39952500Y-2347000D01*
G75*
G02*
X39943500Y-2356000I-9000J0D01*
G01*
X38043500Y-2356000D01*
G75*
G02*
X38034500Y-2347000I0J9000D01*
G01*
X38034500Y-447000D01*
G75*
G02*
X38043500Y-438000I9000J0D01*
G01*
G37*
G36*
G01*
X40443500Y-438000D02*
X42343500Y-438000D01*
G75*
G02*
X42352500Y-447000I0J-9000D01*
G01*
X42352500Y-2347000D01*
G75*
G02*
X42343500Y-2356000I-9000J0D01*
G01*
X40443500Y-2356000D01*
G75*
G02*
X40434500Y-2347000I0J9000D01*
G01*
X40434500Y-447000D01*
G75*
G02*
X40443500Y-438000I9000J0D01*
G01*
G37*
D14*
X36893500Y-1397000D03*
X43493500Y-1397000D03*
G36*
G01*
X38693500Y-3238000D02*
X39093500Y-3238000D01*
G75*
G02*
X39102500Y-3247000I0J-9000D01*
G01*
X39102500Y-4897000D01*
G75*
G02*
X39093500Y-4906000I-9000J0D01*
G01*
X38693500Y-4906000D01*
G75*
G02*
X38684500Y-4897000I0J9000D01*
G01*
X38684500Y-3247000D01*
G75*
G02*
X38693500Y-3238000I9000J0D01*
G01*
G37*
G36*
G01*
X39343500Y-3238000D02*
X39743500Y-3238000D01*
G75*
G02*
X39752500Y-3247000I0J-9000D01*
G01*
X39752500Y-4897000D01*
G75*
G02*
X39743500Y-4906000I-9000J0D01*
G01*
X39343500Y-4906000D01*
G75*
G02*
X39334500Y-4897000I0J9000D01*
G01*
X39334500Y-3247000D01*
G75*
G02*
X39343500Y-3238000I9000J0D01*
G01*
G37*
G36*
G01*
X39993500Y-3238000D02*
X40393500Y-3238000D01*
G75*
G02*
X40402500Y-3247000I0J-9000D01*
G01*
X40402500Y-4897000D01*
G75*
G02*
X40393500Y-4906000I-9000J0D01*
G01*
X39993500Y-4906000D01*
G75*
G02*
X39984500Y-4897000I0J9000D01*
G01*
X39984500Y-3247000D01*
G75*
G02*
X39993500Y-3238000I9000J0D01*
G01*
G37*
G36*
G01*
X40643500Y-3238000D02*
X41043500Y-3238000D01*
G75*
G02*
X41052500Y-3247000I0J-9000D01*
G01*
X41052500Y-4897000D01*
G75*
G02*
X41043500Y-4906000I-9000J0D01*
G01*
X40643500Y-4906000D01*
G75*
G02*
X40634500Y-4897000I0J9000D01*
G01*
X40634500Y-3247000D01*
G75*
G02*
X40643500Y-3238000I9000J0D01*
G01*
G37*
G36*
G01*
X41293500Y-3238000D02*
X41693500Y-3238000D01*
G75*
G02*
X41702500Y-3247000I0J-9000D01*
G01*
X41702500Y-4897000D01*
G75*
G02*
X41693500Y-4906000I-9000J0D01*
G01*
X41293500Y-4906000D01*
G75*
G02*
X41284500Y-4897000I0J9000D01*
G01*
X41284500Y-3247000D01*
G75*
G02*
X41293500Y-3238000I9000J0D01*
G01*
G37*
G36*
G01*
X37802500Y-3147000D02*
X37802500Y-4547000D01*
G75*
G02*
X37793500Y-4556000I-9000J0D01*
G01*
X36193500Y-4556000D01*
G75*
G02*
X36184500Y-4547000I0J9000D01*
G01*
X36184500Y-3147000D01*
G75*
G02*
X36193500Y-3138000I9000J0D01*
G01*
X37793500Y-3138000D01*
G75*
G02*
X37802500Y-3147000I0J-9000D01*
G01*
G37*
G36*
G01*
X44202500Y-3147000D02*
X44202500Y-4547000D01*
G75*
G02*
X44193500Y-4556000I-9000J0D01*
G01*
X42593500Y-4556000D01*
G75*
G02*
X42584500Y-4547000I0J9000D01*
G01*
X42584500Y-3147000D01*
G75*
G02*
X42593500Y-3138000I9000J0D01*
G01*
X44193500Y-3138000D01*
G75*
G02*
X44202500Y-3147000I0J-9000D01*
G01*
G37*
%TD*%
%TO.C,U2*%
G36*
G01*
X27083866Y-11400218D02*
X28027146Y-12343498D01*
G75*
G02*
X28027146Y-12455928I-56215J-56215D01*
G01*
X27914716Y-12568358D01*
G75*
G02*
X27802286Y-12568358I-56215J56215D01*
G01*
X26859006Y-11625078D01*
G75*
G02*
X26859006Y-11512648I56215J56215D01*
G01*
X26971436Y-11400218D01*
G75*
G02*
X27083866Y-11400218I56215J-56215D01*
G01*
G37*
G36*
G01*
X26730312Y-11753772D02*
X27673592Y-12697052D01*
G75*
G02*
X27673592Y-12809482I-56215J-56215D01*
G01*
X27561162Y-12921912D01*
G75*
G02*
X27448732Y-12921912I-56215J56215D01*
G01*
X26505452Y-11978632D01*
G75*
G02*
X26505452Y-11866202I56215J56215D01*
G01*
X26617882Y-11753772D01*
G75*
G02*
X26730312Y-11753772I56215J-56215D01*
G01*
G37*
G36*
G01*
X26376759Y-12107325D02*
X27320039Y-13050605D01*
G75*
G02*
X27320039Y-13163035I-56215J-56215D01*
G01*
X27207609Y-13275465D01*
G75*
G02*
X27095179Y-13275465I-56215J56215D01*
G01*
X26151899Y-12332185D01*
G75*
G02*
X26151899Y-12219755I56215J56215D01*
G01*
X26264329Y-12107325D01*
G75*
G02*
X26376759Y-12107325I56215J-56215D01*
G01*
G37*
G36*
G01*
X26023205Y-12460879D02*
X26966485Y-13404159D01*
G75*
G02*
X26966485Y-13516589I-56215J-56215D01*
G01*
X26854055Y-13629019D01*
G75*
G02*
X26741625Y-13629019I-56215J56215D01*
G01*
X25798345Y-12685739D01*
G75*
G02*
X25798345Y-12573309I56215J56215D01*
G01*
X25910775Y-12460879D01*
G75*
G02*
X26023205Y-12460879I56215J-56215D01*
G01*
G37*
G36*
G01*
X25669652Y-12814432D02*
X26612932Y-13757712D01*
G75*
G02*
X26612932Y-13870142I-56215J-56215D01*
G01*
X26500502Y-13982572D01*
G75*
G02*
X26388072Y-13982572I-56215J56215D01*
G01*
X25444792Y-13039292D01*
G75*
G02*
X25444792Y-12926862I56215J56215D01*
G01*
X25557222Y-12814432D01*
G75*
G02*
X25669652Y-12814432I56215J-56215D01*
G01*
G37*
G36*
G01*
X25316099Y-13167985D02*
X26259379Y-14111265D01*
G75*
G02*
X26259379Y-14223695I-56215J-56215D01*
G01*
X26146949Y-14336125D01*
G75*
G02*
X26034519Y-14336125I-56215J56215D01*
G01*
X25091239Y-13392845D01*
G75*
G02*
X25091239Y-13280415I56215J56215D01*
G01*
X25203669Y-13167985D01*
G75*
G02*
X25316099Y-13167985I56215J-56215D01*
G01*
G37*
G36*
G01*
X24962545Y-13521539D02*
X25905825Y-14464819D01*
G75*
G02*
X25905825Y-14577249I-56215J-56215D01*
G01*
X25793395Y-14689679D01*
G75*
G02*
X25680965Y-14689679I-56215J56215D01*
G01*
X24737685Y-13746399D01*
G75*
G02*
X24737685Y-13633969I56215J56215D01*
G01*
X24850115Y-13521539D01*
G75*
G02*
X24962545Y-13521539I56215J-56215D01*
G01*
G37*
G36*
G01*
X24608992Y-13875092D02*
X25552272Y-14818372D01*
G75*
G02*
X25552272Y-14930802I-56215J-56215D01*
G01*
X25439842Y-15043232D01*
G75*
G02*
X25327412Y-15043232I-56215J56215D01*
G01*
X24384132Y-14099952D01*
G75*
G02*
X24384132Y-13987522I56215J56215D01*
G01*
X24496562Y-13875092D01*
G75*
G02*
X24608992Y-13875092I56215J-56215D01*
G01*
G37*
G36*
G01*
X24255439Y-14228645D02*
X25198719Y-15171925D01*
G75*
G02*
X25198719Y-15284355I-56215J-56215D01*
G01*
X25086289Y-15396785D01*
G75*
G02*
X24973859Y-15396785I-56215J56215D01*
G01*
X24030579Y-14453505D01*
G75*
G02*
X24030579Y-14341075I56215J56215D01*
G01*
X24143009Y-14228645D01*
G75*
G02*
X24255439Y-14228645I56215J-56215D01*
G01*
G37*
G36*
G01*
X23901885Y-14582199D02*
X24845165Y-15525479D01*
G75*
G02*
X24845165Y-15637909I-56215J-56215D01*
G01*
X24732735Y-15750339D01*
G75*
G02*
X24620305Y-15750339I-56215J56215D01*
G01*
X23677025Y-14807059D01*
G75*
G02*
X23677025Y-14694629I56215J56215D01*
G01*
X23789455Y-14582199D01*
G75*
G02*
X23901885Y-14582199I56215J-56215D01*
G01*
G37*
G36*
G01*
X23548332Y-14935752D02*
X24491612Y-15879032D01*
G75*
G02*
X24491612Y-15991462I-56215J-56215D01*
G01*
X24379182Y-16103892D01*
G75*
G02*
X24266752Y-16103892I-56215J56215D01*
G01*
X23323472Y-15160612D01*
G75*
G02*
X23323472Y-15048182I56215J56215D01*
G01*
X23435902Y-14935752D01*
G75*
G02*
X23548332Y-14935752I56215J-56215D01*
G01*
G37*
G36*
G01*
X23194778Y-15289306D02*
X24138058Y-16232586D01*
G75*
G02*
X24138058Y-16345016I-56215J-56215D01*
G01*
X24025628Y-16457446D01*
G75*
G02*
X23913198Y-16457446I-56215J56215D01*
G01*
X22969918Y-15514166D01*
G75*
G02*
X22969918Y-15401736I56215J56215D01*
G01*
X23082348Y-15289306D01*
G75*
G02*
X23194778Y-15289306I56215J-56215D01*
G01*
G37*
G36*
G01*
X22028052Y-15289306D02*
X22140482Y-15401736D01*
G75*
G02*
X22140482Y-15514166I-56215J-56215D01*
G01*
X21197202Y-16457446D01*
G75*
G02*
X21084772Y-16457446I-56215J56215D01*
G01*
X20972342Y-16345016D01*
G75*
G02*
X20972342Y-16232586I56215J56215D01*
G01*
X21915622Y-15289306D01*
G75*
G02*
X22028052Y-15289306I56215J-56215D01*
G01*
G37*
G36*
G01*
X21674498Y-14935752D02*
X21786928Y-15048182D01*
G75*
G02*
X21786928Y-15160612I-56215J-56215D01*
G01*
X20843648Y-16103892D01*
G75*
G02*
X20731218Y-16103892I-56215J56215D01*
G01*
X20618788Y-15991462D01*
G75*
G02*
X20618788Y-15879032I56215J56215D01*
G01*
X21562068Y-14935752D01*
G75*
G02*
X21674498Y-14935752I56215J-56215D01*
G01*
G37*
G36*
G01*
X21320945Y-14582199D02*
X21433375Y-14694629D01*
G75*
G02*
X21433375Y-14807059I-56215J-56215D01*
G01*
X20490095Y-15750339D01*
G75*
G02*
X20377665Y-15750339I-56215J56215D01*
G01*
X20265235Y-15637909D01*
G75*
G02*
X20265235Y-15525479I56215J56215D01*
G01*
X21208515Y-14582199D01*
G75*
G02*
X21320945Y-14582199I56215J-56215D01*
G01*
G37*
G36*
G01*
X20967391Y-14228645D02*
X21079821Y-14341075D01*
G75*
G02*
X21079821Y-14453505I-56215J-56215D01*
G01*
X20136541Y-15396785D01*
G75*
G02*
X20024111Y-15396785I-56215J56215D01*
G01*
X19911681Y-15284355D01*
G75*
G02*
X19911681Y-15171925I56215J56215D01*
G01*
X20854961Y-14228645D01*
G75*
G02*
X20967391Y-14228645I56215J-56215D01*
G01*
G37*
G36*
G01*
X20613838Y-13875092D02*
X20726268Y-13987522D01*
G75*
G02*
X20726268Y-14099952I-56215J-56215D01*
G01*
X19782988Y-15043232D01*
G75*
G02*
X19670558Y-15043232I-56215J56215D01*
G01*
X19558128Y-14930802D01*
G75*
G02*
X19558128Y-14818372I56215J56215D01*
G01*
X20501408Y-13875092D01*
G75*
G02*
X20613838Y-13875092I56215J-56215D01*
G01*
G37*
G36*
G01*
X20260285Y-13521539D02*
X20372715Y-13633969D01*
G75*
G02*
X20372715Y-13746399I-56215J-56215D01*
G01*
X19429435Y-14689679D01*
G75*
G02*
X19317005Y-14689679I-56215J56215D01*
G01*
X19204575Y-14577249D01*
G75*
G02*
X19204575Y-14464819I56215J56215D01*
G01*
X20147855Y-13521539D01*
G75*
G02*
X20260285Y-13521539I56215J-56215D01*
G01*
G37*
G36*
G01*
X19906731Y-13167985D02*
X20019161Y-13280415D01*
G75*
G02*
X20019161Y-13392845I-56215J-56215D01*
G01*
X19075881Y-14336125D01*
G75*
G02*
X18963451Y-14336125I-56215J56215D01*
G01*
X18851021Y-14223695D01*
G75*
G02*
X18851021Y-14111265I56215J56215D01*
G01*
X19794301Y-13167985D01*
G75*
G02*
X19906731Y-13167985I56215J-56215D01*
G01*
G37*
G36*
G01*
X19553178Y-12814432D02*
X19665608Y-12926862D01*
G75*
G02*
X19665608Y-13039292I-56215J-56215D01*
G01*
X18722328Y-13982572D01*
G75*
G02*
X18609898Y-13982572I-56215J56215D01*
G01*
X18497468Y-13870142D01*
G75*
G02*
X18497468Y-13757712I56215J56215D01*
G01*
X19440748Y-12814432D01*
G75*
G02*
X19553178Y-12814432I56215J-56215D01*
G01*
G37*
G36*
G01*
X19199625Y-12460879D02*
X19312055Y-12573309D01*
G75*
G02*
X19312055Y-12685739I-56215J-56215D01*
G01*
X18368775Y-13629019D01*
G75*
G02*
X18256345Y-13629019I-56215J56215D01*
G01*
X18143915Y-13516589D01*
G75*
G02*
X18143915Y-13404159I56215J56215D01*
G01*
X19087195Y-12460879D01*
G75*
G02*
X19199625Y-12460879I56215J-56215D01*
G01*
G37*
G36*
G01*
X18846071Y-12107325D02*
X18958501Y-12219755D01*
G75*
G02*
X18958501Y-12332185I-56215J-56215D01*
G01*
X18015221Y-13275465D01*
G75*
G02*
X17902791Y-13275465I-56215J56215D01*
G01*
X17790361Y-13163035D01*
G75*
G02*
X17790361Y-13050605I56215J56215D01*
G01*
X18733641Y-12107325D01*
G75*
G02*
X18846071Y-12107325I56215J-56215D01*
G01*
G37*
G36*
G01*
X18492518Y-11753772D02*
X18604948Y-11866202D01*
G75*
G02*
X18604948Y-11978632I-56215J-56215D01*
G01*
X17661668Y-12921912D01*
G75*
G02*
X17549238Y-12921912I-56215J56215D01*
G01*
X17436808Y-12809482D01*
G75*
G02*
X17436808Y-12697052I56215J56215D01*
G01*
X18380088Y-11753772D01*
G75*
G02*
X18492518Y-11753772I56215J-56215D01*
G01*
G37*
G36*
G01*
X18138964Y-11400218D02*
X18251394Y-11512648D01*
G75*
G02*
X18251394Y-11625078I-56215J-56215D01*
G01*
X17308114Y-12568358D01*
G75*
G02*
X17195684Y-12568358I-56215J56215D01*
G01*
X17083254Y-12455928D01*
G75*
G02*
X17083254Y-12343498I56215J56215D01*
G01*
X18026534Y-11400218D01*
G75*
G02*
X18138964Y-11400218I56215J-56215D01*
G01*
G37*
G36*
G01*
X17308114Y-9402642D02*
X18251394Y-10345922D01*
G75*
G02*
X18251394Y-10458352I-56215J-56215D01*
G01*
X18138964Y-10570782D01*
G75*
G02*
X18026534Y-10570782I-56215J56215D01*
G01*
X17083254Y-9627502D01*
G75*
G02*
X17083254Y-9515072I56215J56215D01*
G01*
X17195684Y-9402642D01*
G75*
G02*
X17308114Y-9402642I56215J-56215D01*
G01*
G37*
G36*
G01*
X17661668Y-9049088D02*
X18604948Y-9992368D01*
G75*
G02*
X18604948Y-10104798I-56215J-56215D01*
G01*
X18492518Y-10217228D01*
G75*
G02*
X18380088Y-10217228I-56215J56215D01*
G01*
X17436808Y-9273948D01*
G75*
G02*
X17436808Y-9161518I56215J56215D01*
G01*
X17549238Y-9049088D01*
G75*
G02*
X17661668Y-9049088I56215J-56215D01*
G01*
G37*
G36*
G01*
X18015221Y-8695535D02*
X18958501Y-9638815D01*
G75*
G02*
X18958501Y-9751245I-56215J-56215D01*
G01*
X18846071Y-9863675D01*
G75*
G02*
X18733641Y-9863675I-56215J56215D01*
G01*
X17790361Y-8920395D01*
G75*
G02*
X17790361Y-8807965I56215J56215D01*
G01*
X17902791Y-8695535D01*
G75*
G02*
X18015221Y-8695535I56215J-56215D01*
G01*
G37*
G36*
G01*
X18368775Y-8341981D02*
X19312055Y-9285261D01*
G75*
G02*
X19312055Y-9397691I-56215J-56215D01*
G01*
X19199625Y-9510121D01*
G75*
G02*
X19087195Y-9510121I-56215J56215D01*
G01*
X18143915Y-8566841D01*
G75*
G02*
X18143915Y-8454411I56215J56215D01*
G01*
X18256345Y-8341981D01*
G75*
G02*
X18368775Y-8341981I56215J-56215D01*
G01*
G37*
G36*
G01*
X18722328Y-7988428D02*
X19665608Y-8931708D01*
G75*
G02*
X19665608Y-9044138I-56215J-56215D01*
G01*
X19553178Y-9156568D01*
G75*
G02*
X19440748Y-9156568I-56215J56215D01*
G01*
X18497468Y-8213288D01*
G75*
G02*
X18497468Y-8100858I56215J56215D01*
G01*
X18609898Y-7988428D01*
G75*
G02*
X18722328Y-7988428I56215J-56215D01*
G01*
G37*
G36*
G01*
X19075881Y-7634875D02*
X20019161Y-8578155D01*
G75*
G02*
X20019161Y-8690585I-56215J-56215D01*
G01*
X19906731Y-8803015D01*
G75*
G02*
X19794301Y-8803015I-56215J56215D01*
G01*
X18851021Y-7859735D01*
G75*
G02*
X18851021Y-7747305I56215J56215D01*
G01*
X18963451Y-7634875D01*
G75*
G02*
X19075881Y-7634875I56215J-56215D01*
G01*
G37*
G36*
G01*
X19429435Y-7281321D02*
X20372715Y-8224601D01*
G75*
G02*
X20372715Y-8337031I-56215J-56215D01*
G01*
X20260285Y-8449461D01*
G75*
G02*
X20147855Y-8449461I-56215J56215D01*
G01*
X19204575Y-7506181D01*
G75*
G02*
X19204575Y-7393751I56215J56215D01*
G01*
X19317005Y-7281321D01*
G75*
G02*
X19429435Y-7281321I56215J-56215D01*
G01*
G37*
G36*
G01*
X19782988Y-6927768D02*
X20726268Y-7871048D01*
G75*
G02*
X20726268Y-7983478I-56215J-56215D01*
G01*
X20613838Y-8095908D01*
G75*
G02*
X20501408Y-8095908I-56215J56215D01*
G01*
X19558128Y-7152628D01*
G75*
G02*
X19558128Y-7040198I56215J56215D01*
G01*
X19670558Y-6927768D01*
G75*
G02*
X19782988Y-6927768I56215J-56215D01*
G01*
G37*
G36*
G01*
X20136541Y-6574215D02*
X21079821Y-7517495D01*
G75*
G02*
X21079821Y-7629925I-56215J-56215D01*
G01*
X20967391Y-7742355D01*
G75*
G02*
X20854961Y-7742355I-56215J56215D01*
G01*
X19911681Y-6799075D01*
G75*
G02*
X19911681Y-6686645I56215J56215D01*
G01*
X20024111Y-6574215D01*
G75*
G02*
X20136541Y-6574215I56215J-56215D01*
G01*
G37*
G36*
G01*
X20490095Y-6220661D02*
X21433375Y-7163941D01*
G75*
G02*
X21433375Y-7276371I-56215J-56215D01*
G01*
X21320945Y-7388801D01*
G75*
G02*
X21208515Y-7388801I-56215J56215D01*
G01*
X20265235Y-6445521D01*
G75*
G02*
X20265235Y-6333091I56215J56215D01*
G01*
X20377665Y-6220661D01*
G75*
G02*
X20490095Y-6220661I56215J-56215D01*
G01*
G37*
G36*
G01*
X20843648Y-5867108D02*
X21786928Y-6810388D01*
G75*
G02*
X21786928Y-6922818I-56215J-56215D01*
G01*
X21674498Y-7035248D01*
G75*
G02*
X21562068Y-7035248I-56215J56215D01*
G01*
X20618788Y-6091968D01*
G75*
G02*
X20618788Y-5979538I56215J56215D01*
G01*
X20731218Y-5867108D01*
G75*
G02*
X20843648Y-5867108I56215J-56215D01*
G01*
G37*
G36*
G01*
X21197202Y-5513554D02*
X22140482Y-6456834D01*
G75*
G02*
X22140482Y-6569264I-56215J-56215D01*
G01*
X22028052Y-6681694D01*
G75*
G02*
X21915622Y-6681694I-56215J56215D01*
G01*
X20972342Y-5738414D01*
G75*
G02*
X20972342Y-5625984I56215J56215D01*
G01*
X21084772Y-5513554D01*
G75*
G02*
X21197202Y-5513554I56215J-56215D01*
G01*
G37*
G36*
G01*
X24025628Y-5513554D02*
X24138058Y-5625984D01*
G75*
G02*
X24138058Y-5738414I-56215J-56215D01*
G01*
X23194778Y-6681694D01*
G75*
G02*
X23082348Y-6681694I-56215J56215D01*
G01*
X22969918Y-6569264D01*
G75*
G02*
X22969918Y-6456834I56215J56215D01*
G01*
X23913198Y-5513554D01*
G75*
G02*
X24025628Y-5513554I56215J-56215D01*
G01*
G37*
G36*
G01*
X24379182Y-5867108D02*
X24491612Y-5979538D01*
G75*
G02*
X24491612Y-6091968I-56215J-56215D01*
G01*
X23548332Y-7035248D01*
G75*
G02*
X23435902Y-7035248I-56215J56215D01*
G01*
X23323472Y-6922818D01*
G75*
G02*
X23323472Y-6810388I56215J56215D01*
G01*
X24266752Y-5867108D01*
G75*
G02*
X24379182Y-5867108I56215J-56215D01*
G01*
G37*
G36*
G01*
X24732735Y-6220661D02*
X24845165Y-6333091D01*
G75*
G02*
X24845165Y-6445521I-56215J-56215D01*
G01*
X23901885Y-7388801D01*
G75*
G02*
X23789455Y-7388801I-56215J56215D01*
G01*
X23677025Y-7276371D01*
G75*
G02*
X23677025Y-7163941I56215J56215D01*
G01*
X24620305Y-6220661D01*
G75*
G02*
X24732735Y-6220661I56215J-56215D01*
G01*
G37*
G36*
G01*
X25086289Y-6574215D02*
X25198719Y-6686645D01*
G75*
G02*
X25198719Y-6799075I-56215J-56215D01*
G01*
X24255439Y-7742355D01*
G75*
G02*
X24143009Y-7742355I-56215J56215D01*
G01*
X24030579Y-7629925D01*
G75*
G02*
X24030579Y-7517495I56215J56215D01*
G01*
X24973859Y-6574215D01*
G75*
G02*
X25086289Y-6574215I56215J-56215D01*
G01*
G37*
G36*
G01*
X25439842Y-6927768D02*
X25552272Y-7040198D01*
G75*
G02*
X25552272Y-7152628I-56215J-56215D01*
G01*
X24608992Y-8095908D01*
G75*
G02*
X24496562Y-8095908I-56215J56215D01*
G01*
X24384132Y-7983478D01*
G75*
G02*
X24384132Y-7871048I56215J56215D01*
G01*
X25327412Y-6927768D01*
G75*
G02*
X25439842Y-6927768I56215J-56215D01*
G01*
G37*
G36*
G01*
X25793395Y-7281321D02*
X25905825Y-7393751D01*
G75*
G02*
X25905825Y-7506181I-56215J-56215D01*
G01*
X24962545Y-8449461D01*
G75*
G02*
X24850115Y-8449461I-56215J56215D01*
G01*
X24737685Y-8337031D01*
G75*
G02*
X24737685Y-8224601I56215J56215D01*
G01*
X25680965Y-7281321D01*
G75*
G02*
X25793395Y-7281321I56215J-56215D01*
G01*
G37*
G36*
G01*
X26146949Y-7634875D02*
X26259379Y-7747305D01*
G75*
G02*
X26259379Y-7859735I-56215J-56215D01*
G01*
X25316099Y-8803015D01*
G75*
G02*
X25203669Y-8803015I-56215J56215D01*
G01*
X25091239Y-8690585D01*
G75*
G02*
X25091239Y-8578155I56215J56215D01*
G01*
X26034519Y-7634875D01*
G75*
G02*
X26146949Y-7634875I56215J-56215D01*
G01*
G37*
G36*
G01*
X26500502Y-7988428D02*
X26612932Y-8100858D01*
G75*
G02*
X26612932Y-8213288I-56215J-56215D01*
G01*
X25669652Y-9156568D01*
G75*
G02*
X25557222Y-9156568I-56215J56215D01*
G01*
X25444792Y-9044138D01*
G75*
G02*
X25444792Y-8931708I56215J56215D01*
G01*
X26388072Y-7988428D01*
G75*
G02*
X26500502Y-7988428I56215J-56215D01*
G01*
G37*
G36*
G01*
X26854055Y-8341981D02*
X26966485Y-8454411D01*
G75*
G02*
X26966485Y-8566841I-56215J-56215D01*
G01*
X26023205Y-9510121D01*
G75*
G02*
X25910775Y-9510121I-56215J56215D01*
G01*
X25798345Y-9397691D01*
G75*
G02*
X25798345Y-9285261I56215J56215D01*
G01*
X26741625Y-8341981D01*
G75*
G02*
X26854055Y-8341981I56215J-56215D01*
G01*
G37*
G36*
G01*
X27207609Y-8695535D02*
X27320039Y-8807965D01*
G75*
G02*
X27320039Y-8920395I-56215J-56215D01*
G01*
X26376759Y-9863675D01*
G75*
G02*
X26264329Y-9863675I-56215J56215D01*
G01*
X26151899Y-9751245D01*
G75*
G02*
X26151899Y-9638815I56215J56215D01*
G01*
X27095179Y-8695535D01*
G75*
G02*
X27207609Y-8695535I56215J-56215D01*
G01*
G37*
G36*
G01*
X27561162Y-9049088D02*
X27673592Y-9161518D01*
G75*
G02*
X27673592Y-9273948I-56215J-56215D01*
G01*
X26730312Y-10217228D01*
G75*
G02*
X26617882Y-10217228I-56215J56215D01*
G01*
X26505452Y-10104798D01*
G75*
G02*
X26505452Y-9992368I56215J56215D01*
G01*
X27448732Y-9049088D01*
G75*
G02*
X27561162Y-9049088I56215J-56215D01*
G01*
G37*
G36*
G01*
X27914716Y-9402642D02*
X28027146Y-9515072D01*
G75*
G02*
X28027146Y-9627502I-56215J-56215D01*
G01*
X27083866Y-10570782D01*
G75*
G02*
X26971436Y-10570782I-56215J56215D01*
G01*
X26859006Y-10458352D01*
G75*
G02*
X26859006Y-10345922I56215J56215D01*
G01*
X27802286Y-9402642D01*
G75*
G02*
X27914716Y-9402642I56215J-56215D01*
G01*
G37*
%TD*%
D10*
%TO.C,J2*%
X66294000Y-14788000D03*
X66294000Y-18288000D03*
%TD*%
%TO.C,U1*%
G36*
G01*
X52653600Y-18129000D02*
X51153600Y-18129000D01*
G75*
G02*
X51144600Y-18120000I0J9000D01*
G01*
X51144600Y-16120000D01*
G75*
G02*
X51153600Y-16111000I9000J0D01*
G01*
X52653600Y-16111000D01*
G75*
G02*
X52662600Y-16120000I0J-9000D01*
G01*
X52662600Y-18120000D01*
G75*
G02*
X52653600Y-18129000I-9000J0D01*
G01*
G37*
G36*
G01*
X57253600Y-18129000D02*
X55753600Y-18129000D01*
G75*
G02*
X55744600Y-18120000I0J9000D01*
G01*
X55744600Y-16120000D01*
G75*
G02*
X55753600Y-16111000I9000J0D01*
G01*
X57253600Y-16111000D01*
G75*
G02*
X57262600Y-16120000I0J-9000D01*
G01*
X57262600Y-18120000D01*
G75*
G02*
X57253600Y-18129000I-9000J0D01*
G01*
G37*
G36*
G01*
X54953600Y-18129000D02*
X53453600Y-18129000D01*
G75*
G02*
X53444600Y-18120000I0J9000D01*
G01*
X53444600Y-16120000D01*
G75*
G02*
X53453600Y-16111000I9000J0D01*
G01*
X54953600Y-16111000D01*
G75*
G02*
X54962600Y-16120000I0J-9000D01*
G01*
X54962600Y-18120000D01*
G75*
G02*
X54953600Y-18129000I-9000J0D01*
G01*
G37*
G36*
G01*
X56103600Y-11829000D02*
X52303600Y-11829000D01*
G75*
G02*
X52294600Y-11820000I0J9000D01*
G01*
X52294600Y-9820000D01*
G75*
G02*
X52303600Y-9811000I9000J0D01*
G01*
X56103600Y-9811000D01*
G75*
G02*
X56112600Y-9820000I0J-9000D01*
G01*
X56112600Y-11820000D01*
G75*
G02*
X56103600Y-11829000I-9000J0D01*
G01*
G37*
%TD*%
D11*
%TO.C,J3*%
X39522400Y-6858000D03*
X39522400Y-9398000D03*
X39522400Y-11938000D03*
D12*
X39522400Y-14478000D03*
%TD*%
D15*
%TO.C,C3*%
X48056800Y-16357600D03*
X45556800Y-16357600D03*
%TD*%
D16*
%TO.C,BZ1*%
X3068000Y-13589000D03*
G36*
G01*
X11677000Y-12589000D02*
X11677000Y-14589000D01*
G75*
G02*
X11668000Y-14598000I-9000J0D01*
G01*
X9668000Y-14598000D01*
G75*
G02*
X9659000Y-14589000I0J9000D01*
G01*
X9659000Y-12589000D01*
G75*
G02*
X9668000Y-12580000I9000J0D01*
G01*
X11668000Y-12580000D01*
G75*
G02*
X11677000Y-12589000I0J-9000D01*
G01*
G37*
%TD*%
M02*
