M48
; DRILL file {KiCad (5.1.9)-1} date 05/22/21 10:51:50
; FORMAT={-:-/ absolute / metric / decimal}
; #@! TF.CreationDate,2021-05-22T10:51:50+02:00
; #@! TF.GenerationSoftware,Kicad,Pcbnew,(5.1.9)-1
FMAT,2
METRIC
T1C0.300
T2C0.500
T3C0.800
T4C1.000
T5C1.200
%
G90
G05
T1
X6.909Y-2.134
X9.305Y-5.791
X11.989Y-7.366
X13.716Y-10.058
X14.427Y-2.134
X15.037Y-15.646
X19.507Y-15.697
X19.761Y-5.893
X20.98Y-8.484
X21.234Y-13.106
X21.38Y-8.02
X21.996Y-3.505
X21.996Y-13.97
X22.454Y-14.986
X23.622Y-1.058
X23.673Y-11.278
X24.486Y-4.635
X24.994Y-5.893
X25.095Y-16.0
X26.06Y-6.655
X26.06Y-16.104
X28.448Y-15.646
X28.753Y-11.938
X29.312Y-11.227
X29.972Y-9.906
X31.496Y-1.058
X31.598Y-6.655
X32.969Y-8.636
X33.833Y-16.916
X34.138Y-11.278
X34.798Y-14.224
X37.795Y-11.278
X37.948Y-6.045
X37.948Y-7.315
X37.948Y-9.296
X38.1Y-12.598
X39.624Y-16.7
X41.046Y-12.598
X43.18Y-11.278
X43.434Y-12.598
X43.878Y-9.271
X44.044Y-13.614
X44.552Y-13.106
X45.212Y-11.278
X45.263Y-12.598
X46.799Y-9.144
X47.434Y-10.922
X48.158Y-7.781
X49.212Y-1.372
X50.673Y-0.762
X52.197Y-9.08
X52.527Y-10.795
X52.578Y-5.905
X52.642Y-4.635
X53.353Y-10.795
X54.038Y-2.324
X54.191Y-10.782
X54.204Y-17.12
X55.054Y-10.795
X55.56Y-3.97
X55.56Y-5.271
X55.56Y-6.571
X55.867Y-10.795
X56.007Y-4.661
X56.007Y-5.931
X56.515Y-3.97
X56.515Y-5.271
X56.515Y-6.591
X56.578Y-2.349
X56.972Y-4.661
X56.972Y-5.931
X57.47Y-3.97
X57.47Y-5.271
X57.47Y-6.571
X58.61Y-3.365
X58.61Y-4.635
X58.61Y-5.905
X58.674Y-7.175
X58.928Y-2.324
X59.165Y-7.637
X59.69Y-3.365
X59.69Y-4.635
X59.69Y-5.905
X59.69Y-7.175
X61.087Y-4.635
X61.15Y-7.81
X61.722Y-4.635
X61.785Y-7.81
X62.42Y-4.635
X62.42Y-7.81
X64.262Y-2.921
T2
X20.93Y-10.058
X24.828Y-9.652
X45.872Y-11.735
X46.685Y-7.569
X47.701Y-14.783
X50.673Y-3.472
X52.934Y-13.005
X54.305Y-13.005
X55.677Y-13.005
X57.023Y-7.302
X58.102Y-10.16
X58.115Y-16.256
X59.03Y-15.443
X61.15Y-13.335
X61.341Y-9.144
X62.484Y-9.144
X63.436Y-7.747
X63.436Y-8.763
X63.551Y-16.612
X63.551Y-18.288
T3
X45.557Y-16.358
X48.057Y-16.358
T4
X3.068Y-13.589
X10.668Y-13.589
X12.243Y-6.096
X16.053Y-14.427
X17.983Y-16.154
X18.186Y-6.096
X18.542Y-18.491
X21.082Y-18.491
X23.622Y-18.491
X26.162Y-18.491
X28.702Y-18.491
X31.242Y-18.491
X39.522Y-6.858
X39.522Y-9.398
X39.522Y-11.938
X39.522Y-14.478
X39.624Y-18.351
X42.367Y-18.339
X47.854Y-2.184
T5
X66.294Y-2.215
X66.294Y-5.715
X66.294Y-14.788
X66.294Y-18.288
T2
G00X36.893Y-1.047
M15
G01X36.893Y-1.747
M16
G05
G00X43.493Y-1.047
M15
G01X43.493Y-1.747
M16
G05
T0
M30
