%TF.GenerationSoftware,KiCad,Pcbnew,(5.1.9)-1*%
%TF.CreationDate,2021-05-22T10:51:53+02:00*%
%TF.ProjectId,SPD_DC_MotorHBridge,5350445f-4443-45f4-9d6f-746f72484272,rev?*%
%TF.SameCoordinates,Original*%
%TF.FileFunction,Legend,Top*%
%TF.FilePolarity,Positive*%
%FSLAX46Y46*%
G04 Gerber Fmt 4.6, Leading zero omitted, Abs format (unit mm)*
G04 Created by KiCad (PCBNEW (5.1.9)-1) date 2021-05-22 10:51:53*
%MOMM*%
%LPD*%
G01*
G04 APERTURE LIST*
%ADD10C,0.150000*%
%ADD11C,0.120000*%
%ADD12C,0.100000*%
%ADD13C,0.200000*%
%ADD14C,2.318000*%
%ADD15O,1.718000X1.718000*%
%ADD16C,1.718000*%
%ADD17C,1.768000*%
%ADD18O,1.018000X1.718000*%
%ADD19C,1.618000*%
%ADD20C,2.018000*%
G04 APERTURE END LIST*
D10*
X47002809Y-3371904D02*
X47269476Y-4171904D01*
X47536142Y-3371904D01*
X47802809Y-4171904D02*
X47802809Y-3371904D01*
X48183761Y-4171904D02*
X48183761Y-3371904D01*
X48640904Y-4171904D01*
X48640904Y-3371904D01*
X35172704Y-4311523D02*
X35820323Y-4311523D01*
X35896514Y-4273428D01*
X35934609Y-4235333D01*
X35972704Y-4159142D01*
X35972704Y-4006761D01*
X35934609Y-3930571D01*
X35896514Y-3892476D01*
X35820323Y-3854380D01*
X35172704Y-3854380D01*
X35934609Y-3511523D02*
X35972704Y-3397238D01*
X35972704Y-3206761D01*
X35934609Y-3130571D01*
X35896514Y-3092476D01*
X35820323Y-3054380D01*
X35744133Y-3054380D01*
X35667942Y-3092476D01*
X35629847Y-3130571D01*
X35591752Y-3206761D01*
X35553657Y-3359142D01*
X35515561Y-3435333D01*
X35477466Y-3473428D01*
X35401276Y-3511523D01*
X35325085Y-3511523D01*
X35248895Y-3473428D01*
X35210800Y-3435333D01*
X35172704Y-3359142D01*
X35172704Y-3168666D01*
X35210800Y-3054380D01*
X35972704Y-2254380D02*
X35591752Y-2521047D01*
X35972704Y-2711523D02*
X35172704Y-2711523D01*
X35172704Y-2406761D01*
X35210800Y-2330571D01*
X35248895Y-2292476D01*
X35325085Y-2254380D01*
X35439371Y-2254380D01*
X35515561Y-2292476D01*
X35553657Y-2330571D01*
X35591752Y-2406761D01*
X35591752Y-2711523D01*
X1924114Y-7727904D02*
X1543161Y-7727904D01*
X1543161Y-6927904D01*
X2190780Y-7308857D02*
X2457447Y-7308857D01*
X2571733Y-7727904D02*
X2190780Y-7727904D01*
X2190780Y-6927904D01*
X2571733Y-6927904D01*
X2914590Y-7727904D02*
X2914590Y-6927904D01*
X3105066Y-6927904D01*
X3219352Y-6966000D01*
X3295542Y-7042190D01*
X3333638Y-7118380D01*
X3371733Y-7270761D01*
X3371733Y-7385047D01*
X3333638Y-7537428D01*
X3295542Y-7613619D01*
X3219352Y-7689809D01*
X3105066Y-7727904D01*
X2914590Y-7727904D01*
X1327104Y-6807066D02*
X527104Y-6807066D01*
X527104Y-6502304D01*
X565200Y-6426114D01*
X603295Y-6388019D01*
X679485Y-6349923D01*
X793771Y-6349923D01*
X869961Y-6388019D01*
X908057Y-6426114D01*
X946152Y-6502304D01*
X946152Y-6807066D01*
X527104Y-6083257D02*
X1327104Y-5892780D01*
X755676Y-5740400D01*
X1327104Y-5588019D01*
X527104Y-5397542D01*
X1327104Y-4635638D02*
X946152Y-4902304D01*
X1327104Y-5092780D02*
X527104Y-5092780D01*
X527104Y-4788019D01*
X565200Y-4711828D01*
X603295Y-4673733D01*
X679485Y-4635638D01*
X793771Y-4635638D01*
X869961Y-4673733D01*
X908057Y-4711828D01*
X946152Y-4788019D01*
X946152Y-5092780D01*
X28063557Y-13045206D02*
X28440680Y-13422329D01*
X27713371Y-12964393D02*
X27982745Y-13503141D01*
X28332931Y-13152955D01*
X28494555Y-12721957D02*
X28413743Y-12748894D01*
X28359868Y-12748894D01*
X28279056Y-12721957D01*
X28252119Y-12695019D01*
X28225181Y-12614207D01*
X28225181Y-12560332D01*
X28252119Y-12479520D01*
X28359868Y-12371771D01*
X28440680Y-12344833D01*
X28494555Y-12344833D01*
X28575367Y-12371771D01*
X28602305Y-12398708D01*
X28629242Y-12479520D01*
X28629242Y-12533395D01*
X28602305Y-12614207D01*
X28494555Y-12721957D01*
X28467618Y-12802769D01*
X28467618Y-12856644D01*
X28494555Y-12937456D01*
X28602305Y-13045206D01*
X28683117Y-13072143D01*
X28736992Y-13072143D01*
X28817804Y-13045206D01*
X28925554Y-12937456D01*
X28952491Y-12856644D01*
X28952491Y-12802769D01*
X28925554Y-12721957D01*
X28817804Y-12614207D01*
X28736992Y-12587270D01*
X28683117Y-12587270D01*
X28602305Y-12614207D01*
X21755180Y-16122704D02*
X22250419Y-16122704D01*
X21983752Y-16427466D01*
X22098038Y-16427466D01*
X22174228Y-16465561D01*
X22212323Y-16503657D01*
X22250419Y-16579847D01*
X22250419Y-16770323D01*
X22212323Y-16846514D01*
X22174228Y-16884609D01*
X22098038Y-16922704D01*
X21869466Y-16922704D01*
X21793276Y-16884609D01*
X21755180Y-16846514D01*
X22936133Y-16122704D02*
X22783752Y-16122704D01*
X22707561Y-16160800D01*
X22669466Y-16198895D01*
X22593276Y-16313180D01*
X22555180Y-16465561D01*
X22555180Y-16770323D01*
X22593276Y-16846514D01*
X22631371Y-16884609D01*
X22707561Y-16922704D01*
X22859942Y-16922704D01*
X22936133Y-16884609D01*
X22974228Y-16846514D01*
X23012323Y-16770323D01*
X23012323Y-16579847D01*
X22974228Y-16503657D01*
X22936133Y-16465561D01*
X22859942Y-16427466D01*
X22707561Y-16427466D01*
X22631371Y-16465561D01*
X22593276Y-16503657D01*
X22555180Y-16579847D01*
X16127896Y-9115893D02*
X16127896Y-9062018D01*
X16154833Y-8981206D01*
X16289520Y-8846519D01*
X16370332Y-8819581D01*
X16424207Y-8819581D01*
X16505019Y-8846519D01*
X16558894Y-8900393D01*
X16612769Y-9008143D01*
X16612769Y-9654641D01*
X16962955Y-9304454D01*
X16909080Y-8226958D02*
X16639706Y-8496332D01*
X16882143Y-8792644D01*
X16882143Y-8738769D01*
X16909080Y-8657957D01*
X17043767Y-8523270D01*
X17124580Y-8496332D01*
X17178454Y-8496332D01*
X17259267Y-8523270D01*
X17393954Y-8657957D01*
X17420891Y-8738769D01*
X17420891Y-8792644D01*
X17393954Y-8873456D01*
X17259267Y-9008143D01*
X17178454Y-9035080D01*
X17124580Y-9035080D01*
X23516155Y-5596054D02*
X23192906Y-5919303D01*
X23354531Y-5757679D02*
X22788845Y-5191993D01*
X22815783Y-5326680D01*
X22815783Y-5434430D01*
X22788845Y-5515242D01*
X23219844Y-4868745D02*
X23219844Y-4814870D01*
X23246781Y-4734058D01*
X23381468Y-4599371D01*
X23462280Y-4572433D01*
X23516155Y-4572433D01*
X23596967Y-4599371D01*
X23650842Y-4653245D01*
X23704717Y-4760995D01*
X23704717Y-5407493D01*
X24054903Y-5057306D01*
X43332476Y-19729404D02*
X43332476Y-18929404D01*
X43637238Y-18929404D01*
X43713428Y-18967500D01*
X43751523Y-19005595D01*
X43789619Y-19081785D01*
X43789619Y-19196071D01*
X43751523Y-19272261D01*
X43713428Y-19310357D01*
X43637238Y-19348452D01*
X43332476Y-19348452D01*
X44399142Y-19310357D02*
X44513428Y-19348452D01*
X44551523Y-19386547D01*
X44589619Y-19462738D01*
X44589619Y-19577023D01*
X44551523Y-19653214D01*
X44513428Y-19691309D01*
X44437238Y-19729404D01*
X44132476Y-19729404D01*
X44132476Y-18929404D01*
X44399142Y-18929404D01*
X44475333Y-18967500D01*
X44513428Y-19005595D01*
X44551523Y-19081785D01*
X44551523Y-19157976D01*
X44513428Y-19234166D01*
X44475333Y-19272261D01*
X44399142Y-19310357D01*
X44132476Y-19310357D01*
X37649219Y-19716704D02*
X37649219Y-18916704D01*
X37953980Y-18916704D01*
X38030171Y-18954800D01*
X38068266Y-18992895D01*
X38106361Y-19069085D01*
X38106361Y-19183371D01*
X38068266Y-19259561D01*
X38030171Y-19297657D01*
X37953980Y-19335752D01*
X37649219Y-19335752D01*
X38411123Y-19488133D02*
X38792076Y-19488133D01*
X38334933Y-19716704D02*
X38601600Y-18916704D01*
X38868266Y-19716704D01*
X16408457Y-7727904D02*
X16408457Y-6927904D01*
X16789409Y-7727904D02*
X16789409Y-6927904D01*
X17056076Y-7499333D01*
X17322742Y-6927904D01*
X17322742Y-7727904D01*
X12484190Y-4286304D02*
X12750857Y-5086304D01*
X13017523Y-4286304D01*
X13284190Y-5086304D02*
X13284190Y-4286304D01*
X13550857Y-4857733D01*
X13817523Y-4286304D01*
X13817523Y-5086304D01*
X13766876Y-14039904D02*
X14224019Y-14039904D01*
X13995447Y-14839904D02*
X13995447Y-14039904D01*
X14909733Y-14839904D02*
X14452590Y-14839904D01*
X14681161Y-14839904D02*
X14681161Y-14039904D01*
X14604971Y-14154190D01*
X14528780Y-14230380D01*
X14452590Y-14268476D01*
X15646476Y-15716304D02*
X16103619Y-15716304D01*
X15875047Y-16516304D02*
X15875047Y-15716304D01*
X16522666Y-15716304D02*
X16598857Y-15716304D01*
X16675047Y-15754400D01*
X16713142Y-15792495D01*
X16751238Y-15868685D01*
X16789333Y-16021066D01*
X16789333Y-16211542D01*
X16751238Y-16363923D01*
X16713142Y-16440114D01*
X16675047Y-16478209D01*
X16598857Y-16516304D01*
X16522666Y-16516304D01*
X16446476Y-16478209D01*
X16408380Y-16440114D01*
X16370285Y-16363923D01*
X16332190Y-16211542D01*
X16332190Y-16021066D01*
X16370285Y-15868685D01*
X16408380Y-15792495D01*
X16446476Y-15754400D01*
X16522666Y-15716304D01*
X38222419Y-16063980D02*
X38412895Y-16063980D01*
X38508133Y-16111600D01*
X38603371Y-16206838D01*
X38650990Y-16397314D01*
X38650990Y-16730647D01*
X38603371Y-16921123D01*
X38508133Y-17016361D01*
X38412895Y-17063980D01*
X38222419Y-17063980D01*
X38127180Y-17016361D01*
X38031942Y-16921123D01*
X37984323Y-16730647D01*
X37984323Y-16397314D01*
X38031942Y-16206838D01*
X38127180Y-16111600D01*
X38222419Y-16063980D01*
X39555752Y-17063980D02*
X39079561Y-17063980D01*
X39079561Y-16063980D01*
X39889085Y-16540171D02*
X40222419Y-16540171D01*
X40365276Y-17063980D02*
X39889085Y-17063980D01*
X39889085Y-16063980D01*
X40365276Y-16063980D01*
X40793847Y-17063980D02*
X40793847Y-16063980D01*
X41031942Y-16063980D01*
X41174800Y-16111600D01*
X41270038Y-16206838D01*
X41317657Y-16302076D01*
X41365276Y-16492552D01*
X41365276Y-16635409D01*
X41317657Y-16825885D01*
X41270038Y-16921123D01*
X41174800Y-17016361D01*
X41031942Y-17063980D01*
X40793847Y-17063980D01*
X62809428Y-18668952D02*
X62809428Y-17907047D01*
X62407847Y-14803428D02*
X63169752Y-14803428D01*
X62788800Y-15184380D02*
X62788800Y-14422476D01*
X64706704Y-12706304D02*
X64706704Y-11906304D01*
X64897180Y-11906304D01*
X65011466Y-11944400D01*
X65087657Y-12020590D01*
X65125752Y-12096780D01*
X65163847Y-12249161D01*
X65163847Y-12363447D01*
X65125752Y-12515828D01*
X65087657Y-12592019D01*
X65011466Y-12668209D01*
X64897180Y-12706304D01*
X64706704Y-12706304D01*
X65963847Y-12630114D02*
X65925752Y-12668209D01*
X65811466Y-12706304D01*
X65735276Y-12706304D01*
X65620990Y-12668209D01*
X65544800Y-12592019D01*
X65506704Y-12515828D01*
X65468609Y-12363447D01*
X65468609Y-12249161D01*
X65506704Y-12096780D01*
X65544800Y-12020590D01*
X65620990Y-11944400D01*
X65735276Y-11906304D01*
X65811466Y-11906304D01*
X65925752Y-11944400D01*
X65963847Y-11982495D01*
X66954323Y-12706304D02*
X67106704Y-12706304D01*
X67182895Y-12668209D01*
X67220990Y-12630114D01*
X67297180Y-12515828D01*
X67335276Y-12363447D01*
X67335276Y-12058685D01*
X67297180Y-11982495D01*
X67259085Y-11944400D01*
X67182895Y-11906304D01*
X67030514Y-11906304D01*
X66954323Y-11944400D01*
X66916228Y-11982495D01*
X66878133Y-12058685D01*
X66878133Y-12249161D01*
X66916228Y-12325352D01*
X66954323Y-12363447D01*
X67030514Y-12401542D01*
X67182895Y-12401542D01*
X67259085Y-12363447D01*
X67297180Y-12325352D01*
X67335276Y-12249161D01*
X67563847Y-11906304D02*
X67830514Y-12706304D01*
X68097180Y-11906304D01*
X64535276Y-8680404D02*
X64535276Y-7880404D01*
X64801942Y-8451833D01*
X65068609Y-7880404D01*
X65068609Y-8680404D01*
X65601942Y-7880404D02*
X65754323Y-7880404D01*
X65830514Y-7918500D01*
X65906704Y-7994690D01*
X65944800Y-8147071D01*
X65944800Y-8413738D01*
X65906704Y-8566119D01*
X65830514Y-8642309D01*
X65754323Y-8680404D01*
X65601942Y-8680404D01*
X65525752Y-8642309D01*
X65449561Y-8566119D01*
X65411466Y-8413738D01*
X65411466Y-8147071D01*
X65449561Y-7994690D01*
X65525752Y-7918500D01*
X65601942Y-7880404D01*
X66173371Y-7880404D02*
X66630514Y-7880404D01*
X66401942Y-8680404D02*
X66401942Y-7880404D01*
X67049561Y-7880404D02*
X67201942Y-7880404D01*
X67278133Y-7918500D01*
X67354323Y-7994690D01*
X67392419Y-8147071D01*
X67392419Y-8413738D01*
X67354323Y-8566119D01*
X67278133Y-8642309D01*
X67201942Y-8680404D01*
X67049561Y-8680404D01*
X66973371Y-8642309D01*
X66897180Y-8566119D01*
X66859085Y-8413738D01*
X66859085Y-8147071D01*
X66897180Y-7994690D01*
X66973371Y-7918500D01*
X67049561Y-7880404D01*
X68192419Y-8680404D02*
X67925752Y-8299452D01*
X67735276Y-8680404D02*
X67735276Y-7880404D01*
X68040038Y-7880404D01*
X68116228Y-7918500D01*
X68154323Y-7956595D01*
X68192419Y-8032785D01*
X68192419Y-8147071D01*
X68154323Y-8223261D01*
X68116228Y-8261357D01*
X68040038Y-8299452D01*
X67735276Y-8299452D01*
X16859428Y-4679904D02*
X16859428Y-3879904D01*
X17164190Y-3879904D01*
X17240380Y-3918000D01*
X17278476Y-3956095D01*
X17316571Y-4032285D01*
X17316571Y-4146571D01*
X17278476Y-4222761D01*
X17240380Y-4260857D01*
X17164190Y-4298952D01*
X16859428Y-4298952D01*
X17659428Y-3879904D02*
X17659428Y-4527523D01*
X17697523Y-4603714D01*
X17735619Y-4641809D01*
X17811809Y-4679904D01*
X17964190Y-4679904D01*
X18040380Y-4641809D01*
X18078476Y-4603714D01*
X18116571Y-4527523D01*
X18116571Y-3879904D01*
X18459428Y-4641809D02*
X18573714Y-4679904D01*
X18764190Y-4679904D01*
X18840380Y-4641809D01*
X18878476Y-4603714D01*
X18916571Y-4527523D01*
X18916571Y-4451333D01*
X18878476Y-4375142D01*
X18840380Y-4337047D01*
X18764190Y-4298952D01*
X18611809Y-4260857D01*
X18535619Y-4222761D01*
X18497523Y-4184666D01*
X18459428Y-4108476D01*
X18459428Y-4032285D01*
X18497523Y-3956095D01*
X18535619Y-3918000D01*
X18611809Y-3879904D01*
X18802285Y-3879904D01*
X18916571Y-3918000D01*
X19259428Y-4679904D02*
X19259428Y-3879904D01*
X19259428Y-4260857D02*
X19716571Y-4260857D01*
X19716571Y-4679904D02*
X19716571Y-3879904D01*
X8274209Y-4679904D02*
X8274209Y-3879904D01*
X8578971Y-3879904D01*
X8655161Y-3918000D01*
X8693257Y-3956095D01*
X8731352Y-4032285D01*
X8731352Y-4146571D01*
X8693257Y-4222761D01*
X8655161Y-4260857D01*
X8578971Y-4298952D01*
X8274209Y-4298952D01*
X9074209Y-3879904D02*
X9074209Y-4527523D01*
X9112304Y-4603714D01*
X9150400Y-4641809D01*
X9226590Y-4679904D01*
X9378971Y-4679904D01*
X9455161Y-4641809D01*
X9493257Y-4603714D01*
X9531352Y-4527523D01*
X9531352Y-3879904D01*
X10293257Y-4679904D02*
X9912304Y-4679904D01*
X9912304Y-3879904D01*
X10940876Y-4679904D02*
X10559923Y-4679904D01*
X10559923Y-3879904D01*
X2654361Y-4552914D02*
X2616266Y-4591009D01*
X2501980Y-4629104D01*
X2425790Y-4629104D01*
X2311504Y-4591009D01*
X2235314Y-4514819D01*
X2197219Y-4438628D01*
X2159123Y-4286247D01*
X2159123Y-4171961D01*
X2197219Y-4019580D01*
X2235314Y-3943390D01*
X2311504Y-3867200D01*
X2425790Y-3829104D01*
X2501980Y-3829104D01*
X2616266Y-3867200D01*
X2654361Y-3905295D01*
X3263885Y-4210057D02*
X2997219Y-4210057D01*
X2997219Y-4629104D02*
X2997219Y-3829104D01*
X3378171Y-3829104D01*
X4101980Y-3867200D02*
X4025790Y-3829104D01*
X3911504Y-3829104D01*
X3797219Y-3867200D01*
X3721028Y-3943390D01*
X3682933Y-4019580D01*
X3644838Y-4171961D01*
X3644838Y-4286247D01*
X3682933Y-4438628D01*
X3721028Y-4514819D01*
X3797219Y-4591009D01*
X3911504Y-4629104D01*
X3987695Y-4629104D01*
X4101980Y-4591009D01*
X4140076Y-4552914D01*
X4140076Y-4286247D01*
X3987695Y-4286247D01*
D11*
X28053398Y-10490200D02*
X28206700Y-10490200D01*
X28412608Y-10490200D02*
G75*
G03*
X28412608Y-10490200I-269408J0D01*
G01*
X28233003Y-10490200D02*
G75*
G03*
X28233003Y-10490200I-89803J0D01*
G01*
X28322805Y-10490200D02*
G75*
G03*
X28322805Y-10490200I-179605J0D01*
G01*
%TO.C,R2*%
X62801500Y-3886200D02*
X62801500Y-8559800D01*
X60769500Y-3886200D02*
X60769500Y-8559800D01*
X60769500Y-3886200D02*
X62801500Y-3886200D01*
X60769500Y-8559800D02*
X62801500Y-8559800D01*
D12*
G36*
X61379100Y-7086600D02*
G01*
X61379100Y-5359400D01*
X62141100Y-5359400D01*
X62141100Y-7086600D01*
X61379100Y-7086600D01*
G37*
X61379100Y-7086600D02*
X61379100Y-5359400D01*
X62141100Y-5359400D01*
X62141100Y-7086600D01*
X61379100Y-7086600D01*
D11*
%TO.C,U3*%
X60121800Y-7708900D02*
X60121800Y-2832100D01*
X60121800Y-7708900D02*
X52908200Y-7708900D01*
X52908200Y-7708900D02*
X52908200Y-2832100D01*
X60121800Y-2832100D02*
X52908200Y-2832100D01*
D12*
G36*
X52806600Y-3390900D02*
G01*
X52806600Y-2730500D01*
X53416200Y-2730500D01*
X52806600Y-3390900D01*
G37*
X52806600Y-3390900D02*
X52806600Y-2730500D01*
X53416200Y-2730500D01*
X52806600Y-3390900D01*
D11*
%TO.C,J1*%
X67208000Y-3318000D02*
X67284000Y-3394000D01*
X65114000Y-1225000D02*
X65168000Y-1279000D01*
X67419000Y-3150000D02*
X67474000Y-3204000D01*
X65304000Y-1035000D02*
X65380000Y-1111000D01*
X63434000Y-465000D02*
X70054000Y-465000D01*
X63434000Y-7465000D02*
X70054000Y-7465000D01*
X70054000Y-7465000D02*
X70054000Y-465000D01*
X63434000Y-7465000D02*
X63434000Y-465000D01*
X68494000Y-7465000D02*
X68494000Y-465000D01*
X67849000Y-2215000D02*
G75*
G03*
X67849000Y-2215000I-1555000J0D01*
G01*
X67849000Y-5715000D02*
G75*
G03*
X67849000Y-5715000I-1555000J0D01*
G01*
%TO.C,Y1*%
X27134239Y-7181289D02*
X29684632Y-9731682D01*
X29684632Y-9731682D02*
X32845682Y-6570632D01*
X27134239Y-7181289D02*
X30295289Y-4020239D01*
X30295289Y-4020239D02*
X32845682Y-6570632D01*
D12*
%TO.C,J4*%
G36*
X31813500Y-17157700D02*
G01*
X32512000Y-17161200D01*
X32512000Y-17856200D01*
X31813500Y-17157700D01*
G37*
X31813500Y-17157700D02*
X32512000Y-17161200D01*
X32512000Y-17856200D01*
X31813500Y-17157700D01*
D11*
X17212000Y-17161200D02*
X17212000Y-19821200D01*
X32512000Y-17161200D02*
X17212000Y-17161200D01*
X32512000Y-19821200D02*
X17212000Y-19821200D01*
X32512000Y-17161200D02*
X32512000Y-19821200D01*
%TO.C,R12*%
X32359600Y-304800D02*
X30632400Y-304800D01*
X32359600Y-3860800D02*
X30632400Y-3860800D01*
X30632400Y-3860800D02*
X30632400Y-304800D01*
X32359600Y-3860800D02*
X32359600Y-304800D01*
D12*
G36*
X31699200Y-1676400D02*
G01*
X31699200Y-2489200D01*
X31343600Y-2489200D01*
X31343600Y-1676400D01*
X31699200Y-1676400D01*
G37*
X31699200Y-1676400D02*
X31699200Y-2489200D01*
X31343600Y-2489200D01*
X31343600Y-1676400D01*
X31699200Y-1676400D01*
D11*
%TO.C,D7*%
X34137600Y-1955800D02*
X34137600Y-2400300D01*
X34264600Y-1828800D02*
X34137600Y-1955800D01*
X34137600Y-1828800D02*
X34264600Y-1828800D01*
X34137600Y-2209800D02*
X34137600Y-1828800D01*
X34137600Y-2400300D02*
X34455100Y-1765300D01*
X33820100Y-2400300D02*
X34455100Y-2400300D01*
X33820100Y-1765300D02*
X34137600Y-2400300D01*
X33820100Y-1765300D02*
X34455100Y-1765300D01*
X34137600Y-2209800D02*
X33947100Y-1828800D01*
X34074100Y-1828800D02*
X34137600Y-2273300D01*
X34137600Y-2273300D02*
X34328100Y-1828800D01*
X35001200Y-3860800D02*
X35001200Y-304800D01*
X33274000Y-3860800D02*
X35001200Y-3860800D01*
X33274000Y-304800D02*
X33274000Y-3860800D01*
X33274000Y-304800D02*
X35001200Y-304800D01*
%TO.C,R15*%
X6502400Y-4927600D02*
X6502400Y-6654800D01*
X10058400Y-4927600D02*
X10058400Y-6654800D01*
X10058400Y-6654800D02*
X6502400Y-6654800D01*
X10058400Y-4927600D02*
X6502400Y-4927600D01*
D12*
G36*
X7874000Y-5588000D02*
G01*
X8686800Y-5588000D01*
X8686800Y-5943600D01*
X7874000Y-5943600D01*
X7874000Y-5588000D01*
G37*
X7874000Y-5588000D02*
X8686800Y-5588000D01*
X8686800Y-5943600D01*
X7874000Y-5943600D01*
X7874000Y-5588000D01*
D11*
%TO.C,D6*%
X3530600Y-5740400D02*
X3086100Y-5740400D01*
X3657600Y-5867400D02*
X3530600Y-5740400D01*
X3657600Y-5740400D02*
X3657600Y-5867400D01*
X3276600Y-5740400D02*
X3657600Y-5740400D01*
X3086100Y-5740400D02*
X3721100Y-6057900D01*
X3086100Y-5422900D02*
X3086100Y-6057900D01*
X3721100Y-5422900D02*
X3086100Y-5740400D01*
X3721100Y-5422900D02*
X3721100Y-6057900D01*
X3276600Y-5740400D02*
X3657600Y-5549900D01*
X3657600Y-5676900D02*
X3213100Y-5740400D01*
X3213100Y-5740400D02*
X3657600Y-5930900D01*
X1625600Y-6604000D02*
X5181600Y-6604000D01*
X1625600Y-4876800D02*
X1625600Y-6604000D01*
X5181600Y-4876800D02*
X1625600Y-4876800D01*
X5181600Y-4876800D02*
X5181600Y-6604000D01*
%TO.C,FB1*%
X22758400Y-3860800D02*
X24485600Y-3860800D01*
X22758400Y-304800D02*
X24485600Y-304800D01*
X24485600Y-304800D02*
X24485600Y-3860800D01*
X22758400Y-304800D02*
X22758400Y-3860800D01*
D12*
G36*
X23418800Y-2489200D02*
G01*
X23418800Y-1676400D01*
X23774400Y-1676400D01*
X23774400Y-2489200D01*
X23418800Y-2489200D01*
G37*
X23418800Y-2489200D02*
X23418800Y-1676400D01*
X23774400Y-1676400D01*
X23774400Y-2489200D01*
X23418800Y-2489200D01*
D11*
%TO.C,R14*%
X43383200Y-6248400D02*
X41656000Y-6248400D01*
X43383200Y-9804400D02*
X41656000Y-9804400D01*
X41656000Y-9804400D02*
X41656000Y-6248400D01*
X43383200Y-9804400D02*
X43383200Y-6248400D01*
D12*
G36*
X42722800Y-7620000D02*
G01*
X42722800Y-8432800D01*
X42367200Y-8432800D01*
X42367200Y-7620000D01*
X42722800Y-7620000D01*
G37*
X42722800Y-7620000D02*
X42722800Y-8432800D01*
X42367200Y-8432800D01*
X42367200Y-7620000D01*
X42722800Y-7620000D01*
D11*
%TO.C,R13*%
X46024800Y-6248400D02*
X44297600Y-6248400D01*
X46024800Y-9804400D02*
X44297600Y-9804400D01*
X44297600Y-9804400D02*
X44297600Y-6248400D01*
X46024800Y-9804400D02*
X46024800Y-6248400D01*
D12*
G36*
X45364400Y-7620000D02*
G01*
X45364400Y-8432800D01*
X45008800Y-8432800D01*
X45008800Y-7620000D01*
X45364400Y-7620000D01*
G37*
X45364400Y-7620000D02*
X45364400Y-8432800D01*
X45008800Y-8432800D01*
X45008800Y-7620000D01*
X45364400Y-7620000D01*
D11*
%TO.C,R9*%
X43129200Y-12192000D02*
X41402000Y-12192000D01*
X43129200Y-15748000D02*
X41402000Y-15748000D01*
X41402000Y-15748000D02*
X41402000Y-12192000D01*
X43129200Y-15748000D02*
X43129200Y-12192000D01*
D12*
G36*
X42468800Y-13563600D02*
G01*
X42468800Y-14376400D01*
X42113200Y-14376400D01*
X42113200Y-13563600D01*
X42468800Y-13563600D01*
G37*
X42468800Y-13563600D02*
X42468800Y-14376400D01*
X42113200Y-14376400D01*
X42113200Y-13563600D01*
X42468800Y-13563600D01*
D11*
%TO.C,R8*%
X37693600Y-12192000D02*
X35966400Y-12192000D01*
X37693600Y-15748000D02*
X35966400Y-15748000D01*
X35966400Y-15748000D02*
X35966400Y-12192000D01*
X37693600Y-15748000D02*
X37693600Y-12192000D01*
D12*
G36*
X37033200Y-13563600D02*
G01*
X37033200Y-14376400D01*
X36677600Y-14376400D01*
X36677600Y-13563600D01*
X37033200Y-13563600D01*
G37*
X37033200Y-13563600D02*
X37033200Y-14376400D01*
X36677600Y-14376400D01*
X36677600Y-13563600D01*
X37033200Y-13563600D01*
D11*
%TO.C,R7*%
X32664400Y-15544800D02*
X32664400Y-13817600D01*
X29108400Y-15544800D02*
X29108400Y-13817600D01*
X29108400Y-13817600D02*
X32664400Y-13817600D01*
X29108400Y-15544800D02*
X32664400Y-15544800D01*
D12*
G36*
X31292800Y-14884400D02*
G01*
X30480000Y-14884400D01*
X30480000Y-14528800D01*
X31292800Y-14528800D01*
X31292800Y-14884400D01*
G37*
X31292800Y-14884400D02*
X30480000Y-14884400D01*
X30480000Y-14528800D01*
X31292800Y-14528800D01*
X31292800Y-14884400D01*
D11*
%TO.C,R6*%
X14224000Y-12903200D02*
X15951200Y-12903200D01*
X14224000Y-9347200D02*
X15951200Y-9347200D01*
X15951200Y-9347200D02*
X15951200Y-12903200D01*
X14224000Y-9347200D02*
X14224000Y-12903200D01*
D12*
G36*
X14884400Y-11531600D02*
G01*
X14884400Y-10718800D01*
X15240000Y-10718800D01*
X15240000Y-11531600D01*
X14884400Y-11531600D01*
G37*
X14884400Y-11531600D02*
X14884400Y-10718800D01*
X15240000Y-10718800D01*
X15240000Y-11531600D01*
X14884400Y-11531600D01*
D11*
%TO.C,R5*%
X51511200Y-5029200D02*
X49784000Y-5029200D01*
X51511200Y-8585200D02*
X49784000Y-8585200D01*
X49784000Y-8585200D02*
X49784000Y-5029200D01*
X51511200Y-8585200D02*
X51511200Y-5029200D01*
D12*
G36*
X50850800Y-6400800D02*
G01*
X50850800Y-7213600D01*
X50495200Y-7213600D01*
X50495200Y-6400800D01*
X50850800Y-6400800D01*
G37*
X50850800Y-6400800D02*
X50850800Y-7213600D01*
X50495200Y-7213600D01*
X50495200Y-6400800D01*
X50850800Y-6400800D01*
D11*
%TO.C,R4*%
X47294800Y-8534400D02*
X49022000Y-8534400D01*
X47294800Y-4978400D02*
X49022000Y-4978400D01*
X49022000Y-4978400D02*
X49022000Y-8534400D01*
X47294800Y-4978400D02*
X47294800Y-8534400D01*
D12*
G36*
X47955200Y-7162800D02*
G01*
X47955200Y-6350000D01*
X48310800Y-6350000D01*
X48310800Y-7162800D01*
X47955200Y-7162800D01*
G37*
X47955200Y-7162800D02*
X47955200Y-6350000D01*
X48310800Y-6350000D01*
X48310800Y-7162800D01*
X47955200Y-7162800D01*
D11*
%TO.C,C11*%
X25247600Y-3860800D02*
X26974800Y-3860800D01*
X25247600Y-304800D02*
X26974800Y-304800D01*
X26974800Y-304800D02*
X26974800Y-3860800D01*
X25247600Y-304800D02*
X25247600Y-3860800D01*
X26619200Y-1930400D02*
X25603200Y-1930400D01*
X26619200Y-2235200D02*
X25603200Y-2235200D01*
X26111200Y-2235200D02*
X26111200Y-2489200D01*
X26111200Y-1676400D02*
X26111200Y-1930400D01*
%TO.C,C10*%
X27686000Y-3860800D02*
X29413200Y-3860800D01*
X27686000Y-304800D02*
X29413200Y-304800D01*
X29413200Y-304800D02*
X29413200Y-3860800D01*
X27686000Y-304800D02*
X27686000Y-3860800D01*
X29057600Y-1930400D02*
X28041600Y-1930400D01*
X29057600Y-2235200D02*
X28041600Y-2235200D01*
X28549600Y-2235200D02*
X28549600Y-2489200D01*
X28549600Y-1676400D02*
X28549600Y-1930400D01*
%TO.C,C9*%
X32715200Y-13309600D02*
X32715200Y-11582400D01*
X29159200Y-13309600D02*
X29159200Y-11582400D01*
X29159200Y-11582400D02*
X32715200Y-11582400D01*
X29159200Y-13309600D02*
X32715200Y-13309600D01*
X30784800Y-11938000D02*
X30784800Y-12954000D01*
X31089600Y-11938000D02*
X31089600Y-12954000D01*
X31089600Y-12446000D02*
X31343600Y-12446000D01*
X30530800Y-12446000D02*
X30784800Y-12446000D01*
%TO.C,C8*%
X15951200Y-5029200D02*
X14224000Y-5029200D01*
X15951200Y-8585200D02*
X14224000Y-8585200D01*
X14224000Y-8585200D02*
X14224000Y-5029200D01*
X15951200Y-8585200D02*
X15951200Y-5029200D01*
X14579600Y-6959600D02*
X15595600Y-6959600D01*
X14579600Y-6654800D02*
X15595600Y-6654800D01*
X15087600Y-6654800D02*
X15087600Y-6400800D01*
X15087600Y-7213600D02*
X15087600Y-6959600D01*
%TO.C,C7*%
X58420000Y-14528800D02*
X60147200Y-14528800D01*
X58420000Y-10972800D02*
X60147200Y-10972800D01*
X60147200Y-10972800D02*
X60147200Y-14528800D01*
X58420000Y-10972800D02*
X58420000Y-14528800D01*
X59791600Y-12598400D02*
X58775600Y-12598400D01*
X59791600Y-12903200D02*
X58775600Y-12903200D01*
X59283600Y-12903200D02*
X59283600Y-13157200D01*
X59283600Y-12344400D02*
X59283600Y-12598400D01*
%TO.C,C6*%
X37033200Y-19354800D02*
X37033200Y-17627600D01*
X33477200Y-19354800D02*
X33477200Y-17627600D01*
X33477200Y-17627600D02*
X37033200Y-17627600D01*
X33477200Y-19354800D02*
X37033200Y-19354800D01*
X35102800Y-17983200D02*
X35102800Y-18999200D01*
X35407600Y-17983200D02*
X35407600Y-18999200D01*
X35407600Y-18491200D02*
X35661600Y-18491200D01*
X34848800Y-18491200D02*
X35102800Y-18491200D01*
%TO.C,C5*%
X62280800Y-16154400D02*
X60553600Y-16154400D01*
X62280800Y-19710400D02*
X60553600Y-19710400D01*
X60553600Y-19710400D02*
X60553600Y-16154400D01*
X62280800Y-19710400D02*
X62280800Y-16154400D01*
X60909200Y-18084800D02*
X61925200Y-18084800D01*
X60909200Y-17780000D02*
X61925200Y-17780000D01*
X61417200Y-17780000D02*
X61417200Y-17526000D01*
X61417200Y-18338800D02*
X61417200Y-18084800D01*
%TO.C,C4*%
X12852400Y-17983200D02*
X12852400Y-19710400D01*
X16408400Y-17983200D02*
X16408400Y-19710400D01*
X16408400Y-19710400D02*
X12852400Y-19710400D01*
X16408400Y-17983200D02*
X12852400Y-17983200D01*
X14782800Y-19354800D02*
X14782800Y-18338800D01*
X14478000Y-19354800D02*
X14478000Y-18338800D01*
X14478000Y-18846800D02*
X14224000Y-18846800D01*
X15036800Y-18846800D02*
X14782800Y-18846800D01*
%TO.C,C2*%
X34936578Y-7963893D02*
X36157893Y-6742578D01*
X32422107Y-5449422D02*
X33643422Y-4228107D01*
X33643422Y-4228107D02*
X36157893Y-6742578D01*
X32422107Y-5449422D02*
X34936578Y-7963893D01*
X34541447Y-5629027D02*
X33823027Y-6347447D01*
X34756973Y-5844553D02*
X34038553Y-6562973D01*
X34397763Y-6203763D02*
X34577368Y-6383368D01*
X34002632Y-5808632D02*
X34182237Y-5988237D01*
%TO.C,C1*%
X34125893Y-8751422D02*
X32904578Y-7530107D01*
X31611422Y-11265893D02*
X30390107Y-10044578D01*
X30390107Y-10044578D02*
X32904578Y-7530107D01*
X31611422Y-11265893D02*
X34125893Y-8751422D01*
X31791027Y-9146553D02*
X32509447Y-9864973D01*
X32006553Y-8931027D02*
X32724973Y-9649447D01*
X32365763Y-9290237D02*
X32545368Y-9110632D01*
X31970632Y-9685368D02*
X32150237Y-9505763D01*
%TO.C,SW3*%
X3657600Y-1270000D02*
X2641600Y-1270000D01*
X2133600Y-2159000D02*
X2133600Y-1778000D01*
X4165600Y-2159000D02*
X4165600Y-1778000D01*
X2641600Y-2667000D02*
X3657600Y-2667000D01*
X6146800Y-3644900D02*
X152400Y-3644900D01*
X152400Y-3644900D02*
X152400Y-292100D01*
X152400Y-292100D02*
X6146800Y-292100D01*
X6146800Y-292100D02*
X6146800Y-3644900D01*
X2133600Y-1778000D02*
G75*
G02*
X2641600Y-1270000I508000J0D01*
G01*
X3657600Y-1270000D02*
G75*
G02*
X4165600Y-1778000I0J-508000D01*
G01*
X4165600Y-2159000D02*
G75*
G02*
X3657600Y-2667000I-508000J0D01*
G01*
X2641600Y-2667000D02*
G75*
G02*
X2133600Y-2159000I0J508000D01*
G01*
%TO.C,SW2*%
X11226800Y-1282700D02*
X10210800Y-1282700D01*
X9702800Y-2171700D02*
X9702800Y-1790700D01*
X11734800Y-2171700D02*
X11734800Y-1790700D01*
X10210800Y-2679700D02*
X11226800Y-2679700D01*
X13716000Y-3657600D02*
X7721600Y-3657600D01*
X7721600Y-3657600D02*
X7721600Y-304800D01*
X7721600Y-304800D02*
X13716000Y-304800D01*
X13716000Y-304800D02*
X13716000Y-3657600D01*
X9702800Y-1790700D02*
G75*
G02*
X10210800Y-1282700I508000J0D01*
G01*
X11226800Y-1282700D02*
G75*
G02*
X11734800Y-1790700I0J-508000D01*
G01*
X11734800Y-2171700D02*
G75*
G02*
X11226800Y-2679700I-508000J0D01*
G01*
X10210800Y-2679700D02*
G75*
G02*
X9702800Y-2171700I0J508000D01*
G01*
%TO.C,SW1*%
X18745200Y-1282700D02*
X17729200Y-1282700D01*
X17221200Y-2171700D02*
X17221200Y-1790700D01*
X19253200Y-2171700D02*
X19253200Y-1790700D01*
X17729200Y-2679700D02*
X18745200Y-2679700D01*
X21234400Y-3657600D02*
X15240000Y-3657600D01*
X15240000Y-3657600D02*
X15240000Y-304800D01*
X15240000Y-304800D02*
X21234400Y-304800D01*
X21234400Y-304800D02*
X21234400Y-3657600D01*
X17221200Y-1790700D02*
G75*
G02*
X17729200Y-1282700I508000J0D01*
G01*
X18745200Y-1282700D02*
G75*
G02*
X19253200Y-1790700I0J-508000D01*
G01*
X19253200Y-2171700D02*
G75*
G02*
X18745200Y-2679700I-508000J0D01*
G01*
X17729200Y-2679700D02*
G75*
G02*
X17221200Y-2171700I0J508000D01*
G01*
%TO.C,D4*%
X48971200Y-11747500D02*
X50088800Y-11747500D01*
X49530000Y-12001500D02*
X49530000Y-12141200D01*
X49530000Y-11176000D02*
X49530000Y-12001500D01*
X49530000Y-10718800D02*
X49530000Y-11176000D01*
D12*
G36*
X50038000Y-11074400D02*
G01*
X49530000Y-11747500D01*
X49022000Y-11074400D01*
X50038000Y-11074400D01*
G37*
X50038000Y-11074400D02*
X49530000Y-11747500D01*
X49022000Y-11074400D01*
X50038000Y-11074400D01*
D11*
X48704500Y-13271500D02*
X50380000Y-13258800D01*
X50380000Y-13258800D02*
X50380000Y-9601200D01*
X48704500Y-13271500D02*
X48704500Y-9588500D01*
X48704500Y-9588500D02*
X50380000Y-9601200D01*
%TO.C,D2*%
X51231800Y-1905000D02*
X50114200Y-1905000D01*
X50673000Y-1651000D02*
X50673000Y-1511300D01*
X50673000Y-2476500D02*
X50673000Y-1651000D01*
X50673000Y-2933700D02*
X50673000Y-2476500D01*
D12*
G36*
X50165000Y-2578100D02*
G01*
X50673000Y-1905000D01*
X51181000Y-2578100D01*
X50165000Y-2578100D01*
G37*
X50165000Y-2578100D02*
X50673000Y-1905000D01*
X51181000Y-2578100D01*
X50165000Y-2578100D01*
D11*
X51498500Y-381000D02*
X49823000Y-393700D01*
X49823000Y-393700D02*
X49823000Y-4051300D01*
X51498500Y-381000D02*
X51498500Y-4064000D01*
X51498500Y-4064000D02*
X49823000Y-4051300D01*
D10*
%TO.C,D5*%
X46783400Y-1117600D02*
X46772400Y-5689600D01*
X46783400Y-5689600D02*
X44983400Y-5689600D01*
X44983400Y-5689600D02*
X44983400Y-1117600D01*
X44983400Y-1117600D02*
X46783400Y-1117600D01*
X45872400Y-2362200D02*
X45873080Y-2915920D01*
X45873080Y-2915920D02*
X46423080Y-2915920D01*
X45873080Y-2915920D02*
X45323080Y-2915920D01*
X45872400Y-3911600D02*
X45872400Y-4445000D01*
G36*
X45364400Y-3911600D02*
G01*
X45873080Y-2915920D01*
X46380400Y-3911600D01*
X45364400Y-3911600D01*
G37*
X45364400Y-3911600D02*
X45873080Y-2915920D01*
X46380400Y-3911600D01*
X45364400Y-3911600D01*
D11*
%TO.C,J5*%
X44067000Y-2984500D02*
X44321000Y-2984500D01*
X44321000Y-4953000D02*
X44321000Y-4508500D01*
X41781000Y-4953000D02*
X44321000Y-4953000D01*
X36066000Y-4953000D02*
X38542500Y-4953000D01*
X36068500Y-4598000D02*
X36066000Y-4953000D01*
X41518500Y-5011000D02*
X41918500Y-5461000D01*
X41918500Y-5461000D02*
X41118500Y-5461000D01*
X41118500Y-5461000D02*
X41518500Y-5011000D01*
X36368500Y-248000D02*
X36368500Y-3048000D01*
X36368500Y-3048000D02*
X36068500Y-3048000D01*
X36068500Y-3048000D02*
X36068500Y-4598000D01*
X44068500Y-186000D02*
X44068500Y-2986000D01*
X44321000Y-2986000D02*
X44321000Y-4536000D01*
%TO.C,U2*%
X17768087Y-10667302D02*
X17449889Y-10985500D01*
X17449889Y-10985500D02*
X17768087Y-11303698D01*
X22237002Y-6198387D02*
X22555200Y-5880189D01*
X22555200Y-5880189D02*
X22873398Y-6198387D01*
X22873398Y-15772613D02*
X22555200Y-16090811D01*
X22555200Y-16090811D02*
X22237002Y-15772613D01*
X27342313Y-11303698D02*
X27660511Y-10985500D01*
X27660511Y-10985500D02*
X27342313Y-10667302D01*
X27342313Y-10667302D02*
X28254481Y-9755134D01*
%TO.C,J2*%
X67849000Y-18288000D02*
G75*
G03*
X67849000Y-18288000I-1555000J0D01*
G01*
X67849000Y-14788000D02*
G75*
G03*
X67849000Y-14788000I-1555000J0D01*
G01*
X68494000Y-20038000D02*
X68494000Y-13038000D01*
X63434000Y-20038000D02*
X63434000Y-13038000D01*
X70054000Y-20038000D02*
X70054000Y-13038000D01*
X63434000Y-20038000D02*
X70054000Y-20038000D01*
X63434000Y-13038000D02*
X70054000Y-13038000D01*
X65304000Y-13608000D02*
X65380000Y-13684000D01*
X67419000Y-15723000D02*
X67474000Y-15777000D01*
X65114000Y-13798000D02*
X65168000Y-13852000D01*
X67208000Y-15891000D02*
X67284000Y-15967000D01*
%TO.C,U1*%
X57613600Y-12060000D02*
X56353600Y-12060000D01*
X50793600Y-12060000D02*
X52053600Y-12060000D01*
X57613600Y-15820000D02*
X57613600Y-12060000D01*
X50793600Y-18070000D02*
X50793600Y-12060000D01*
%TO.C,J3*%
X40792400Y-15748000D02*
X38252400Y-15748000D01*
X38252400Y-15748000D02*
X38252400Y-5588000D01*
X40792400Y-15748000D02*
X40792400Y-5588000D01*
X40792400Y-5588000D02*
X38252400Y-5588000D01*
D10*
G36*
X40792400Y-15113000D02*
G01*
X40792400Y-15748000D01*
X40157400Y-15748000D01*
X40792400Y-15113000D01*
G37*
X40792400Y-15113000D02*
X40792400Y-15748000D01*
X40157400Y-15748000D01*
X40792400Y-15113000D01*
D11*
%TO.C,C3*%
X50076800Y-16357600D02*
G75*
G03*
X50076800Y-16357600I-3270000J0D01*
G01*
X46806800Y-13127600D02*
X46806800Y-19587600D01*
X46846800Y-13127600D02*
X46846800Y-19587600D01*
X46886800Y-13127600D02*
X46886800Y-19587600D01*
X46926800Y-13129600D02*
X46926800Y-19585600D01*
X46966800Y-13130600D02*
X46966800Y-19584600D01*
X47006800Y-13133600D02*
X47006800Y-19581600D01*
X47046800Y-13135600D02*
X47046800Y-15317600D01*
X47046800Y-17397600D02*
X47046800Y-19579600D01*
X47086800Y-13139600D02*
X47086800Y-15317600D01*
X47086800Y-17397600D02*
X47086800Y-19575600D01*
X47126800Y-13142600D02*
X47126800Y-15317600D01*
X47126800Y-17397600D02*
X47126800Y-19572600D01*
X47166800Y-13146600D02*
X47166800Y-15317600D01*
X47166800Y-17397600D02*
X47166800Y-19568600D01*
X47206800Y-13151600D02*
X47206800Y-15317600D01*
X47206800Y-17397600D02*
X47206800Y-19563600D01*
X47246800Y-13156600D02*
X47246800Y-15317600D01*
X47246800Y-17397600D02*
X47246800Y-19558600D01*
X47286800Y-13162600D02*
X47286800Y-15317600D01*
X47286800Y-17397600D02*
X47286800Y-19552600D01*
X47326800Y-13168600D02*
X47326800Y-15317600D01*
X47326800Y-17397600D02*
X47326800Y-19546600D01*
X47366800Y-13175600D02*
X47366800Y-15341600D01*
X47366800Y-17397600D02*
X47366800Y-19539600D01*
X47406800Y-13182600D02*
X47406800Y-15317600D01*
X47406800Y-17397600D02*
X47406800Y-19532600D01*
X47446800Y-13190600D02*
X47446800Y-15317600D01*
X47446800Y-17397600D02*
X47446800Y-19524600D01*
X47486800Y-13198600D02*
X47486800Y-15317600D01*
X47486800Y-17397600D02*
X47486800Y-19516600D01*
X47527800Y-13207600D02*
X47527800Y-15317600D01*
X47527800Y-17397600D02*
X47527800Y-19507600D01*
X47567800Y-13216600D02*
X47567800Y-15317600D01*
X47567800Y-17397600D02*
X47567800Y-19498600D01*
X47607800Y-13226600D02*
X47607800Y-15317600D01*
X47607800Y-17397600D02*
X47607800Y-19488600D01*
X47647800Y-13236600D02*
X47647800Y-15317600D01*
X47647800Y-17397600D02*
X47647800Y-19478600D01*
X47687800Y-13247600D02*
X47687800Y-15317600D01*
X47687800Y-17397600D02*
X47687800Y-19467600D01*
X47727800Y-13259600D02*
X47727800Y-15317600D01*
X47727800Y-17397600D02*
X47727800Y-19455600D01*
X47767800Y-13271600D02*
X47767800Y-15317600D01*
X47767800Y-17397600D02*
X47767800Y-19443600D01*
X47807800Y-13283600D02*
X47807800Y-15317600D01*
X47807800Y-17397600D02*
X47807800Y-19431600D01*
X47847800Y-13296600D02*
X47847800Y-15317600D01*
X47847800Y-17397600D02*
X47847800Y-19418600D01*
X47887800Y-13310600D02*
X47887800Y-15317600D01*
X47887800Y-17397600D02*
X47887800Y-19404600D01*
X47927800Y-13324600D02*
X47927800Y-15317600D01*
X47927800Y-17397600D02*
X47927800Y-19390600D01*
X47967800Y-13339600D02*
X47967800Y-15317600D01*
X47967800Y-17397600D02*
X47967800Y-19375600D01*
X48007800Y-13355600D02*
X48007800Y-15317600D01*
X48007800Y-17397600D02*
X48007800Y-19359600D01*
X48047800Y-13371600D02*
X48047800Y-15317600D01*
X48047800Y-17397600D02*
X48047800Y-19343600D01*
X48087800Y-13387600D02*
X48087800Y-15317600D01*
X48087800Y-17397600D02*
X48087800Y-19327600D01*
X48127800Y-13405600D02*
X48127800Y-15317600D01*
X48127800Y-17397600D02*
X48127800Y-19309600D01*
X48167800Y-13423600D02*
X48167800Y-15317600D01*
X48167800Y-17397600D02*
X48167800Y-19291600D01*
X48207800Y-13441600D02*
X48207800Y-15317600D01*
X48207800Y-17397600D02*
X48207800Y-19273600D01*
X48247800Y-13461600D02*
X48247800Y-15317600D01*
X48247800Y-17397600D02*
X48247800Y-19253600D01*
X48287800Y-13481600D02*
X48287800Y-15317600D01*
X48287800Y-17397600D02*
X48287800Y-19233600D01*
X48327800Y-13501600D02*
X48327800Y-15317600D01*
X48327800Y-17397600D02*
X48327800Y-19213600D01*
X48367800Y-13523600D02*
X48367800Y-15317600D01*
X48367800Y-17397600D02*
X48367800Y-19191600D01*
X48407800Y-13545600D02*
X48407800Y-15317600D01*
X48407800Y-17397600D02*
X48407800Y-19169600D01*
X48447800Y-13567600D02*
X48447800Y-15317600D01*
X48447800Y-17397600D02*
X48447800Y-19147600D01*
X48487800Y-13591600D02*
X48487800Y-15317600D01*
X48487800Y-17397600D02*
X48487800Y-19123600D01*
X48527800Y-13615600D02*
X48527800Y-15317600D01*
X48527800Y-17397600D02*
X48527800Y-19099600D01*
X48567800Y-13641600D02*
X48567800Y-15317600D01*
X48567800Y-17397600D02*
X48567800Y-19073600D01*
X48607800Y-13667600D02*
X48607800Y-15317600D01*
X48607800Y-17397600D02*
X48607800Y-19047600D01*
X48647800Y-13693600D02*
X48647800Y-15317600D01*
X48647800Y-17397600D02*
X48647800Y-19021600D01*
X48687800Y-13721600D02*
X48687800Y-15317600D01*
X48687800Y-17397600D02*
X48687800Y-18993600D01*
X48727800Y-13750600D02*
X48727800Y-15317600D01*
X48727800Y-17397600D02*
X48727800Y-18964600D01*
X48767800Y-13779600D02*
X48767800Y-15317600D01*
X48767800Y-17397600D02*
X48767800Y-18935600D01*
X48807800Y-13809600D02*
X48807800Y-15317600D01*
X48807800Y-17397600D02*
X48807800Y-18905600D01*
X48847800Y-13841600D02*
X48847800Y-15317600D01*
X48847800Y-17397600D02*
X48847800Y-18873600D01*
X48887800Y-13873600D02*
X48887800Y-15317600D01*
X48887800Y-17397600D02*
X48887800Y-18841600D01*
X48927800Y-13907600D02*
X48927800Y-15317600D01*
X48927800Y-17397600D02*
X48927800Y-18807600D01*
X48967800Y-13941600D02*
X48967800Y-15317600D01*
X48967800Y-17397600D02*
X48967800Y-18773600D01*
X49007800Y-13977600D02*
X49007800Y-15317600D01*
X49007800Y-17397600D02*
X49007800Y-18737600D01*
X49047800Y-14014600D02*
X49047800Y-15317600D01*
X49047800Y-17397600D02*
X49047800Y-18700600D01*
X49087800Y-14052600D02*
X49087800Y-15317600D01*
X49087800Y-17397600D02*
X49087800Y-18662600D01*
X49127800Y-14092600D02*
X49127800Y-18622600D01*
X49167800Y-14133600D02*
X49167800Y-18581600D01*
X49207800Y-14175600D02*
X49207800Y-18539600D01*
X49247800Y-14220600D02*
X49247800Y-18494600D01*
X49287800Y-14265600D02*
X49287800Y-18449600D01*
X49327800Y-14313600D02*
X49327800Y-18401600D01*
X49367800Y-14362600D02*
X49367800Y-18352600D01*
X49407800Y-14413600D02*
X49407800Y-18301600D01*
X49447800Y-14467600D02*
X49447800Y-18247600D01*
X49487800Y-14523600D02*
X49487800Y-18191600D01*
X49527800Y-14581600D02*
X49527800Y-18133600D01*
X49567800Y-14643600D02*
X49567800Y-18071600D01*
X49607800Y-14707600D02*
X49607800Y-18007600D01*
X49647800Y-14776600D02*
X49647800Y-17938600D01*
X49687800Y-14848600D02*
X49687800Y-17866600D01*
X49727800Y-14925600D02*
X49727800Y-17789600D01*
X49767800Y-15007600D02*
X49767800Y-17707600D01*
X49807800Y-15095600D02*
X49807800Y-17619600D01*
X49847800Y-15192600D02*
X49847800Y-17522600D01*
X49887800Y-15298600D02*
X49887800Y-17416600D01*
X49927800Y-15417600D02*
X49927800Y-17297600D01*
X49967800Y-15555600D02*
X49967800Y-17159600D01*
X50007800Y-15724600D02*
X50007800Y-16990600D01*
X50047800Y-15955600D02*
X50047800Y-16759600D01*
X43306559Y-14518600D02*
X43936559Y-14518600D01*
X43621559Y-14203600D02*
X43621559Y-14833600D01*
D13*
X48887605Y-16357600D02*
G75*
G03*
X48887605Y-16357600I-854305J0D01*
G01*
X49037323Y-16357600D02*
G75*
G03*
X49037323Y-16357600I-1004023J0D01*
G01*
D10*
X49178063Y-16357600D02*
G75*
G03*
X49178063Y-16357600I-1144763J0D01*
G01*
D13*
X49246466Y-16357600D02*
G75*
G03*
X49246466Y-16357600I-1213166J0D01*
G01*
D10*
X49007800Y-15317600D02*
X49007800Y-17310100D01*
X49007800Y-17310100D02*
X47017300Y-17310100D01*
X47017300Y-17310100D02*
X47017300Y-15341600D01*
X47017300Y-15341600D02*
X48922300Y-15341600D01*
X48922300Y-15341600D02*
X47080800Y-15341600D01*
D11*
%TO.C,BZ1*%
X12968000Y-13589000D02*
G75*
G03*
X12968000Y-13589000I-6100000J0D01*
G01*
%TO.C,R2*%
D10*
X61555333Y-3563880D02*
X61222000Y-3087690D01*
X60983904Y-3563880D02*
X60983904Y-2563880D01*
X61364857Y-2563880D01*
X61460095Y-2611500D01*
X61507714Y-2659119D01*
X61555333Y-2754357D01*
X61555333Y-2897214D01*
X61507714Y-2992452D01*
X61460095Y-3040071D01*
X61364857Y-3087690D01*
X60983904Y-3087690D01*
X61936285Y-2659119D02*
X61983904Y-2611500D01*
X62079142Y-2563880D01*
X62317238Y-2563880D01*
X62412476Y-2611500D01*
X62460095Y-2659119D01*
X62507714Y-2754357D01*
X62507714Y-2849595D01*
X62460095Y-2992452D01*
X61888666Y-3563880D01*
X62507714Y-3563880D01*
%TO.C,U3*%
X54698976Y-1593904D02*
X54698976Y-2241523D01*
X54737071Y-2317714D01*
X54775166Y-2355809D01*
X54851357Y-2393904D01*
X55003738Y-2393904D01*
X55079928Y-2355809D01*
X55118023Y-2317714D01*
X55156119Y-2241523D01*
X55156119Y-1593904D01*
X55460880Y-1593904D02*
X55956119Y-1593904D01*
X55689452Y-1898666D01*
X55803738Y-1898666D01*
X55879928Y-1936761D01*
X55918023Y-1974857D01*
X55956119Y-2051047D01*
X55956119Y-2241523D01*
X55918023Y-2317714D01*
X55879928Y-2355809D01*
X55803738Y-2393904D01*
X55575166Y-2393904D01*
X55498976Y-2355809D01*
X55460880Y-2317714D01*
%TO.C,Y1*%
X26875246Y-6466681D02*
X27211964Y-6803399D01*
X26269155Y-6331994D02*
X26875246Y-6466681D01*
X26740559Y-5860590D01*
X28053757Y-5961605D02*
X27649696Y-6365666D01*
X27851727Y-6163635D02*
X27144620Y-5456529D01*
X27178292Y-5624887D01*
X27178292Y-5759574D01*
X27144620Y-5860590D01*
%TO.C,R12*%
X30435504Y-2597085D02*
X30054552Y-2863752D01*
X30435504Y-3054228D02*
X29635504Y-3054228D01*
X29635504Y-2749466D01*
X29673600Y-2673276D01*
X29711695Y-2635180D01*
X29787885Y-2597085D01*
X29902171Y-2597085D01*
X29978361Y-2635180D01*
X30016457Y-2673276D01*
X30054552Y-2749466D01*
X30054552Y-3054228D01*
X30435504Y-1835180D02*
X30435504Y-2292323D01*
X30435504Y-2063752D02*
X29635504Y-2063752D01*
X29749790Y-2139942D01*
X29825980Y-2216133D01*
X29864076Y-2292323D01*
X29711695Y-1530419D02*
X29673600Y-1492323D01*
X29635504Y-1416133D01*
X29635504Y-1225657D01*
X29673600Y-1149466D01*
X29711695Y-1111371D01*
X29787885Y-1073276D01*
X29864076Y-1073276D01*
X29978361Y-1111371D01*
X30435504Y-1568514D01*
X30435504Y-1073276D01*
%TO.C,D7*%
X36023504Y-1555676D02*
X35223504Y-1555676D01*
X35223504Y-1365200D01*
X35261600Y-1250914D01*
X35337790Y-1174723D01*
X35413980Y-1136628D01*
X35566361Y-1098533D01*
X35680647Y-1098533D01*
X35833028Y-1136628D01*
X35909219Y-1174723D01*
X35985409Y-1250914D01*
X36023504Y-1365200D01*
X36023504Y-1555676D01*
X35223504Y-831866D02*
X35223504Y-298533D01*
X36023504Y-641390D01*
%TO.C,R15*%
X9544114Y-7677104D02*
X9277447Y-7296152D01*
X9086971Y-7677104D02*
X9086971Y-6877104D01*
X9391733Y-6877104D01*
X9467923Y-6915200D01*
X9506019Y-6953295D01*
X9544114Y-7029485D01*
X9544114Y-7143771D01*
X9506019Y-7219961D01*
X9467923Y-7258057D01*
X9391733Y-7296152D01*
X9086971Y-7296152D01*
X10306019Y-7677104D02*
X9848876Y-7677104D01*
X10077447Y-7677104D02*
X10077447Y-6877104D01*
X10001257Y-6991390D01*
X9925066Y-7067580D01*
X9848876Y-7105676D01*
X11029828Y-6877104D02*
X10648876Y-6877104D01*
X10610780Y-7258057D01*
X10648876Y-7219961D01*
X10725066Y-7181866D01*
X10915542Y-7181866D01*
X10991733Y-7219961D01*
X11029828Y-7258057D01*
X11067923Y-7334247D01*
X11067923Y-7524723D01*
X11029828Y-7600914D01*
X10991733Y-7639009D01*
X10915542Y-7677104D01*
X10725066Y-7677104D01*
X10648876Y-7639009D01*
X10610780Y-7600914D01*
%TO.C,D6*%
X3981523Y-7575504D02*
X3981523Y-6775504D01*
X4172000Y-6775504D01*
X4286285Y-6813600D01*
X4362476Y-6889790D01*
X4400571Y-6965980D01*
X4438666Y-7118361D01*
X4438666Y-7232647D01*
X4400571Y-7385028D01*
X4362476Y-7461219D01*
X4286285Y-7537409D01*
X4172000Y-7575504D01*
X3981523Y-7575504D01*
X5124380Y-6775504D02*
X4972000Y-6775504D01*
X4895809Y-6813600D01*
X4857714Y-6851695D01*
X4781523Y-6965980D01*
X4743428Y-7118361D01*
X4743428Y-7423123D01*
X4781523Y-7499314D01*
X4819619Y-7537409D01*
X4895809Y-7575504D01*
X5048190Y-7575504D01*
X5124380Y-7537409D01*
X5162476Y-7499314D01*
X5200571Y-7423123D01*
X5200571Y-7232647D01*
X5162476Y-7156457D01*
X5124380Y-7118361D01*
X5048190Y-7080266D01*
X4895809Y-7080266D01*
X4819619Y-7118361D01*
X4781523Y-7156457D01*
X4743428Y-7232647D01*
%TO.C,FB1*%
X22091657Y-2749466D02*
X22091657Y-3016133D01*
X22510704Y-3016133D02*
X21710704Y-3016133D01*
X21710704Y-2635180D01*
X22091657Y-2063752D02*
X22129752Y-1949466D01*
X22167847Y-1911371D01*
X22244038Y-1873276D01*
X22358323Y-1873276D01*
X22434514Y-1911371D01*
X22472609Y-1949466D01*
X22510704Y-2025657D01*
X22510704Y-2330419D01*
X21710704Y-2330419D01*
X21710704Y-2063752D01*
X21748800Y-1987561D01*
X21786895Y-1949466D01*
X21863085Y-1911371D01*
X21939276Y-1911371D01*
X22015466Y-1949466D01*
X22053561Y-1987561D01*
X22091657Y-2063752D01*
X22091657Y-2330419D01*
X22510704Y-1111371D02*
X22510704Y-1568514D01*
X22510704Y-1339942D02*
X21710704Y-1339942D01*
X21824990Y-1416133D01*
X21901180Y-1492323D01*
X21939276Y-1568514D01*
%TO.C,R14*%
X42005314Y-10801304D02*
X41738647Y-10420352D01*
X41548171Y-10801304D02*
X41548171Y-10001304D01*
X41852933Y-10001304D01*
X41929123Y-10039400D01*
X41967219Y-10077495D01*
X42005314Y-10153685D01*
X42005314Y-10267971D01*
X41967219Y-10344161D01*
X41929123Y-10382257D01*
X41852933Y-10420352D01*
X41548171Y-10420352D01*
X42767219Y-10801304D02*
X42310076Y-10801304D01*
X42538647Y-10801304D02*
X42538647Y-10001304D01*
X42462457Y-10115590D01*
X42386266Y-10191780D01*
X42310076Y-10229876D01*
X43452933Y-10267971D02*
X43452933Y-10801304D01*
X43262457Y-9963209D02*
X43071980Y-10534638D01*
X43567219Y-10534638D01*
%TO.C,R13*%
X45053314Y-10877504D02*
X44786647Y-10496552D01*
X44596171Y-10877504D02*
X44596171Y-10077504D01*
X44900933Y-10077504D01*
X44977123Y-10115600D01*
X45015219Y-10153695D01*
X45053314Y-10229885D01*
X45053314Y-10344171D01*
X45015219Y-10420361D01*
X44977123Y-10458457D01*
X44900933Y-10496552D01*
X44596171Y-10496552D01*
X45815219Y-10877504D02*
X45358076Y-10877504D01*
X45586647Y-10877504D02*
X45586647Y-10077504D01*
X45510457Y-10191790D01*
X45434266Y-10267980D01*
X45358076Y-10306076D01*
X46081885Y-10077504D02*
X46577123Y-10077504D01*
X46310457Y-10382266D01*
X46424742Y-10382266D01*
X46500933Y-10420361D01*
X46539028Y-10458457D01*
X46577123Y-10534647D01*
X46577123Y-10725123D01*
X46539028Y-10801314D01*
X46500933Y-10839409D01*
X46424742Y-10877504D01*
X46196171Y-10877504D01*
X46119980Y-10839409D01*
X46081885Y-10801314D01*
%TO.C,R9*%
X42132266Y-11995104D02*
X41865600Y-11614152D01*
X41675123Y-11995104D02*
X41675123Y-11195104D01*
X41979885Y-11195104D01*
X42056076Y-11233200D01*
X42094171Y-11271295D01*
X42132266Y-11347485D01*
X42132266Y-11461771D01*
X42094171Y-11537961D01*
X42056076Y-11576057D01*
X41979885Y-11614152D01*
X41675123Y-11614152D01*
X42513219Y-11995104D02*
X42665600Y-11995104D01*
X42741790Y-11957009D01*
X42779885Y-11918914D01*
X42856076Y-11804628D01*
X42894171Y-11652247D01*
X42894171Y-11347485D01*
X42856076Y-11271295D01*
X42817980Y-11233200D01*
X42741790Y-11195104D01*
X42589409Y-11195104D01*
X42513219Y-11233200D01*
X42475123Y-11271295D01*
X42437028Y-11347485D01*
X42437028Y-11537961D01*
X42475123Y-11614152D01*
X42513219Y-11652247D01*
X42589409Y-11690342D01*
X42741790Y-11690342D01*
X42817980Y-11652247D01*
X42856076Y-11614152D01*
X42894171Y-11537961D01*
%TO.C,R8*%
X36645866Y-11944304D02*
X36379200Y-11563352D01*
X36188723Y-11944304D02*
X36188723Y-11144304D01*
X36493485Y-11144304D01*
X36569676Y-11182400D01*
X36607771Y-11220495D01*
X36645866Y-11296685D01*
X36645866Y-11410971D01*
X36607771Y-11487161D01*
X36569676Y-11525257D01*
X36493485Y-11563352D01*
X36188723Y-11563352D01*
X37103009Y-11487161D02*
X37026819Y-11449066D01*
X36988723Y-11410971D01*
X36950628Y-11334780D01*
X36950628Y-11296685D01*
X36988723Y-11220495D01*
X37026819Y-11182400D01*
X37103009Y-11144304D01*
X37255390Y-11144304D01*
X37331580Y-11182400D01*
X37369676Y-11220495D01*
X37407771Y-11296685D01*
X37407771Y-11334780D01*
X37369676Y-11410971D01*
X37331580Y-11449066D01*
X37255390Y-11487161D01*
X37103009Y-11487161D01*
X37026819Y-11525257D01*
X36988723Y-11563352D01*
X36950628Y-11639542D01*
X36950628Y-11791923D01*
X36988723Y-11868114D01*
X37026819Y-11906209D01*
X37103009Y-11944304D01*
X37255390Y-11944304D01*
X37331580Y-11906209D01*
X37369676Y-11868114D01*
X37407771Y-11791923D01*
X37407771Y-11639542D01*
X37369676Y-11563352D01*
X37331580Y-11525257D01*
X37255390Y-11487161D01*
%TO.C,R7*%
X33762776Y-14814533D02*
X33381824Y-15081200D01*
X33762776Y-15271676D02*
X32962776Y-15271676D01*
X32962776Y-14966914D01*
X33000872Y-14890723D01*
X33038967Y-14852628D01*
X33115157Y-14814533D01*
X33229443Y-14814533D01*
X33305633Y-14852628D01*
X33343729Y-14890723D01*
X33381824Y-14966914D01*
X33381824Y-15271676D01*
X32962776Y-14547866D02*
X32962776Y-14014533D01*
X33762776Y-14357390D01*
%TO.C,R6*%
X13976304Y-11258533D02*
X13595352Y-11525200D01*
X13976304Y-11715676D02*
X13176304Y-11715676D01*
X13176304Y-11410914D01*
X13214400Y-11334723D01*
X13252495Y-11296628D01*
X13328685Y-11258533D01*
X13442971Y-11258533D01*
X13519161Y-11296628D01*
X13557257Y-11334723D01*
X13595352Y-11410914D01*
X13595352Y-11715676D01*
X13176304Y-10572819D02*
X13176304Y-10725200D01*
X13214400Y-10801390D01*
X13252495Y-10839485D01*
X13366780Y-10915676D01*
X13519161Y-10953771D01*
X13823923Y-10953771D01*
X13900114Y-10915676D01*
X13938209Y-10877580D01*
X13976304Y-10801390D01*
X13976304Y-10649009D01*
X13938209Y-10572819D01*
X13900114Y-10534723D01*
X13823923Y-10496628D01*
X13633447Y-10496628D01*
X13557257Y-10534723D01*
X13519161Y-10572819D01*
X13481066Y-10649009D01*
X13481066Y-10801390D01*
X13519161Y-10877580D01*
X13557257Y-10915676D01*
X13633447Y-10953771D01*
%TO.C,R5*%
X51047666Y-9569404D02*
X50781000Y-9188452D01*
X50590523Y-9569404D02*
X50590523Y-8769404D01*
X50895285Y-8769404D01*
X50971476Y-8807500D01*
X51009571Y-8845595D01*
X51047666Y-8921785D01*
X51047666Y-9036071D01*
X51009571Y-9112261D01*
X50971476Y-9150357D01*
X50895285Y-9188452D01*
X50590523Y-9188452D01*
X51771476Y-8769404D02*
X51390523Y-8769404D01*
X51352428Y-9150357D01*
X51390523Y-9112261D01*
X51466714Y-9074166D01*
X51657190Y-9074166D01*
X51733380Y-9112261D01*
X51771476Y-9150357D01*
X51809571Y-9226547D01*
X51809571Y-9417023D01*
X51771476Y-9493214D01*
X51733380Y-9531309D01*
X51657190Y-9569404D01*
X51466714Y-9569404D01*
X51390523Y-9531309D01*
X51352428Y-9493214D01*
%TO.C,R4*%
X47745666Y-9569404D02*
X47479000Y-9188452D01*
X47288523Y-9569404D02*
X47288523Y-8769404D01*
X47593285Y-8769404D01*
X47669476Y-8807500D01*
X47707571Y-8845595D01*
X47745666Y-8921785D01*
X47745666Y-9036071D01*
X47707571Y-9112261D01*
X47669476Y-9150357D01*
X47593285Y-9188452D01*
X47288523Y-9188452D01*
X48431380Y-9036071D02*
X48431380Y-9569404D01*
X48240904Y-8731309D02*
X48050428Y-9302738D01*
X48545666Y-9302738D01*
%TO.C,C11*%
X25495314Y-4756114D02*
X25457219Y-4794209D01*
X25342933Y-4832304D01*
X25266742Y-4832304D01*
X25152457Y-4794209D01*
X25076266Y-4718019D01*
X25038171Y-4641828D01*
X25000076Y-4489447D01*
X25000076Y-4375161D01*
X25038171Y-4222780D01*
X25076266Y-4146590D01*
X25152457Y-4070400D01*
X25266742Y-4032304D01*
X25342933Y-4032304D01*
X25457219Y-4070400D01*
X25495314Y-4108495D01*
X26257219Y-4832304D02*
X25800076Y-4832304D01*
X26028647Y-4832304D02*
X26028647Y-4032304D01*
X25952457Y-4146590D01*
X25876266Y-4222780D01*
X25800076Y-4260876D01*
X27019123Y-4832304D02*
X26561980Y-4832304D01*
X26790552Y-4832304D02*
X26790552Y-4032304D01*
X26714361Y-4146590D01*
X26638171Y-4222780D01*
X26561980Y-4260876D01*
%TO.C,C10*%
X27882914Y-4756114D02*
X27844819Y-4794209D01*
X27730533Y-4832304D01*
X27654342Y-4832304D01*
X27540057Y-4794209D01*
X27463866Y-4718019D01*
X27425771Y-4641828D01*
X27387676Y-4489447D01*
X27387676Y-4375161D01*
X27425771Y-4222780D01*
X27463866Y-4146590D01*
X27540057Y-4070400D01*
X27654342Y-4032304D01*
X27730533Y-4032304D01*
X27844819Y-4070400D01*
X27882914Y-4108495D01*
X28644819Y-4832304D02*
X28187676Y-4832304D01*
X28416247Y-4832304D02*
X28416247Y-4032304D01*
X28340057Y-4146590D01*
X28263866Y-4222780D01*
X28187676Y-4260876D01*
X29140057Y-4032304D02*
X29216247Y-4032304D01*
X29292438Y-4070400D01*
X29330533Y-4108495D01*
X29368628Y-4184685D01*
X29406723Y-4337066D01*
X29406723Y-4527542D01*
X29368628Y-4679923D01*
X29330533Y-4756114D01*
X29292438Y-4794209D01*
X29216247Y-4832304D01*
X29140057Y-4832304D01*
X29063866Y-4794209D01*
X29025771Y-4756114D01*
X28987676Y-4679923D01*
X28949580Y-4527542D01*
X28949580Y-4337066D01*
X28987676Y-4184685D01*
X29025771Y-4108495D01*
X29063866Y-4070400D01*
X29140057Y-4032304D01*
%TO.C,C9*%
X33647583Y-12669136D02*
X33685678Y-12707231D01*
X33723773Y-12821517D01*
X33723773Y-12897707D01*
X33685678Y-13011993D01*
X33609488Y-13088183D01*
X33533297Y-13126279D01*
X33380916Y-13164374D01*
X33266630Y-13164374D01*
X33114249Y-13126279D01*
X33038059Y-13088183D01*
X32961869Y-13011993D01*
X32923773Y-12897707D01*
X32923773Y-12821517D01*
X32961869Y-12707231D01*
X32999964Y-12669136D01*
X33723773Y-12288183D02*
X33723773Y-12135803D01*
X33685678Y-12059612D01*
X33647583Y-12021517D01*
X33533297Y-11945326D01*
X33380916Y-11907231D01*
X33076154Y-11907231D01*
X32999964Y-11945326D01*
X32961869Y-11983422D01*
X32923773Y-12059612D01*
X32923773Y-12211993D01*
X32961869Y-12288183D01*
X32999964Y-12326279D01*
X33076154Y-12364374D01*
X33266630Y-12364374D01*
X33342821Y-12326279D01*
X33380916Y-12288183D01*
X33419011Y-12211993D01*
X33419011Y-12059612D01*
X33380916Y-11983422D01*
X33342821Y-11945326D01*
X33266630Y-11907231D01*
%TO.C,C8*%
X13963614Y-7740633D02*
X14001709Y-7778728D01*
X14039804Y-7893014D01*
X14039804Y-7969204D01*
X14001709Y-8083490D01*
X13925519Y-8159680D01*
X13849328Y-8197776D01*
X13696947Y-8235871D01*
X13582661Y-8235871D01*
X13430280Y-8197776D01*
X13354090Y-8159680D01*
X13277900Y-8083490D01*
X13239804Y-7969204D01*
X13239804Y-7893014D01*
X13277900Y-7778728D01*
X13315995Y-7740633D01*
X13582661Y-7283490D02*
X13544566Y-7359680D01*
X13506471Y-7397776D01*
X13430280Y-7435871D01*
X13392185Y-7435871D01*
X13315995Y-7397776D01*
X13277900Y-7359680D01*
X13239804Y-7283490D01*
X13239804Y-7131109D01*
X13277900Y-7054919D01*
X13315995Y-7016823D01*
X13392185Y-6978728D01*
X13430280Y-6978728D01*
X13506471Y-7016823D01*
X13544566Y-7054919D01*
X13582661Y-7131109D01*
X13582661Y-7283490D01*
X13620757Y-7359680D01*
X13658852Y-7397776D01*
X13735042Y-7435871D01*
X13887423Y-7435871D01*
X13963614Y-7397776D01*
X14001709Y-7359680D01*
X14039804Y-7283490D01*
X14039804Y-7131109D01*
X14001709Y-7054919D01*
X13963614Y-7016823D01*
X13887423Y-6978728D01*
X13735042Y-6978728D01*
X13658852Y-7016823D01*
X13620757Y-7054919D01*
X13582661Y-7131109D01*
%TO.C,C7*%
X61194914Y-12223733D02*
X61233009Y-12261828D01*
X61271104Y-12376114D01*
X61271104Y-12452304D01*
X61233009Y-12566590D01*
X61156819Y-12642780D01*
X61080628Y-12680876D01*
X60928247Y-12718971D01*
X60813961Y-12718971D01*
X60661580Y-12680876D01*
X60585390Y-12642780D01*
X60509200Y-12566590D01*
X60471104Y-12452304D01*
X60471104Y-12376114D01*
X60509200Y-12261828D01*
X60547295Y-12223733D01*
X60471104Y-11957066D02*
X60471104Y-11423733D01*
X61271104Y-11766590D01*
%TO.C,C6*%
X35121866Y-17303714D02*
X35083771Y-17341809D01*
X34969485Y-17379904D01*
X34893295Y-17379904D01*
X34779009Y-17341809D01*
X34702819Y-17265619D01*
X34664723Y-17189428D01*
X34626628Y-17037047D01*
X34626628Y-16922761D01*
X34664723Y-16770380D01*
X34702819Y-16694190D01*
X34779009Y-16618000D01*
X34893295Y-16579904D01*
X34969485Y-16579904D01*
X35083771Y-16618000D01*
X35121866Y-16656095D01*
X35807580Y-16579904D02*
X35655200Y-16579904D01*
X35579009Y-16618000D01*
X35540914Y-16656095D01*
X35464723Y-16770380D01*
X35426628Y-16922761D01*
X35426628Y-17227523D01*
X35464723Y-17303714D01*
X35502819Y-17341809D01*
X35579009Y-17379904D01*
X35731390Y-17379904D01*
X35807580Y-17341809D01*
X35845676Y-17303714D01*
X35883771Y-17227523D01*
X35883771Y-17037047D01*
X35845676Y-16960857D01*
X35807580Y-16922761D01*
X35731390Y-16884666D01*
X35579009Y-16884666D01*
X35502819Y-16922761D01*
X35464723Y-16960857D01*
X35426628Y-17037047D01*
%TO.C,C5*%
X60242414Y-18129233D02*
X60280509Y-18167328D01*
X60318604Y-18281614D01*
X60318604Y-18357804D01*
X60280509Y-18472090D01*
X60204319Y-18548280D01*
X60128128Y-18586376D01*
X59975747Y-18624471D01*
X59861461Y-18624471D01*
X59709080Y-18586376D01*
X59632890Y-18548280D01*
X59556700Y-18472090D01*
X59518604Y-18357804D01*
X59518604Y-18281614D01*
X59556700Y-18167328D01*
X59594795Y-18129233D01*
X59518604Y-17405423D02*
X59518604Y-17786376D01*
X59899557Y-17824471D01*
X59861461Y-17786376D01*
X59823366Y-17710185D01*
X59823366Y-17519709D01*
X59861461Y-17443519D01*
X59899557Y-17405423D01*
X59975747Y-17367328D01*
X60166223Y-17367328D01*
X60242414Y-17405423D01*
X60280509Y-17443519D01*
X60318604Y-17519709D01*
X60318604Y-17710185D01*
X60280509Y-17786376D01*
X60242414Y-17824471D01*
%TO.C,C4*%
X13481066Y-17608514D02*
X13442971Y-17646609D01*
X13328685Y-17684704D01*
X13252495Y-17684704D01*
X13138209Y-17646609D01*
X13062019Y-17570419D01*
X13023923Y-17494228D01*
X12985828Y-17341847D01*
X12985828Y-17227561D01*
X13023923Y-17075180D01*
X13062019Y-16998990D01*
X13138209Y-16922800D01*
X13252495Y-16884704D01*
X13328685Y-16884704D01*
X13442971Y-16922800D01*
X13481066Y-16960895D01*
X14166780Y-17151371D02*
X14166780Y-17684704D01*
X13976304Y-16846609D02*
X13785828Y-17418038D01*
X14281066Y-17418038D01*
%TO.C,C2*%
X36124949Y-8221111D02*
X36124949Y-8274986D01*
X36071074Y-8382735D01*
X36017200Y-8436610D01*
X35909450Y-8490485D01*
X35801700Y-8490485D01*
X35720888Y-8463548D01*
X35586201Y-8382735D01*
X35505389Y-8301923D01*
X35424577Y-8167236D01*
X35397639Y-8086424D01*
X35397639Y-7978674D01*
X35451514Y-7870925D01*
X35505389Y-7817050D01*
X35613138Y-7763175D01*
X35667013Y-7763175D01*
X35882512Y-7547676D02*
X35882512Y-7493801D01*
X35909450Y-7412989D01*
X36044137Y-7278302D01*
X36124949Y-7251364D01*
X36178824Y-7251364D01*
X36259636Y-7278302D01*
X36313511Y-7332177D01*
X36367386Y-7439926D01*
X36367386Y-8086424D01*
X36717572Y-7736238D01*
%TO.C,C1*%
X34092949Y-10049911D02*
X34092949Y-10103786D01*
X34039074Y-10211535D01*
X33985200Y-10265410D01*
X33877450Y-10319285D01*
X33769700Y-10319285D01*
X33688888Y-10292348D01*
X33554201Y-10211535D01*
X33473389Y-10130723D01*
X33392577Y-9996036D01*
X33365639Y-9915224D01*
X33365639Y-9807474D01*
X33419514Y-9699725D01*
X33473389Y-9645850D01*
X33581138Y-9591975D01*
X33635013Y-9591975D01*
X34685572Y-9565038D02*
X34362323Y-9888287D01*
X34523948Y-9726662D02*
X33958262Y-9160977D01*
X33985200Y-9295664D01*
X33985200Y-9403413D01*
X33958262Y-9484225D01*
%TO.C,D4*%
X48520304Y-12731676D02*
X47720304Y-12731676D01*
X47720304Y-12541200D01*
X47758400Y-12426914D01*
X47834590Y-12350723D01*
X47910780Y-12312628D01*
X48063161Y-12274533D01*
X48177447Y-12274533D01*
X48329828Y-12312628D01*
X48406019Y-12350723D01*
X48482209Y-12426914D01*
X48520304Y-12541200D01*
X48520304Y-12731676D01*
X47986971Y-11588819D02*
X48520304Y-11588819D01*
X47682209Y-11779295D02*
X48253638Y-11969771D01*
X48253638Y-11474533D01*
%TO.C,D2*%
X52495404Y-1669976D02*
X51695404Y-1669976D01*
X51695404Y-1479500D01*
X51733500Y-1365214D01*
X51809690Y-1289023D01*
X51885880Y-1250928D01*
X52038261Y-1212833D01*
X52152547Y-1212833D01*
X52304928Y-1250928D01*
X52381119Y-1289023D01*
X52457309Y-1365214D01*
X52495404Y-1479500D01*
X52495404Y-1669976D01*
X51771595Y-908071D02*
X51733500Y-869976D01*
X51695404Y-793785D01*
X51695404Y-603309D01*
X51733500Y-527119D01*
X51771595Y-489023D01*
X51847785Y-450928D01*
X51923976Y-450928D01*
X52038261Y-489023D01*
X52495404Y-946166D01*
X52495404Y-450928D01*
%TO.C,D5*%
X47034523Y-1187404D02*
X47034523Y-387404D01*
X47225000Y-387404D01*
X47339285Y-425500D01*
X47415476Y-501690D01*
X47453571Y-577880D01*
X47491666Y-730261D01*
X47491666Y-844547D01*
X47453571Y-996928D01*
X47415476Y-1073119D01*
X47339285Y-1149309D01*
X47225000Y-1187404D01*
X47034523Y-1187404D01*
X48215476Y-387404D02*
X47834523Y-387404D01*
X47796428Y-768357D01*
X47834523Y-730261D01*
X47910714Y-692166D01*
X48101190Y-692166D01*
X48177380Y-730261D01*
X48215476Y-768357D01*
X48253571Y-844547D01*
X48253571Y-1035023D01*
X48215476Y-1111214D01*
X48177380Y-1149309D01*
X48101190Y-1187404D01*
X47910714Y-1187404D01*
X47834523Y-1149309D01*
X47796428Y-1111214D01*
%TO.C,U2*%
X25765801Y-15273597D02*
X26338221Y-15846017D01*
X26439236Y-15879689D01*
X26506580Y-15879689D01*
X26607595Y-15846017D01*
X26742282Y-15711330D01*
X26775954Y-15610315D01*
X26775954Y-15542971D01*
X26742282Y-15441956D01*
X26169862Y-14869536D01*
X26540252Y-14633834D02*
X26540252Y-14566491D01*
X26573923Y-14465475D01*
X26742282Y-14297117D01*
X26843297Y-14263445D01*
X26910641Y-14263445D01*
X27011656Y-14297117D01*
X27079000Y-14364460D01*
X27146343Y-14499147D01*
X27146343Y-15307269D01*
X27584076Y-14869536D01*
%TO.C,U1*%
X53657576Y-18675404D02*
X53657576Y-19323023D01*
X53695671Y-19399214D01*
X53733766Y-19437309D01*
X53809957Y-19475404D01*
X53962338Y-19475404D01*
X54038528Y-19437309D01*
X54076623Y-19399214D01*
X54114719Y-19323023D01*
X54114719Y-18675404D01*
X54914719Y-19475404D02*
X54457576Y-19475404D01*
X54686147Y-19475404D02*
X54686147Y-18675404D01*
X54609957Y-18789690D01*
X54533766Y-18865880D01*
X54457576Y-18903976D01*
%TO.C,C3*%
X49904666Y-19437314D02*
X49866571Y-19475409D01*
X49752285Y-19513504D01*
X49676095Y-19513504D01*
X49561809Y-19475409D01*
X49485619Y-19399219D01*
X49447523Y-19323028D01*
X49409428Y-19170647D01*
X49409428Y-19056361D01*
X49447523Y-18903980D01*
X49485619Y-18827790D01*
X49561809Y-18751600D01*
X49676095Y-18713504D01*
X49752285Y-18713504D01*
X49866571Y-18751600D01*
X49904666Y-18789695D01*
X50171333Y-18713504D02*
X50666571Y-18713504D01*
X50399904Y-19018266D01*
X50514190Y-19018266D01*
X50590380Y-19056361D01*
X50628476Y-19094457D01*
X50666571Y-19170647D01*
X50666571Y-19361123D01*
X50628476Y-19437314D01*
X50590380Y-19475409D01*
X50514190Y-19513504D01*
X50285619Y-19513504D01*
X50209428Y-19475409D01*
X50171333Y-19437314D01*
%TO.C,BZ1*%
X6040547Y-13581071D02*
X6183404Y-13628690D01*
X6231023Y-13676309D01*
X6278642Y-13771547D01*
X6278642Y-13914404D01*
X6231023Y-14009642D01*
X6183404Y-14057261D01*
X6088166Y-14104880D01*
X5707214Y-14104880D01*
X5707214Y-13104880D01*
X6040547Y-13104880D01*
X6135785Y-13152500D01*
X6183404Y-13200119D01*
X6231023Y-13295357D01*
X6231023Y-13390595D01*
X6183404Y-13485833D01*
X6135785Y-13533452D01*
X6040547Y-13581071D01*
X5707214Y-13581071D01*
X6611976Y-13104880D02*
X7278642Y-13104880D01*
X6611976Y-14104880D01*
X7278642Y-14104880D01*
X8183404Y-14104880D02*
X7611976Y-14104880D01*
X7897690Y-14104880D02*
X7897690Y-13104880D01*
X7802452Y-13247738D01*
X7707214Y-13342976D01*
X7611976Y-13390595D01*
X10297047Y-16200428D02*
X11058952Y-16200428D01*
X10678000Y-16581380D02*
X10678000Y-15819476D01*
%TD*%
%LPC*%
%TO.C,R2*%
G36*
G01*
X61154961Y-7114000D02*
X62416039Y-7114000D01*
G75*
G02*
X62669500Y-7367461I0J-253461D01*
G01*
X62669500Y-8178539D01*
G75*
G02*
X62416039Y-8432000I-253461J0D01*
G01*
X61154961Y-8432000D01*
G75*
G02*
X60901500Y-8178539I0J253461D01*
G01*
X60901500Y-7367461D01*
G75*
G02*
X61154961Y-7114000I253461J0D01*
G01*
G37*
G36*
G01*
X61154961Y-4014000D02*
X62416039Y-4014000D01*
G75*
G02*
X62669500Y-4267461I0J-253461D01*
G01*
X62669500Y-5078539D01*
G75*
G02*
X62416039Y-5332000I-253461J0D01*
G01*
X61154961Y-5332000D01*
G75*
G02*
X60901500Y-5078539I0J253461D01*
G01*
X60901500Y-4267461D01*
G75*
G02*
X61154961Y-4014000I253461J0D01*
G01*
G37*
%TD*%
%TO.C,U3*%
G36*
G01*
X55301000Y-6820500D02*
X55301000Y-3720500D01*
G75*
G02*
X55310000Y-3711500I9000J0D01*
G01*
X57720000Y-3711500D01*
G75*
G02*
X57729000Y-3720500I0J-9000D01*
G01*
X57729000Y-6820500D01*
G75*
G02*
X57720000Y-6829500I-9000J0D01*
G01*
X55310000Y-6829500D01*
G75*
G02*
X55301000Y-6820500I0J9000D01*
G01*
G37*
G36*
G01*
X58356000Y-3520000D02*
X58356000Y-3211000D01*
G75*
G02*
X58510500Y-3056500I154500J0D01*
G01*
X59819500Y-3056500D01*
G75*
G02*
X59974000Y-3211000I0J-154500D01*
G01*
X59974000Y-3520000D01*
G75*
G02*
X59819500Y-3674500I-154500J0D01*
G01*
X58510500Y-3674500D01*
G75*
G02*
X58356000Y-3520000I0J154500D01*
G01*
G37*
G36*
G01*
X58356000Y-4790000D02*
X58356000Y-4481000D01*
G75*
G02*
X58510500Y-4326500I154500J0D01*
G01*
X59819500Y-4326500D01*
G75*
G02*
X59974000Y-4481000I0J-154500D01*
G01*
X59974000Y-4790000D01*
G75*
G02*
X59819500Y-4944500I-154500J0D01*
G01*
X58510500Y-4944500D01*
G75*
G02*
X58356000Y-4790000I0J154500D01*
G01*
G37*
G36*
G01*
X58356000Y-6060000D02*
X58356000Y-5751000D01*
G75*
G02*
X58510500Y-5596500I154500J0D01*
G01*
X59819500Y-5596500D01*
G75*
G02*
X59974000Y-5751000I0J-154500D01*
G01*
X59974000Y-6060000D01*
G75*
G02*
X59819500Y-6214500I-154500J0D01*
G01*
X58510500Y-6214500D01*
G75*
G02*
X58356000Y-6060000I0J154500D01*
G01*
G37*
G36*
G01*
X58356000Y-7330000D02*
X58356000Y-7021000D01*
G75*
G02*
X58510500Y-6866500I154500J0D01*
G01*
X59819500Y-6866500D01*
G75*
G02*
X59974000Y-7021000I0J-154500D01*
G01*
X59974000Y-7330000D01*
G75*
G02*
X59819500Y-7484500I-154500J0D01*
G01*
X58510500Y-7484500D01*
G75*
G02*
X58356000Y-7330000I0J154500D01*
G01*
G37*
G36*
G01*
X53056000Y-7330000D02*
X53056000Y-7021000D01*
G75*
G02*
X53210500Y-6866500I154500J0D01*
G01*
X54519500Y-6866500D01*
G75*
G02*
X54674000Y-7021000I0J-154500D01*
G01*
X54674000Y-7330000D01*
G75*
G02*
X54519500Y-7484500I-154500J0D01*
G01*
X53210500Y-7484500D01*
G75*
G02*
X53056000Y-7330000I0J154500D01*
G01*
G37*
G36*
G01*
X53056000Y-6060000D02*
X53056000Y-5751000D01*
G75*
G02*
X53210500Y-5596500I154500J0D01*
G01*
X54519500Y-5596500D01*
G75*
G02*
X54674000Y-5751000I0J-154500D01*
G01*
X54674000Y-6060000D01*
G75*
G02*
X54519500Y-6214500I-154500J0D01*
G01*
X53210500Y-6214500D01*
G75*
G02*
X53056000Y-6060000I0J154500D01*
G01*
G37*
G36*
G01*
X53056000Y-4790000D02*
X53056000Y-4481000D01*
G75*
G02*
X53210500Y-4326500I154500J0D01*
G01*
X54519500Y-4326500D01*
G75*
G02*
X54674000Y-4481000I0J-154500D01*
G01*
X54674000Y-4790000D01*
G75*
G02*
X54519500Y-4944500I-154500J0D01*
G01*
X53210500Y-4944500D01*
G75*
G02*
X53056000Y-4790000I0J154500D01*
G01*
G37*
G36*
G01*
X53056000Y-3520000D02*
X53056000Y-3211000D01*
G75*
G02*
X53210500Y-3056500I154500J0D01*
G01*
X54519500Y-3056500D01*
G75*
G02*
X54674000Y-3211000I0J-154500D01*
G01*
X54674000Y-3520000D01*
G75*
G02*
X54519500Y-3674500I-154500J0D01*
G01*
X53210500Y-3674500D01*
G75*
G02*
X53056000Y-3520000I0J154500D01*
G01*
G37*
%TD*%
D14*
%TO.C,J1*%
X66294000Y-2215000D03*
X66294000Y-5715000D03*
%TD*%
%TO.C,Y1*%
G36*
G01*
X27988920Y-7928206D02*
X27487581Y-7426867D01*
G75*
G02*
X27487581Y-6925529I250669J250669D01*
G01*
X28271762Y-6141348D01*
G75*
G02*
X28773100Y-6141348I250669J-250669D01*
G01*
X29274439Y-6642687D01*
G75*
G02*
X29274439Y-7144025I-250669J-250669D01*
G01*
X28490258Y-7928206D01*
G75*
G02*
X27988920Y-7928206I-250669J250669D01*
G01*
G37*
G36*
G01*
X29756687Y-6160439D02*
X29255348Y-5659100D01*
G75*
G02*
X29255348Y-5157762I250669J250669D01*
G01*
X30039529Y-4373581D01*
G75*
G02*
X30540867Y-4373581I250669J-250669D01*
G01*
X31042206Y-4874920D01*
G75*
G02*
X31042206Y-5376258I-250669J-250669D01*
G01*
X30258025Y-6160439D01*
G75*
G02*
X29756687Y-6160439I-250669J250669D01*
G01*
G37*
G36*
G01*
X31170900Y-7574652D02*
X30669561Y-7073313D01*
G75*
G02*
X30669561Y-6571975I250669J250669D01*
G01*
X31453742Y-5787794D01*
G75*
G02*
X31955080Y-5787794I250669J-250669D01*
G01*
X32456419Y-6289133D01*
G75*
G02*
X32456419Y-6790471I-250669J-250669D01*
G01*
X31672238Y-7574652D01*
G75*
G02*
X31170900Y-7574652I-250669J250669D01*
G01*
G37*
G36*
G01*
X29403133Y-9342419D02*
X28901794Y-8841080D01*
G75*
G02*
X28901794Y-8339742I250669J250669D01*
G01*
X29685975Y-7555561D01*
G75*
G02*
X30187313Y-7555561I250669J-250669D01*
G01*
X30688652Y-8056900D01*
G75*
G02*
X30688652Y-8558238I-250669J-250669D01*
G01*
X29904471Y-9342419D01*
G75*
G02*
X29403133Y-9342419I-250669J250669D01*
G01*
G37*
%TD*%
D15*
%TO.C,J4*%
X18542000Y-18491200D03*
X21082000Y-18491200D03*
X23622000Y-18491200D03*
X26162000Y-18491200D03*
X28702000Y-18491200D03*
D16*
X31242000Y-18491200D03*
%TD*%
%TO.C,R12*%
G36*
G01*
X31951088Y-1641800D02*
X31040912Y-1641800D01*
G75*
G02*
X30787000Y-1387888I0J253912D01*
G01*
X30787000Y-727712D01*
G75*
G02*
X31040912Y-473800I253912J0D01*
G01*
X31951088Y-473800D01*
G75*
G02*
X32205000Y-727712I0J-253912D01*
G01*
X32205000Y-1387888D01*
G75*
G02*
X31951088Y-1641800I-253912J0D01*
G01*
G37*
G36*
G01*
X31951088Y-3691800D02*
X31040912Y-3691800D01*
G75*
G02*
X30787000Y-3437888I0J253912D01*
G01*
X30787000Y-2777712D01*
G75*
G02*
X31040912Y-2523800I253912J0D01*
G01*
X31951088Y-2523800D01*
G75*
G02*
X32205000Y-2777712I0J-253912D01*
G01*
X32205000Y-3437888D01*
G75*
G02*
X31951088Y-3691800I-253912J0D01*
G01*
G37*
%TD*%
%TO.C,D7*%
G36*
G01*
X34592688Y-1641800D02*
X33682512Y-1641800D01*
G75*
G02*
X33428600Y-1387888I0J253912D01*
G01*
X33428600Y-727712D01*
G75*
G02*
X33682512Y-473800I253912J0D01*
G01*
X34592688Y-473800D01*
G75*
G02*
X34846600Y-727712I0J-253912D01*
G01*
X34846600Y-1387888D01*
G75*
G02*
X34592688Y-1641800I-253912J0D01*
G01*
G37*
G36*
G01*
X34592688Y-3691800D02*
X33682512Y-3691800D01*
G75*
G02*
X33428600Y-3437888I0J253912D01*
G01*
X33428600Y-2777712D01*
G75*
G02*
X33682512Y-2523800I253912J0D01*
G01*
X34592688Y-2523800D01*
G75*
G02*
X34846600Y-2777712I0J-253912D01*
G01*
X34846600Y-3437888D01*
G75*
G02*
X34592688Y-3691800I-253912J0D01*
G01*
G37*
%TD*%
%TO.C,R15*%
G36*
G01*
X7839400Y-5336112D02*
X7839400Y-6246288D01*
G75*
G02*
X7585488Y-6500200I-253912J0D01*
G01*
X6925312Y-6500200D01*
G75*
G02*
X6671400Y-6246288I0J253912D01*
G01*
X6671400Y-5336112D01*
G75*
G02*
X6925312Y-5082200I253912J0D01*
G01*
X7585488Y-5082200D01*
G75*
G02*
X7839400Y-5336112I0J-253912D01*
G01*
G37*
G36*
G01*
X9889400Y-5336112D02*
X9889400Y-6246288D01*
G75*
G02*
X9635488Y-6500200I-253912J0D01*
G01*
X8975312Y-6500200D01*
G75*
G02*
X8721400Y-6246288I0J253912D01*
G01*
X8721400Y-5336112D01*
G75*
G02*
X8975312Y-5082200I253912J0D01*
G01*
X9635488Y-5082200D01*
G75*
G02*
X9889400Y-5336112I0J-253912D01*
G01*
G37*
%TD*%
%TO.C,D6*%
G36*
G01*
X3844600Y-6195488D02*
X3844600Y-5285312D01*
G75*
G02*
X4098512Y-5031400I253912J0D01*
G01*
X4758688Y-5031400D01*
G75*
G02*
X5012600Y-5285312I0J-253912D01*
G01*
X5012600Y-6195488D01*
G75*
G02*
X4758688Y-6449400I-253912J0D01*
G01*
X4098512Y-6449400D01*
G75*
G02*
X3844600Y-6195488I0J253912D01*
G01*
G37*
G36*
G01*
X1794600Y-6195488D02*
X1794600Y-5285312D01*
G75*
G02*
X2048512Y-5031400I253912J0D01*
G01*
X2708688Y-5031400D01*
G75*
G02*
X2962600Y-5285312I0J-253912D01*
G01*
X2962600Y-6195488D01*
G75*
G02*
X2708688Y-6449400I-253912J0D01*
G01*
X2048512Y-6449400D01*
G75*
G02*
X1794600Y-6195488I0J253912D01*
G01*
G37*
%TD*%
D17*
%TO.C,VM1*%
X12242800Y-6096000D03*
%TD*%
%TO.C,T1*%
X16052800Y-14427200D03*
%TD*%
%TO.C,T0*%
X17983200Y-16154400D03*
%TD*%
%TO.C,MP3*%
X42367200Y-18338800D03*
%TD*%
%TO.C,MP2*%
X39624000Y-18351500D03*
%TD*%
%TO.C,IM1*%
X18186400Y-6096000D03*
%TD*%
%TO.C,FB1*%
G36*
G01*
X23166912Y-2523800D02*
X24077088Y-2523800D01*
G75*
G02*
X24331000Y-2777712I0J-253912D01*
G01*
X24331000Y-3437888D01*
G75*
G02*
X24077088Y-3691800I-253912J0D01*
G01*
X23166912Y-3691800D01*
G75*
G02*
X22913000Y-3437888I0J253912D01*
G01*
X22913000Y-2777712D01*
G75*
G02*
X23166912Y-2523800I253912J0D01*
G01*
G37*
G36*
G01*
X23166912Y-473800D02*
X24077088Y-473800D01*
G75*
G02*
X24331000Y-727712I0J-253912D01*
G01*
X24331000Y-1387888D01*
G75*
G02*
X24077088Y-1641800I-253912J0D01*
G01*
X23166912Y-1641800D01*
G75*
G02*
X22913000Y-1387888I0J253912D01*
G01*
X22913000Y-727712D01*
G75*
G02*
X23166912Y-473800I253912J0D01*
G01*
G37*
%TD*%
%TO.C,R14*%
G36*
G01*
X42974688Y-7585400D02*
X42064512Y-7585400D01*
G75*
G02*
X41810600Y-7331488I0J253912D01*
G01*
X41810600Y-6671312D01*
G75*
G02*
X42064512Y-6417400I253912J0D01*
G01*
X42974688Y-6417400D01*
G75*
G02*
X43228600Y-6671312I0J-253912D01*
G01*
X43228600Y-7331488D01*
G75*
G02*
X42974688Y-7585400I-253912J0D01*
G01*
G37*
G36*
G01*
X42974688Y-9635400D02*
X42064512Y-9635400D01*
G75*
G02*
X41810600Y-9381488I0J253912D01*
G01*
X41810600Y-8721312D01*
G75*
G02*
X42064512Y-8467400I253912J0D01*
G01*
X42974688Y-8467400D01*
G75*
G02*
X43228600Y-8721312I0J-253912D01*
G01*
X43228600Y-9381488D01*
G75*
G02*
X42974688Y-9635400I-253912J0D01*
G01*
G37*
%TD*%
%TO.C,R13*%
G36*
G01*
X45616288Y-7585400D02*
X44706112Y-7585400D01*
G75*
G02*
X44452200Y-7331488I0J253912D01*
G01*
X44452200Y-6671312D01*
G75*
G02*
X44706112Y-6417400I253912J0D01*
G01*
X45616288Y-6417400D01*
G75*
G02*
X45870200Y-6671312I0J-253912D01*
G01*
X45870200Y-7331488D01*
G75*
G02*
X45616288Y-7585400I-253912J0D01*
G01*
G37*
G36*
G01*
X45616288Y-9635400D02*
X44706112Y-9635400D01*
G75*
G02*
X44452200Y-9381488I0J253912D01*
G01*
X44452200Y-8721312D01*
G75*
G02*
X44706112Y-8467400I253912J0D01*
G01*
X45616288Y-8467400D01*
G75*
G02*
X45870200Y-8721312I0J-253912D01*
G01*
X45870200Y-9381488D01*
G75*
G02*
X45616288Y-9635400I-253912J0D01*
G01*
G37*
%TD*%
%TO.C,R9*%
G36*
G01*
X42720688Y-13529000D02*
X41810512Y-13529000D01*
G75*
G02*
X41556600Y-13275088I0J253912D01*
G01*
X41556600Y-12614912D01*
G75*
G02*
X41810512Y-12361000I253912J0D01*
G01*
X42720688Y-12361000D01*
G75*
G02*
X42974600Y-12614912I0J-253912D01*
G01*
X42974600Y-13275088D01*
G75*
G02*
X42720688Y-13529000I-253912J0D01*
G01*
G37*
G36*
G01*
X42720688Y-15579000D02*
X41810512Y-15579000D01*
G75*
G02*
X41556600Y-15325088I0J253912D01*
G01*
X41556600Y-14664912D01*
G75*
G02*
X41810512Y-14411000I253912J0D01*
G01*
X42720688Y-14411000D01*
G75*
G02*
X42974600Y-14664912I0J-253912D01*
G01*
X42974600Y-15325088D01*
G75*
G02*
X42720688Y-15579000I-253912J0D01*
G01*
G37*
%TD*%
%TO.C,R8*%
G36*
G01*
X37285088Y-13529000D02*
X36374912Y-13529000D01*
G75*
G02*
X36121000Y-13275088I0J253912D01*
G01*
X36121000Y-12614912D01*
G75*
G02*
X36374912Y-12361000I253912J0D01*
G01*
X37285088Y-12361000D01*
G75*
G02*
X37539000Y-12614912I0J-253912D01*
G01*
X37539000Y-13275088D01*
G75*
G02*
X37285088Y-13529000I-253912J0D01*
G01*
G37*
G36*
G01*
X37285088Y-15579000D02*
X36374912Y-15579000D01*
G75*
G02*
X36121000Y-15325088I0J253912D01*
G01*
X36121000Y-14664912D01*
G75*
G02*
X36374912Y-14411000I253912J0D01*
G01*
X37285088Y-14411000D01*
G75*
G02*
X37539000Y-14664912I0J-253912D01*
G01*
X37539000Y-15325088D01*
G75*
G02*
X37285088Y-15579000I-253912J0D01*
G01*
G37*
%TD*%
%TO.C,R7*%
G36*
G01*
X31327400Y-15136288D02*
X31327400Y-14226112D01*
G75*
G02*
X31581312Y-13972200I253912J0D01*
G01*
X32241488Y-13972200D01*
G75*
G02*
X32495400Y-14226112I0J-253912D01*
G01*
X32495400Y-15136288D01*
G75*
G02*
X32241488Y-15390200I-253912J0D01*
G01*
X31581312Y-15390200D01*
G75*
G02*
X31327400Y-15136288I0J253912D01*
G01*
G37*
G36*
G01*
X29277400Y-15136288D02*
X29277400Y-14226112D01*
G75*
G02*
X29531312Y-13972200I253912J0D01*
G01*
X30191488Y-13972200D01*
G75*
G02*
X30445400Y-14226112I0J-253912D01*
G01*
X30445400Y-15136288D01*
G75*
G02*
X30191488Y-15390200I-253912J0D01*
G01*
X29531312Y-15390200D01*
G75*
G02*
X29277400Y-15136288I0J253912D01*
G01*
G37*
%TD*%
%TO.C,R6*%
G36*
G01*
X14632512Y-11566200D02*
X15542688Y-11566200D01*
G75*
G02*
X15796600Y-11820112I0J-253912D01*
G01*
X15796600Y-12480288D01*
G75*
G02*
X15542688Y-12734200I-253912J0D01*
G01*
X14632512Y-12734200D01*
G75*
G02*
X14378600Y-12480288I0J253912D01*
G01*
X14378600Y-11820112D01*
G75*
G02*
X14632512Y-11566200I253912J0D01*
G01*
G37*
G36*
G01*
X14632512Y-9516200D02*
X15542688Y-9516200D01*
G75*
G02*
X15796600Y-9770112I0J-253912D01*
G01*
X15796600Y-10430288D01*
G75*
G02*
X15542688Y-10684200I-253912J0D01*
G01*
X14632512Y-10684200D01*
G75*
G02*
X14378600Y-10430288I0J253912D01*
G01*
X14378600Y-9770112D01*
G75*
G02*
X14632512Y-9516200I253912J0D01*
G01*
G37*
%TD*%
%TO.C,R5*%
G36*
G01*
X51102688Y-6366200D02*
X50192512Y-6366200D01*
G75*
G02*
X49938600Y-6112288I0J253912D01*
G01*
X49938600Y-5452112D01*
G75*
G02*
X50192512Y-5198200I253912J0D01*
G01*
X51102688Y-5198200D01*
G75*
G02*
X51356600Y-5452112I0J-253912D01*
G01*
X51356600Y-6112288D01*
G75*
G02*
X51102688Y-6366200I-253912J0D01*
G01*
G37*
G36*
G01*
X51102688Y-8416200D02*
X50192512Y-8416200D01*
G75*
G02*
X49938600Y-8162288I0J253912D01*
G01*
X49938600Y-7502112D01*
G75*
G02*
X50192512Y-7248200I253912J0D01*
G01*
X51102688Y-7248200D01*
G75*
G02*
X51356600Y-7502112I0J-253912D01*
G01*
X51356600Y-8162288D01*
G75*
G02*
X51102688Y-8416200I-253912J0D01*
G01*
G37*
%TD*%
%TO.C,R4*%
G36*
G01*
X47703312Y-7197400D02*
X48613488Y-7197400D01*
G75*
G02*
X48867400Y-7451312I0J-253912D01*
G01*
X48867400Y-8111488D01*
G75*
G02*
X48613488Y-8365400I-253912J0D01*
G01*
X47703312Y-8365400D01*
G75*
G02*
X47449400Y-8111488I0J253912D01*
G01*
X47449400Y-7451312D01*
G75*
G02*
X47703312Y-7197400I253912J0D01*
G01*
G37*
G36*
G01*
X47703312Y-5147400D02*
X48613488Y-5147400D01*
G75*
G02*
X48867400Y-5401312I0J-253912D01*
G01*
X48867400Y-6061488D01*
G75*
G02*
X48613488Y-6315400I-253912J0D01*
G01*
X47703312Y-6315400D01*
G75*
G02*
X47449400Y-6061488I0J253912D01*
G01*
X47449400Y-5401312D01*
G75*
G02*
X47703312Y-5147400I253912J0D01*
G01*
G37*
%TD*%
%TO.C,C11*%
G36*
G01*
X25656112Y-2523800D02*
X26566288Y-2523800D01*
G75*
G02*
X26820200Y-2777712I0J-253912D01*
G01*
X26820200Y-3437888D01*
G75*
G02*
X26566288Y-3691800I-253912J0D01*
G01*
X25656112Y-3691800D01*
G75*
G02*
X25402200Y-3437888I0J253912D01*
G01*
X25402200Y-2777712D01*
G75*
G02*
X25656112Y-2523800I253912J0D01*
G01*
G37*
G36*
G01*
X25656112Y-473800D02*
X26566288Y-473800D01*
G75*
G02*
X26820200Y-727712I0J-253912D01*
G01*
X26820200Y-1387888D01*
G75*
G02*
X26566288Y-1641800I-253912J0D01*
G01*
X25656112Y-1641800D01*
G75*
G02*
X25402200Y-1387888I0J253912D01*
G01*
X25402200Y-727712D01*
G75*
G02*
X25656112Y-473800I253912J0D01*
G01*
G37*
%TD*%
%TO.C,C10*%
G36*
G01*
X28094512Y-2523800D02*
X29004688Y-2523800D01*
G75*
G02*
X29258600Y-2777712I0J-253912D01*
G01*
X29258600Y-3437888D01*
G75*
G02*
X29004688Y-3691800I-253912J0D01*
G01*
X28094512Y-3691800D01*
G75*
G02*
X27840600Y-3437888I0J253912D01*
G01*
X27840600Y-2777712D01*
G75*
G02*
X28094512Y-2523800I253912J0D01*
G01*
G37*
G36*
G01*
X28094512Y-473800D02*
X29004688Y-473800D01*
G75*
G02*
X29258600Y-727712I0J-253912D01*
G01*
X29258600Y-1387888D01*
G75*
G02*
X29004688Y-1641800I-253912J0D01*
G01*
X28094512Y-1641800D01*
G75*
G02*
X27840600Y-1387888I0J253912D01*
G01*
X27840600Y-727712D01*
G75*
G02*
X28094512Y-473800I253912J0D01*
G01*
G37*
%TD*%
%TO.C,C9*%
G36*
G01*
X31378200Y-12901088D02*
X31378200Y-11990912D01*
G75*
G02*
X31632112Y-11737000I253912J0D01*
G01*
X32292288Y-11737000D01*
G75*
G02*
X32546200Y-11990912I0J-253912D01*
G01*
X32546200Y-12901088D01*
G75*
G02*
X32292288Y-13155000I-253912J0D01*
G01*
X31632112Y-13155000D01*
G75*
G02*
X31378200Y-12901088I0J253912D01*
G01*
G37*
G36*
G01*
X29328200Y-12901088D02*
X29328200Y-11990912D01*
G75*
G02*
X29582112Y-11737000I253912J0D01*
G01*
X30242288Y-11737000D01*
G75*
G02*
X30496200Y-11990912I0J-253912D01*
G01*
X30496200Y-12901088D01*
G75*
G02*
X30242288Y-13155000I-253912J0D01*
G01*
X29582112Y-13155000D01*
G75*
G02*
X29328200Y-12901088I0J253912D01*
G01*
G37*
%TD*%
%TO.C,C8*%
G36*
G01*
X15542688Y-6366200D02*
X14632512Y-6366200D01*
G75*
G02*
X14378600Y-6112288I0J253912D01*
G01*
X14378600Y-5452112D01*
G75*
G02*
X14632512Y-5198200I253912J0D01*
G01*
X15542688Y-5198200D01*
G75*
G02*
X15796600Y-5452112I0J-253912D01*
G01*
X15796600Y-6112288D01*
G75*
G02*
X15542688Y-6366200I-253912J0D01*
G01*
G37*
G36*
G01*
X15542688Y-8416200D02*
X14632512Y-8416200D01*
G75*
G02*
X14378600Y-8162288I0J253912D01*
G01*
X14378600Y-7502112D01*
G75*
G02*
X14632512Y-7248200I253912J0D01*
G01*
X15542688Y-7248200D01*
G75*
G02*
X15796600Y-7502112I0J-253912D01*
G01*
X15796600Y-8162288D01*
G75*
G02*
X15542688Y-8416200I-253912J0D01*
G01*
G37*
%TD*%
%TO.C,C7*%
G36*
G01*
X58828512Y-13191800D02*
X59738688Y-13191800D01*
G75*
G02*
X59992600Y-13445712I0J-253912D01*
G01*
X59992600Y-14105888D01*
G75*
G02*
X59738688Y-14359800I-253912J0D01*
G01*
X58828512Y-14359800D01*
G75*
G02*
X58574600Y-14105888I0J253912D01*
G01*
X58574600Y-13445712D01*
G75*
G02*
X58828512Y-13191800I253912J0D01*
G01*
G37*
G36*
G01*
X58828512Y-11141800D02*
X59738688Y-11141800D01*
G75*
G02*
X59992600Y-11395712I0J-253912D01*
G01*
X59992600Y-12055888D01*
G75*
G02*
X59738688Y-12309800I-253912J0D01*
G01*
X58828512Y-12309800D01*
G75*
G02*
X58574600Y-12055888I0J253912D01*
G01*
X58574600Y-11395712D01*
G75*
G02*
X58828512Y-11141800I253912J0D01*
G01*
G37*
%TD*%
%TO.C,C6*%
G36*
G01*
X35696200Y-18946288D02*
X35696200Y-18036112D01*
G75*
G02*
X35950112Y-17782200I253912J0D01*
G01*
X36610288Y-17782200D01*
G75*
G02*
X36864200Y-18036112I0J-253912D01*
G01*
X36864200Y-18946288D01*
G75*
G02*
X36610288Y-19200200I-253912J0D01*
G01*
X35950112Y-19200200D01*
G75*
G02*
X35696200Y-18946288I0J253912D01*
G01*
G37*
G36*
G01*
X33646200Y-18946288D02*
X33646200Y-18036112D01*
G75*
G02*
X33900112Y-17782200I253912J0D01*
G01*
X34560288Y-17782200D01*
G75*
G02*
X34814200Y-18036112I0J-253912D01*
G01*
X34814200Y-18946288D01*
G75*
G02*
X34560288Y-19200200I-253912J0D01*
G01*
X33900112Y-19200200D01*
G75*
G02*
X33646200Y-18946288I0J253912D01*
G01*
G37*
%TD*%
%TO.C,C5*%
G36*
G01*
X61872288Y-17491400D02*
X60962112Y-17491400D01*
G75*
G02*
X60708200Y-17237488I0J253912D01*
G01*
X60708200Y-16577312D01*
G75*
G02*
X60962112Y-16323400I253912J0D01*
G01*
X61872288Y-16323400D01*
G75*
G02*
X62126200Y-16577312I0J-253912D01*
G01*
X62126200Y-17237488D01*
G75*
G02*
X61872288Y-17491400I-253912J0D01*
G01*
G37*
G36*
G01*
X61872288Y-19541400D02*
X60962112Y-19541400D01*
G75*
G02*
X60708200Y-19287488I0J253912D01*
G01*
X60708200Y-18627312D01*
G75*
G02*
X60962112Y-18373400I253912J0D01*
G01*
X61872288Y-18373400D01*
G75*
G02*
X62126200Y-18627312I0J-253912D01*
G01*
X62126200Y-19287488D01*
G75*
G02*
X61872288Y-19541400I-253912J0D01*
G01*
G37*
%TD*%
%TO.C,C4*%
G36*
G01*
X14189400Y-18391712D02*
X14189400Y-19301888D01*
G75*
G02*
X13935488Y-19555800I-253912J0D01*
G01*
X13275312Y-19555800D01*
G75*
G02*
X13021400Y-19301888I0J253912D01*
G01*
X13021400Y-18391712D01*
G75*
G02*
X13275312Y-18137800I253912J0D01*
G01*
X13935488Y-18137800D01*
G75*
G02*
X14189400Y-18391712I0J-253912D01*
G01*
G37*
G36*
G01*
X16239400Y-18391712D02*
X16239400Y-19301888D01*
G75*
G02*
X15985488Y-19555800I-253912J0D01*
G01*
X15325312Y-19555800D01*
G75*
G02*
X15071400Y-19301888I0J253912D01*
G01*
X15071400Y-18391712D01*
G75*
G02*
X15325312Y-18137800I253912J0D01*
G01*
X15985488Y-18137800D01*
G75*
G02*
X16239400Y-18391712I0J-253912D01*
G01*
G37*
%TD*%
%TO.C,C2*%
G36*
G01*
X34280038Y-6729629D02*
X34923629Y-6086038D01*
G75*
G02*
X35282715Y-6086038I179543J-179543D01*
G01*
X35749530Y-6552853D01*
G75*
G02*
X35749530Y-6911939I-179543J-179543D01*
G01*
X35105939Y-7555530D01*
G75*
G02*
X34746853Y-7555530I-179543J179543D01*
G01*
X34280038Y-7088715D01*
G75*
G02*
X34280038Y-6729629I179543J179543D01*
G01*
G37*
G36*
G01*
X32830470Y-5280061D02*
X33474061Y-4636470D01*
G75*
G02*
X33833147Y-4636470I179543J-179543D01*
G01*
X34299962Y-5103285D01*
G75*
G02*
X34299962Y-5462371I-179543J-179543D01*
G01*
X33656371Y-6105962D01*
G75*
G02*
X33297285Y-6105962I-179543J179543D01*
G01*
X32830470Y-5639147D01*
G75*
G02*
X32830470Y-5280061I179543J179543D01*
G01*
G37*
%TD*%
%TO.C,C1*%
G36*
G01*
X32891629Y-9407962D02*
X32248038Y-8764371D01*
G75*
G02*
X32248038Y-8405285I179543J179543D01*
G01*
X32714853Y-7938470D01*
G75*
G02*
X33073939Y-7938470I179543J-179543D01*
G01*
X33717530Y-8582061D01*
G75*
G02*
X33717530Y-8941147I-179543J-179543D01*
G01*
X33250715Y-9407962D01*
G75*
G02*
X32891629Y-9407962I-179543J179543D01*
G01*
G37*
G36*
G01*
X31442061Y-10857530D02*
X30798470Y-10213939D01*
G75*
G02*
X30798470Y-9854853I179543J179543D01*
G01*
X31265285Y-9388038D01*
G75*
G02*
X31624371Y-9388038I179543J-179543D01*
G01*
X32267962Y-10031629D01*
G75*
G02*
X32267962Y-10390715I-179543J-179543D01*
G01*
X31801147Y-10857530D01*
G75*
G02*
X31442061Y-10857530I-179543J179543D01*
G01*
G37*
%TD*%
%TO.C,SW3*%
G36*
G01*
X2058600Y-512200D02*
X2058600Y-1224800D01*
G75*
G02*
X1905900Y-1377500I-152700J0D01*
G01*
X393300Y-1377500D01*
G75*
G02*
X240600Y-1224800I0J152700D01*
G01*
X240600Y-512200D01*
G75*
G02*
X393300Y-359500I152700J0D01*
G01*
X1905900Y-359500D01*
G75*
G02*
X2058600Y-512200I0J-152700D01*
G01*
G37*
G36*
G01*
X6058600Y-512200D02*
X6058600Y-1224800D01*
G75*
G02*
X5905900Y-1377500I-152700J0D01*
G01*
X4393300Y-1377500D01*
G75*
G02*
X4240600Y-1224800I0J152700D01*
G01*
X4240600Y-512200D01*
G75*
G02*
X4393300Y-359500I152700J0D01*
G01*
X5905900Y-359500D01*
G75*
G02*
X6058600Y-512200I0J-152700D01*
G01*
G37*
G36*
G01*
X2058600Y-2712200D02*
X2058600Y-3424800D01*
G75*
G02*
X1905900Y-3577500I-152700J0D01*
G01*
X393300Y-3577500D01*
G75*
G02*
X240600Y-3424800I0J152700D01*
G01*
X240600Y-2712200D01*
G75*
G02*
X393300Y-2559500I152700J0D01*
G01*
X1905900Y-2559500D01*
G75*
G02*
X2058600Y-2712200I0J-152700D01*
G01*
G37*
G36*
G01*
X6058600Y-2712200D02*
X6058600Y-3424800D01*
G75*
G02*
X5905900Y-3577500I-152700J0D01*
G01*
X4393300Y-3577500D01*
G75*
G02*
X4240600Y-3424800I0J152700D01*
G01*
X4240600Y-2712200D01*
G75*
G02*
X4393300Y-2559500I152700J0D01*
G01*
X5905900Y-2559500D01*
G75*
G02*
X6058600Y-2712200I0J-152700D01*
G01*
G37*
%TD*%
%TO.C,SW2*%
G36*
G01*
X9627800Y-524900D02*
X9627800Y-1237500D01*
G75*
G02*
X9475100Y-1390200I-152700J0D01*
G01*
X7962500Y-1390200D01*
G75*
G02*
X7809800Y-1237500I0J152700D01*
G01*
X7809800Y-524900D01*
G75*
G02*
X7962500Y-372200I152700J0D01*
G01*
X9475100Y-372200D01*
G75*
G02*
X9627800Y-524900I0J-152700D01*
G01*
G37*
G36*
G01*
X13627800Y-524900D02*
X13627800Y-1237500D01*
G75*
G02*
X13475100Y-1390200I-152700J0D01*
G01*
X11962500Y-1390200D01*
G75*
G02*
X11809800Y-1237500I0J152700D01*
G01*
X11809800Y-524900D01*
G75*
G02*
X11962500Y-372200I152700J0D01*
G01*
X13475100Y-372200D01*
G75*
G02*
X13627800Y-524900I0J-152700D01*
G01*
G37*
G36*
G01*
X9627800Y-2724900D02*
X9627800Y-3437500D01*
G75*
G02*
X9475100Y-3590200I-152700J0D01*
G01*
X7962500Y-3590200D01*
G75*
G02*
X7809800Y-3437500I0J152700D01*
G01*
X7809800Y-2724900D01*
G75*
G02*
X7962500Y-2572200I152700J0D01*
G01*
X9475100Y-2572200D01*
G75*
G02*
X9627800Y-2724900I0J-152700D01*
G01*
G37*
G36*
G01*
X13627800Y-2724900D02*
X13627800Y-3437500D01*
G75*
G02*
X13475100Y-3590200I-152700J0D01*
G01*
X11962500Y-3590200D01*
G75*
G02*
X11809800Y-3437500I0J152700D01*
G01*
X11809800Y-2724900D01*
G75*
G02*
X11962500Y-2572200I152700J0D01*
G01*
X13475100Y-2572200D01*
G75*
G02*
X13627800Y-2724900I0J-152700D01*
G01*
G37*
%TD*%
%TO.C,SW1*%
G36*
G01*
X17146200Y-524900D02*
X17146200Y-1237500D01*
G75*
G02*
X16993500Y-1390200I-152700J0D01*
G01*
X15480900Y-1390200D01*
G75*
G02*
X15328200Y-1237500I0J152700D01*
G01*
X15328200Y-524900D01*
G75*
G02*
X15480900Y-372200I152700J0D01*
G01*
X16993500Y-372200D01*
G75*
G02*
X17146200Y-524900I0J-152700D01*
G01*
G37*
G36*
G01*
X21146200Y-524900D02*
X21146200Y-1237500D01*
G75*
G02*
X20993500Y-1390200I-152700J0D01*
G01*
X19480900Y-1390200D01*
G75*
G02*
X19328200Y-1237500I0J152700D01*
G01*
X19328200Y-524900D01*
G75*
G02*
X19480900Y-372200I152700J0D01*
G01*
X20993500Y-372200D01*
G75*
G02*
X21146200Y-524900I0J-152700D01*
G01*
G37*
G36*
G01*
X17146200Y-2724900D02*
X17146200Y-3437500D01*
G75*
G02*
X16993500Y-3590200I-152700J0D01*
G01*
X15480900Y-3590200D01*
G75*
G02*
X15328200Y-3437500I0J152700D01*
G01*
X15328200Y-2724900D01*
G75*
G02*
X15480900Y-2572200I152700J0D01*
G01*
X16993500Y-2572200D01*
G75*
G02*
X17146200Y-2724900I0J-152700D01*
G01*
G37*
G36*
G01*
X21146200Y-2724900D02*
X21146200Y-3437500D01*
G75*
G02*
X20993500Y-3590200I-152700J0D01*
G01*
X19480900Y-3590200D01*
G75*
G02*
X19328200Y-3437500I0J152700D01*
G01*
X19328200Y-2724900D01*
G75*
G02*
X19480900Y-2572200I152700J0D01*
G01*
X20993500Y-2572200D01*
G75*
G02*
X21146200Y-2724900I0J-152700D01*
G01*
G37*
%TD*%
%TO.C,D4*%
G36*
G01*
X50030000Y-10689000D02*
X49030000Y-10689000D01*
G75*
G02*
X49021000Y-10680000I0J9000D01*
G01*
X49021000Y-9680000D01*
G75*
G02*
X49030000Y-9671000I9000J0D01*
G01*
X50030000Y-9671000D01*
G75*
G02*
X50039000Y-9680000I0J-9000D01*
G01*
X50039000Y-10680000D01*
G75*
G02*
X50030000Y-10689000I-9000J0D01*
G01*
G37*
G36*
G01*
X50030000Y-13189000D02*
X49030000Y-13189000D01*
G75*
G02*
X49021000Y-13180000I0J9000D01*
G01*
X49021000Y-12180000D01*
G75*
G02*
X49030000Y-12171000I9000J0D01*
G01*
X50030000Y-12171000D01*
G75*
G02*
X50039000Y-12180000I0J-9000D01*
G01*
X50039000Y-13180000D01*
G75*
G02*
X50030000Y-13189000I-9000J0D01*
G01*
G37*
%TD*%
%TO.C,D2*%
G36*
G01*
X50173000Y-2963500D02*
X51173000Y-2963500D01*
G75*
G02*
X51182000Y-2972500I0J-9000D01*
G01*
X51182000Y-3972500D01*
G75*
G02*
X51173000Y-3981500I-9000J0D01*
G01*
X50173000Y-3981500D01*
G75*
G02*
X50164000Y-3972500I0J9000D01*
G01*
X50164000Y-2972500D01*
G75*
G02*
X50173000Y-2963500I9000J0D01*
G01*
G37*
G36*
G01*
X50173000Y-463500D02*
X51173000Y-463500D01*
G75*
G02*
X51182000Y-472500I0J-9000D01*
G01*
X51182000Y-1472500D01*
G75*
G02*
X51173000Y-1481500I-9000J0D01*
G01*
X50173000Y-1481500D01*
G75*
G02*
X50164000Y-1472500I0J9000D01*
G01*
X50164000Y-472500D01*
G75*
G02*
X50173000Y-463500I9000J0D01*
G01*
G37*
%TD*%
%TO.C,MP1*%
X47853600Y-2184400D03*
%TD*%
%TO.C,D5*%
G36*
G01*
X45272400Y-4544600D02*
X46472400Y-4544600D01*
G75*
G02*
X46481400Y-4553600I0J-9000D01*
G01*
X46481400Y-5553600D01*
G75*
G02*
X46472400Y-5562600I-9000J0D01*
G01*
X45272400Y-5562600D01*
G75*
G02*
X45263400Y-5553600I0J9000D01*
G01*
X45263400Y-4553600D01*
G75*
G02*
X45272400Y-4544600I9000J0D01*
G01*
G37*
G36*
G01*
X45272400Y-1244600D02*
X46472400Y-1244600D01*
G75*
G02*
X46481400Y-1253600I0J-9000D01*
G01*
X46481400Y-2253600D01*
G75*
G02*
X46472400Y-2262600I-9000J0D01*
G01*
X45272400Y-2262600D01*
G75*
G02*
X45263400Y-2253600I0J9000D01*
G01*
X45263400Y-1253600D01*
G75*
G02*
X45272400Y-1244600I9000J0D01*
G01*
G37*
%TD*%
%TO.C,J5*%
G36*
G01*
X38043500Y-438000D02*
X39943500Y-438000D01*
G75*
G02*
X39952500Y-447000I0J-9000D01*
G01*
X39952500Y-2347000D01*
G75*
G02*
X39943500Y-2356000I-9000J0D01*
G01*
X38043500Y-2356000D01*
G75*
G02*
X38034500Y-2347000I0J9000D01*
G01*
X38034500Y-447000D01*
G75*
G02*
X38043500Y-438000I9000J0D01*
G01*
G37*
G36*
G01*
X40443500Y-438000D02*
X42343500Y-438000D01*
G75*
G02*
X42352500Y-447000I0J-9000D01*
G01*
X42352500Y-2347000D01*
G75*
G02*
X42343500Y-2356000I-9000J0D01*
G01*
X40443500Y-2356000D01*
G75*
G02*
X40434500Y-2347000I0J9000D01*
G01*
X40434500Y-447000D01*
G75*
G02*
X40443500Y-438000I9000J0D01*
G01*
G37*
D18*
X36893500Y-1397000D03*
X43493500Y-1397000D03*
G36*
G01*
X38693500Y-3238000D02*
X39093500Y-3238000D01*
G75*
G02*
X39102500Y-3247000I0J-9000D01*
G01*
X39102500Y-4897000D01*
G75*
G02*
X39093500Y-4906000I-9000J0D01*
G01*
X38693500Y-4906000D01*
G75*
G02*
X38684500Y-4897000I0J9000D01*
G01*
X38684500Y-3247000D01*
G75*
G02*
X38693500Y-3238000I9000J0D01*
G01*
G37*
G36*
G01*
X39343500Y-3238000D02*
X39743500Y-3238000D01*
G75*
G02*
X39752500Y-3247000I0J-9000D01*
G01*
X39752500Y-4897000D01*
G75*
G02*
X39743500Y-4906000I-9000J0D01*
G01*
X39343500Y-4906000D01*
G75*
G02*
X39334500Y-4897000I0J9000D01*
G01*
X39334500Y-3247000D01*
G75*
G02*
X39343500Y-3238000I9000J0D01*
G01*
G37*
G36*
G01*
X39993500Y-3238000D02*
X40393500Y-3238000D01*
G75*
G02*
X40402500Y-3247000I0J-9000D01*
G01*
X40402500Y-4897000D01*
G75*
G02*
X40393500Y-4906000I-9000J0D01*
G01*
X39993500Y-4906000D01*
G75*
G02*
X39984500Y-4897000I0J9000D01*
G01*
X39984500Y-3247000D01*
G75*
G02*
X39993500Y-3238000I9000J0D01*
G01*
G37*
G36*
G01*
X40643500Y-3238000D02*
X41043500Y-3238000D01*
G75*
G02*
X41052500Y-3247000I0J-9000D01*
G01*
X41052500Y-4897000D01*
G75*
G02*
X41043500Y-4906000I-9000J0D01*
G01*
X40643500Y-4906000D01*
G75*
G02*
X40634500Y-4897000I0J9000D01*
G01*
X40634500Y-3247000D01*
G75*
G02*
X40643500Y-3238000I9000J0D01*
G01*
G37*
G36*
G01*
X41293500Y-3238000D02*
X41693500Y-3238000D01*
G75*
G02*
X41702500Y-3247000I0J-9000D01*
G01*
X41702500Y-4897000D01*
G75*
G02*
X41693500Y-4906000I-9000J0D01*
G01*
X41293500Y-4906000D01*
G75*
G02*
X41284500Y-4897000I0J9000D01*
G01*
X41284500Y-3247000D01*
G75*
G02*
X41293500Y-3238000I9000J0D01*
G01*
G37*
G36*
G01*
X37802500Y-3147000D02*
X37802500Y-4547000D01*
G75*
G02*
X37793500Y-4556000I-9000J0D01*
G01*
X36193500Y-4556000D01*
G75*
G02*
X36184500Y-4547000I0J9000D01*
G01*
X36184500Y-3147000D01*
G75*
G02*
X36193500Y-3138000I9000J0D01*
G01*
X37793500Y-3138000D01*
G75*
G02*
X37802500Y-3147000I0J-9000D01*
G01*
G37*
G36*
G01*
X44202500Y-3147000D02*
X44202500Y-4547000D01*
G75*
G02*
X44193500Y-4556000I-9000J0D01*
G01*
X42593500Y-4556000D01*
G75*
G02*
X42584500Y-4547000I0J9000D01*
G01*
X42584500Y-3147000D01*
G75*
G02*
X42593500Y-3138000I9000J0D01*
G01*
X44193500Y-3138000D01*
G75*
G02*
X44202500Y-3147000I0J-9000D01*
G01*
G37*
%TD*%
%TO.C,U2*%
G36*
G01*
X27083866Y-11400218D02*
X28027146Y-12343498D01*
G75*
G02*
X28027146Y-12455928I-56215J-56215D01*
G01*
X27914716Y-12568358D01*
G75*
G02*
X27802286Y-12568358I-56215J56215D01*
G01*
X26859006Y-11625078D01*
G75*
G02*
X26859006Y-11512648I56215J56215D01*
G01*
X26971436Y-11400218D01*
G75*
G02*
X27083866Y-11400218I56215J-56215D01*
G01*
G37*
G36*
G01*
X26730312Y-11753772D02*
X27673592Y-12697052D01*
G75*
G02*
X27673592Y-12809482I-56215J-56215D01*
G01*
X27561162Y-12921912D01*
G75*
G02*
X27448732Y-12921912I-56215J56215D01*
G01*
X26505452Y-11978632D01*
G75*
G02*
X26505452Y-11866202I56215J56215D01*
G01*
X26617882Y-11753772D01*
G75*
G02*
X26730312Y-11753772I56215J-56215D01*
G01*
G37*
G36*
G01*
X26376759Y-12107325D02*
X27320039Y-13050605D01*
G75*
G02*
X27320039Y-13163035I-56215J-56215D01*
G01*
X27207609Y-13275465D01*
G75*
G02*
X27095179Y-13275465I-56215J56215D01*
G01*
X26151899Y-12332185D01*
G75*
G02*
X26151899Y-12219755I56215J56215D01*
G01*
X26264329Y-12107325D01*
G75*
G02*
X26376759Y-12107325I56215J-56215D01*
G01*
G37*
G36*
G01*
X26023205Y-12460879D02*
X26966485Y-13404159D01*
G75*
G02*
X26966485Y-13516589I-56215J-56215D01*
G01*
X26854055Y-13629019D01*
G75*
G02*
X26741625Y-13629019I-56215J56215D01*
G01*
X25798345Y-12685739D01*
G75*
G02*
X25798345Y-12573309I56215J56215D01*
G01*
X25910775Y-12460879D01*
G75*
G02*
X26023205Y-12460879I56215J-56215D01*
G01*
G37*
G36*
G01*
X25669652Y-12814432D02*
X26612932Y-13757712D01*
G75*
G02*
X26612932Y-13870142I-56215J-56215D01*
G01*
X26500502Y-13982572D01*
G75*
G02*
X26388072Y-13982572I-56215J56215D01*
G01*
X25444792Y-13039292D01*
G75*
G02*
X25444792Y-12926862I56215J56215D01*
G01*
X25557222Y-12814432D01*
G75*
G02*
X25669652Y-12814432I56215J-56215D01*
G01*
G37*
G36*
G01*
X25316099Y-13167985D02*
X26259379Y-14111265D01*
G75*
G02*
X26259379Y-14223695I-56215J-56215D01*
G01*
X26146949Y-14336125D01*
G75*
G02*
X26034519Y-14336125I-56215J56215D01*
G01*
X25091239Y-13392845D01*
G75*
G02*
X25091239Y-13280415I56215J56215D01*
G01*
X25203669Y-13167985D01*
G75*
G02*
X25316099Y-13167985I56215J-56215D01*
G01*
G37*
G36*
G01*
X24962545Y-13521539D02*
X25905825Y-14464819D01*
G75*
G02*
X25905825Y-14577249I-56215J-56215D01*
G01*
X25793395Y-14689679D01*
G75*
G02*
X25680965Y-14689679I-56215J56215D01*
G01*
X24737685Y-13746399D01*
G75*
G02*
X24737685Y-13633969I56215J56215D01*
G01*
X24850115Y-13521539D01*
G75*
G02*
X24962545Y-13521539I56215J-56215D01*
G01*
G37*
G36*
G01*
X24608992Y-13875092D02*
X25552272Y-14818372D01*
G75*
G02*
X25552272Y-14930802I-56215J-56215D01*
G01*
X25439842Y-15043232D01*
G75*
G02*
X25327412Y-15043232I-56215J56215D01*
G01*
X24384132Y-14099952D01*
G75*
G02*
X24384132Y-13987522I56215J56215D01*
G01*
X24496562Y-13875092D01*
G75*
G02*
X24608992Y-13875092I56215J-56215D01*
G01*
G37*
G36*
G01*
X24255439Y-14228645D02*
X25198719Y-15171925D01*
G75*
G02*
X25198719Y-15284355I-56215J-56215D01*
G01*
X25086289Y-15396785D01*
G75*
G02*
X24973859Y-15396785I-56215J56215D01*
G01*
X24030579Y-14453505D01*
G75*
G02*
X24030579Y-14341075I56215J56215D01*
G01*
X24143009Y-14228645D01*
G75*
G02*
X24255439Y-14228645I56215J-56215D01*
G01*
G37*
G36*
G01*
X23901885Y-14582199D02*
X24845165Y-15525479D01*
G75*
G02*
X24845165Y-15637909I-56215J-56215D01*
G01*
X24732735Y-15750339D01*
G75*
G02*
X24620305Y-15750339I-56215J56215D01*
G01*
X23677025Y-14807059D01*
G75*
G02*
X23677025Y-14694629I56215J56215D01*
G01*
X23789455Y-14582199D01*
G75*
G02*
X23901885Y-14582199I56215J-56215D01*
G01*
G37*
G36*
G01*
X23548332Y-14935752D02*
X24491612Y-15879032D01*
G75*
G02*
X24491612Y-15991462I-56215J-56215D01*
G01*
X24379182Y-16103892D01*
G75*
G02*
X24266752Y-16103892I-56215J56215D01*
G01*
X23323472Y-15160612D01*
G75*
G02*
X23323472Y-15048182I56215J56215D01*
G01*
X23435902Y-14935752D01*
G75*
G02*
X23548332Y-14935752I56215J-56215D01*
G01*
G37*
G36*
G01*
X23194778Y-15289306D02*
X24138058Y-16232586D01*
G75*
G02*
X24138058Y-16345016I-56215J-56215D01*
G01*
X24025628Y-16457446D01*
G75*
G02*
X23913198Y-16457446I-56215J56215D01*
G01*
X22969918Y-15514166D01*
G75*
G02*
X22969918Y-15401736I56215J56215D01*
G01*
X23082348Y-15289306D01*
G75*
G02*
X23194778Y-15289306I56215J-56215D01*
G01*
G37*
G36*
G01*
X22028052Y-15289306D02*
X22140482Y-15401736D01*
G75*
G02*
X22140482Y-15514166I-56215J-56215D01*
G01*
X21197202Y-16457446D01*
G75*
G02*
X21084772Y-16457446I-56215J56215D01*
G01*
X20972342Y-16345016D01*
G75*
G02*
X20972342Y-16232586I56215J56215D01*
G01*
X21915622Y-15289306D01*
G75*
G02*
X22028052Y-15289306I56215J-56215D01*
G01*
G37*
G36*
G01*
X21674498Y-14935752D02*
X21786928Y-15048182D01*
G75*
G02*
X21786928Y-15160612I-56215J-56215D01*
G01*
X20843648Y-16103892D01*
G75*
G02*
X20731218Y-16103892I-56215J56215D01*
G01*
X20618788Y-15991462D01*
G75*
G02*
X20618788Y-15879032I56215J56215D01*
G01*
X21562068Y-14935752D01*
G75*
G02*
X21674498Y-14935752I56215J-56215D01*
G01*
G37*
G36*
G01*
X21320945Y-14582199D02*
X21433375Y-14694629D01*
G75*
G02*
X21433375Y-14807059I-56215J-56215D01*
G01*
X20490095Y-15750339D01*
G75*
G02*
X20377665Y-15750339I-56215J56215D01*
G01*
X20265235Y-15637909D01*
G75*
G02*
X20265235Y-15525479I56215J56215D01*
G01*
X21208515Y-14582199D01*
G75*
G02*
X21320945Y-14582199I56215J-56215D01*
G01*
G37*
G36*
G01*
X20967391Y-14228645D02*
X21079821Y-14341075D01*
G75*
G02*
X21079821Y-14453505I-56215J-56215D01*
G01*
X20136541Y-15396785D01*
G75*
G02*
X20024111Y-15396785I-56215J56215D01*
G01*
X19911681Y-15284355D01*
G75*
G02*
X19911681Y-15171925I56215J56215D01*
G01*
X20854961Y-14228645D01*
G75*
G02*
X20967391Y-14228645I56215J-56215D01*
G01*
G37*
G36*
G01*
X20613838Y-13875092D02*
X20726268Y-13987522D01*
G75*
G02*
X20726268Y-14099952I-56215J-56215D01*
G01*
X19782988Y-15043232D01*
G75*
G02*
X19670558Y-15043232I-56215J56215D01*
G01*
X19558128Y-14930802D01*
G75*
G02*
X19558128Y-14818372I56215J56215D01*
G01*
X20501408Y-13875092D01*
G75*
G02*
X20613838Y-13875092I56215J-56215D01*
G01*
G37*
G36*
G01*
X20260285Y-13521539D02*
X20372715Y-13633969D01*
G75*
G02*
X20372715Y-13746399I-56215J-56215D01*
G01*
X19429435Y-14689679D01*
G75*
G02*
X19317005Y-14689679I-56215J56215D01*
G01*
X19204575Y-14577249D01*
G75*
G02*
X19204575Y-14464819I56215J56215D01*
G01*
X20147855Y-13521539D01*
G75*
G02*
X20260285Y-13521539I56215J-56215D01*
G01*
G37*
G36*
G01*
X19906731Y-13167985D02*
X20019161Y-13280415D01*
G75*
G02*
X20019161Y-13392845I-56215J-56215D01*
G01*
X19075881Y-14336125D01*
G75*
G02*
X18963451Y-14336125I-56215J56215D01*
G01*
X18851021Y-14223695D01*
G75*
G02*
X18851021Y-14111265I56215J56215D01*
G01*
X19794301Y-13167985D01*
G75*
G02*
X19906731Y-13167985I56215J-56215D01*
G01*
G37*
G36*
G01*
X19553178Y-12814432D02*
X19665608Y-12926862D01*
G75*
G02*
X19665608Y-13039292I-56215J-56215D01*
G01*
X18722328Y-13982572D01*
G75*
G02*
X18609898Y-13982572I-56215J56215D01*
G01*
X18497468Y-13870142D01*
G75*
G02*
X18497468Y-13757712I56215J56215D01*
G01*
X19440748Y-12814432D01*
G75*
G02*
X19553178Y-12814432I56215J-56215D01*
G01*
G37*
G36*
G01*
X19199625Y-12460879D02*
X19312055Y-12573309D01*
G75*
G02*
X19312055Y-12685739I-56215J-56215D01*
G01*
X18368775Y-13629019D01*
G75*
G02*
X18256345Y-13629019I-56215J56215D01*
G01*
X18143915Y-13516589D01*
G75*
G02*
X18143915Y-13404159I56215J56215D01*
G01*
X19087195Y-12460879D01*
G75*
G02*
X19199625Y-12460879I56215J-56215D01*
G01*
G37*
G36*
G01*
X18846071Y-12107325D02*
X18958501Y-12219755D01*
G75*
G02*
X18958501Y-12332185I-56215J-56215D01*
G01*
X18015221Y-13275465D01*
G75*
G02*
X17902791Y-13275465I-56215J56215D01*
G01*
X17790361Y-13163035D01*
G75*
G02*
X17790361Y-13050605I56215J56215D01*
G01*
X18733641Y-12107325D01*
G75*
G02*
X18846071Y-12107325I56215J-56215D01*
G01*
G37*
G36*
G01*
X18492518Y-11753772D02*
X18604948Y-11866202D01*
G75*
G02*
X18604948Y-11978632I-56215J-56215D01*
G01*
X17661668Y-12921912D01*
G75*
G02*
X17549238Y-12921912I-56215J56215D01*
G01*
X17436808Y-12809482D01*
G75*
G02*
X17436808Y-12697052I56215J56215D01*
G01*
X18380088Y-11753772D01*
G75*
G02*
X18492518Y-11753772I56215J-56215D01*
G01*
G37*
G36*
G01*
X18138964Y-11400218D02*
X18251394Y-11512648D01*
G75*
G02*
X18251394Y-11625078I-56215J-56215D01*
G01*
X17308114Y-12568358D01*
G75*
G02*
X17195684Y-12568358I-56215J56215D01*
G01*
X17083254Y-12455928D01*
G75*
G02*
X17083254Y-12343498I56215J56215D01*
G01*
X18026534Y-11400218D01*
G75*
G02*
X18138964Y-11400218I56215J-56215D01*
G01*
G37*
G36*
G01*
X17308114Y-9402642D02*
X18251394Y-10345922D01*
G75*
G02*
X18251394Y-10458352I-56215J-56215D01*
G01*
X18138964Y-10570782D01*
G75*
G02*
X18026534Y-10570782I-56215J56215D01*
G01*
X17083254Y-9627502D01*
G75*
G02*
X17083254Y-9515072I56215J56215D01*
G01*
X17195684Y-9402642D01*
G75*
G02*
X17308114Y-9402642I56215J-56215D01*
G01*
G37*
G36*
G01*
X17661668Y-9049088D02*
X18604948Y-9992368D01*
G75*
G02*
X18604948Y-10104798I-56215J-56215D01*
G01*
X18492518Y-10217228D01*
G75*
G02*
X18380088Y-10217228I-56215J56215D01*
G01*
X17436808Y-9273948D01*
G75*
G02*
X17436808Y-9161518I56215J56215D01*
G01*
X17549238Y-9049088D01*
G75*
G02*
X17661668Y-9049088I56215J-56215D01*
G01*
G37*
G36*
G01*
X18015221Y-8695535D02*
X18958501Y-9638815D01*
G75*
G02*
X18958501Y-9751245I-56215J-56215D01*
G01*
X18846071Y-9863675D01*
G75*
G02*
X18733641Y-9863675I-56215J56215D01*
G01*
X17790361Y-8920395D01*
G75*
G02*
X17790361Y-8807965I56215J56215D01*
G01*
X17902791Y-8695535D01*
G75*
G02*
X18015221Y-8695535I56215J-56215D01*
G01*
G37*
G36*
G01*
X18368775Y-8341981D02*
X19312055Y-9285261D01*
G75*
G02*
X19312055Y-9397691I-56215J-56215D01*
G01*
X19199625Y-9510121D01*
G75*
G02*
X19087195Y-9510121I-56215J56215D01*
G01*
X18143915Y-8566841D01*
G75*
G02*
X18143915Y-8454411I56215J56215D01*
G01*
X18256345Y-8341981D01*
G75*
G02*
X18368775Y-8341981I56215J-56215D01*
G01*
G37*
G36*
G01*
X18722328Y-7988428D02*
X19665608Y-8931708D01*
G75*
G02*
X19665608Y-9044138I-56215J-56215D01*
G01*
X19553178Y-9156568D01*
G75*
G02*
X19440748Y-9156568I-56215J56215D01*
G01*
X18497468Y-8213288D01*
G75*
G02*
X18497468Y-8100858I56215J56215D01*
G01*
X18609898Y-7988428D01*
G75*
G02*
X18722328Y-7988428I56215J-56215D01*
G01*
G37*
G36*
G01*
X19075881Y-7634875D02*
X20019161Y-8578155D01*
G75*
G02*
X20019161Y-8690585I-56215J-56215D01*
G01*
X19906731Y-8803015D01*
G75*
G02*
X19794301Y-8803015I-56215J56215D01*
G01*
X18851021Y-7859735D01*
G75*
G02*
X18851021Y-7747305I56215J56215D01*
G01*
X18963451Y-7634875D01*
G75*
G02*
X19075881Y-7634875I56215J-56215D01*
G01*
G37*
G36*
G01*
X19429435Y-7281321D02*
X20372715Y-8224601D01*
G75*
G02*
X20372715Y-8337031I-56215J-56215D01*
G01*
X20260285Y-8449461D01*
G75*
G02*
X20147855Y-8449461I-56215J56215D01*
G01*
X19204575Y-7506181D01*
G75*
G02*
X19204575Y-7393751I56215J56215D01*
G01*
X19317005Y-7281321D01*
G75*
G02*
X19429435Y-7281321I56215J-56215D01*
G01*
G37*
G36*
G01*
X19782988Y-6927768D02*
X20726268Y-7871048D01*
G75*
G02*
X20726268Y-7983478I-56215J-56215D01*
G01*
X20613838Y-8095908D01*
G75*
G02*
X20501408Y-8095908I-56215J56215D01*
G01*
X19558128Y-7152628D01*
G75*
G02*
X19558128Y-7040198I56215J56215D01*
G01*
X19670558Y-6927768D01*
G75*
G02*
X19782988Y-6927768I56215J-56215D01*
G01*
G37*
G36*
G01*
X20136541Y-6574215D02*
X21079821Y-7517495D01*
G75*
G02*
X21079821Y-7629925I-56215J-56215D01*
G01*
X20967391Y-7742355D01*
G75*
G02*
X20854961Y-7742355I-56215J56215D01*
G01*
X19911681Y-6799075D01*
G75*
G02*
X19911681Y-6686645I56215J56215D01*
G01*
X20024111Y-6574215D01*
G75*
G02*
X20136541Y-6574215I56215J-56215D01*
G01*
G37*
G36*
G01*
X20490095Y-6220661D02*
X21433375Y-7163941D01*
G75*
G02*
X21433375Y-7276371I-56215J-56215D01*
G01*
X21320945Y-7388801D01*
G75*
G02*
X21208515Y-7388801I-56215J56215D01*
G01*
X20265235Y-6445521D01*
G75*
G02*
X20265235Y-6333091I56215J56215D01*
G01*
X20377665Y-6220661D01*
G75*
G02*
X20490095Y-6220661I56215J-56215D01*
G01*
G37*
G36*
G01*
X20843648Y-5867108D02*
X21786928Y-6810388D01*
G75*
G02*
X21786928Y-6922818I-56215J-56215D01*
G01*
X21674498Y-7035248D01*
G75*
G02*
X21562068Y-7035248I-56215J56215D01*
G01*
X20618788Y-6091968D01*
G75*
G02*
X20618788Y-5979538I56215J56215D01*
G01*
X20731218Y-5867108D01*
G75*
G02*
X20843648Y-5867108I56215J-56215D01*
G01*
G37*
G36*
G01*
X21197202Y-5513554D02*
X22140482Y-6456834D01*
G75*
G02*
X22140482Y-6569264I-56215J-56215D01*
G01*
X22028052Y-6681694D01*
G75*
G02*
X21915622Y-6681694I-56215J56215D01*
G01*
X20972342Y-5738414D01*
G75*
G02*
X20972342Y-5625984I56215J56215D01*
G01*
X21084772Y-5513554D01*
G75*
G02*
X21197202Y-5513554I56215J-56215D01*
G01*
G37*
G36*
G01*
X24025628Y-5513554D02*
X24138058Y-5625984D01*
G75*
G02*
X24138058Y-5738414I-56215J-56215D01*
G01*
X23194778Y-6681694D01*
G75*
G02*
X23082348Y-6681694I-56215J56215D01*
G01*
X22969918Y-6569264D01*
G75*
G02*
X22969918Y-6456834I56215J56215D01*
G01*
X23913198Y-5513554D01*
G75*
G02*
X24025628Y-5513554I56215J-56215D01*
G01*
G37*
G36*
G01*
X24379182Y-5867108D02*
X24491612Y-5979538D01*
G75*
G02*
X24491612Y-6091968I-56215J-56215D01*
G01*
X23548332Y-7035248D01*
G75*
G02*
X23435902Y-7035248I-56215J56215D01*
G01*
X23323472Y-6922818D01*
G75*
G02*
X23323472Y-6810388I56215J56215D01*
G01*
X24266752Y-5867108D01*
G75*
G02*
X24379182Y-5867108I56215J-56215D01*
G01*
G37*
G36*
G01*
X24732735Y-6220661D02*
X24845165Y-6333091D01*
G75*
G02*
X24845165Y-6445521I-56215J-56215D01*
G01*
X23901885Y-7388801D01*
G75*
G02*
X23789455Y-7388801I-56215J56215D01*
G01*
X23677025Y-7276371D01*
G75*
G02*
X23677025Y-7163941I56215J56215D01*
G01*
X24620305Y-6220661D01*
G75*
G02*
X24732735Y-6220661I56215J-56215D01*
G01*
G37*
G36*
G01*
X25086289Y-6574215D02*
X25198719Y-6686645D01*
G75*
G02*
X25198719Y-6799075I-56215J-56215D01*
G01*
X24255439Y-7742355D01*
G75*
G02*
X24143009Y-7742355I-56215J56215D01*
G01*
X24030579Y-7629925D01*
G75*
G02*
X24030579Y-7517495I56215J56215D01*
G01*
X24973859Y-6574215D01*
G75*
G02*
X25086289Y-6574215I56215J-56215D01*
G01*
G37*
G36*
G01*
X25439842Y-6927768D02*
X25552272Y-7040198D01*
G75*
G02*
X25552272Y-7152628I-56215J-56215D01*
G01*
X24608992Y-8095908D01*
G75*
G02*
X24496562Y-8095908I-56215J56215D01*
G01*
X24384132Y-7983478D01*
G75*
G02*
X24384132Y-7871048I56215J56215D01*
G01*
X25327412Y-6927768D01*
G75*
G02*
X25439842Y-6927768I56215J-56215D01*
G01*
G37*
G36*
G01*
X25793395Y-7281321D02*
X25905825Y-7393751D01*
G75*
G02*
X25905825Y-7506181I-56215J-56215D01*
G01*
X24962545Y-8449461D01*
G75*
G02*
X24850115Y-8449461I-56215J56215D01*
G01*
X24737685Y-8337031D01*
G75*
G02*
X24737685Y-8224601I56215J56215D01*
G01*
X25680965Y-7281321D01*
G75*
G02*
X25793395Y-7281321I56215J-56215D01*
G01*
G37*
G36*
G01*
X26146949Y-7634875D02*
X26259379Y-7747305D01*
G75*
G02*
X26259379Y-7859735I-56215J-56215D01*
G01*
X25316099Y-8803015D01*
G75*
G02*
X25203669Y-8803015I-56215J56215D01*
G01*
X25091239Y-8690585D01*
G75*
G02*
X25091239Y-8578155I56215J56215D01*
G01*
X26034519Y-7634875D01*
G75*
G02*
X26146949Y-7634875I56215J-56215D01*
G01*
G37*
G36*
G01*
X26500502Y-7988428D02*
X26612932Y-8100858D01*
G75*
G02*
X26612932Y-8213288I-56215J-56215D01*
G01*
X25669652Y-9156568D01*
G75*
G02*
X25557222Y-9156568I-56215J56215D01*
G01*
X25444792Y-9044138D01*
G75*
G02*
X25444792Y-8931708I56215J56215D01*
G01*
X26388072Y-7988428D01*
G75*
G02*
X26500502Y-7988428I56215J-56215D01*
G01*
G37*
G36*
G01*
X26854055Y-8341981D02*
X26966485Y-8454411D01*
G75*
G02*
X26966485Y-8566841I-56215J-56215D01*
G01*
X26023205Y-9510121D01*
G75*
G02*
X25910775Y-9510121I-56215J56215D01*
G01*
X25798345Y-9397691D01*
G75*
G02*
X25798345Y-9285261I56215J56215D01*
G01*
X26741625Y-8341981D01*
G75*
G02*
X26854055Y-8341981I56215J-56215D01*
G01*
G37*
G36*
G01*
X27207609Y-8695535D02*
X27320039Y-8807965D01*
G75*
G02*
X27320039Y-8920395I-56215J-56215D01*
G01*
X26376759Y-9863675D01*
G75*
G02*
X26264329Y-9863675I-56215J56215D01*
G01*
X26151899Y-9751245D01*
G75*
G02*
X26151899Y-9638815I56215J56215D01*
G01*
X27095179Y-8695535D01*
G75*
G02*
X27207609Y-8695535I56215J-56215D01*
G01*
G37*
G36*
G01*
X27561162Y-9049088D02*
X27673592Y-9161518D01*
G75*
G02*
X27673592Y-9273948I-56215J-56215D01*
G01*
X26730312Y-10217228D01*
G75*
G02*
X26617882Y-10217228I-56215J56215D01*
G01*
X26505452Y-10104798D01*
G75*
G02*
X26505452Y-9992368I56215J56215D01*
G01*
X27448732Y-9049088D01*
G75*
G02*
X27561162Y-9049088I56215J-56215D01*
G01*
G37*
G36*
G01*
X27914716Y-9402642D02*
X28027146Y-9515072D01*
G75*
G02*
X28027146Y-9627502I-56215J-56215D01*
G01*
X27083866Y-10570782D01*
G75*
G02*
X26971436Y-10570782I-56215J56215D01*
G01*
X26859006Y-10458352D01*
G75*
G02*
X26859006Y-10345922I56215J56215D01*
G01*
X27802286Y-9402642D01*
G75*
G02*
X27914716Y-9402642I56215J-56215D01*
G01*
G37*
%TD*%
D14*
%TO.C,J2*%
X66294000Y-14788000D03*
X66294000Y-18288000D03*
%TD*%
%TO.C,U1*%
G36*
G01*
X52653600Y-18129000D02*
X51153600Y-18129000D01*
G75*
G02*
X51144600Y-18120000I0J9000D01*
G01*
X51144600Y-16120000D01*
G75*
G02*
X51153600Y-16111000I9000J0D01*
G01*
X52653600Y-16111000D01*
G75*
G02*
X52662600Y-16120000I0J-9000D01*
G01*
X52662600Y-18120000D01*
G75*
G02*
X52653600Y-18129000I-9000J0D01*
G01*
G37*
G36*
G01*
X57253600Y-18129000D02*
X55753600Y-18129000D01*
G75*
G02*
X55744600Y-18120000I0J9000D01*
G01*
X55744600Y-16120000D01*
G75*
G02*
X55753600Y-16111000I9000J0D01*
G01*
X57253600Y-16111000D01*
G75*
G02*
X57262600Y-16120000I0J-9000D01*
G01*
X57262600Y-18120000D01*
G75*
G02*
X57253600Y-18129000I-9000J0D01*
G01*
G37*
G36*
G01*
X54953600Y-18129000D02*
X53453600Y-18129000D01*
G75*
G02*
X53444600Y-18120000I0J9000D01*
G01*
X53444600Y-16120000D01*
G75*
G02*
X53453600Y-16111000I9000J0D01*
G01*
X54953600Y-16111000D01*
G75*
G02*
X54962600Y-16120000I0J-9000D01*
G01*
X54962600Y-18120000D01*
G75*
G02*
X54953600Y-18129000I-9000J0D01*
G01*
G37*
G36*
G01*
X56103600Y-11829000D02*
X52303600Y-11829000D01*
G75*
G02*
X52294600Y-11820000I0J9000D01*
G01*
X52294600Y-9820000D01*
G75*
G02*
X52303600Y-9811000I9000J0D01*
G01*
X56103600Y-9811000D01*
G75*
G02*
X56112600Y-9820000I0J-9000D01*
G01*
X56112600Y-11820000D01*
G75*
G02*
X56103600Y-11829000I-9000J0D01*
G01*
G37*
%TD*%
D15*
%TO.C,J3*%
X39522400Y-6858000D03*
X39522400Y-9398000D03*
X39522400Y-11938000D03*
D16*
X39522400Y-14478000D03*
%TD*%
D19*
%TO.C,C3*%
X48056800Y-16357600D03*
X45556800Y-16357600D03*
%TD*%
D20*
%TO.C,BZ1*%
X3068000Y-13589000D03*
G36*
G01*
X11677000Y-12589000D02*
X11677000Y-14589000D01*
G75*
G02*
X11668000Y-14598000I-9000J0D01*
G01*
X9668000Y-14598000D01*
G75*
G02*
X9659000Y-14589000I0J9000D01*
G01*
X9659000Y-12589000D01*
G75*
G02*
X9668000Y-12580000I9000J0D01*
G01*
X11668000Y-12580000D01*
G75*
G02*
X11677000Y-12589000I0J-9000D01*
G01*
G37*
%TD*%
M02*
